<?xml version="1.0" encoding="UTF-8" standalone="no"?>
<!-- Created with Inkscape (http://www.inkscape.org/) -->

<svg
   xmlns:dc="http://purl.org/dc/elements/1.1/"
   xmlns:cc="http://creativecommons.org/ns#"
   xmlns:rdf="http://www.w3.org/1999/02/22-rdf-syntax-ns#"
   xmlns:svg="http://www.w3.org/2000/svg"
   xmlns="http://www.w3.org/2000/svg"
   xmlns:xlink="http://www.w3.org/1999/xlink"
   xmlns:sodipodi="http://sodipodi.sourceforge.net/DTD/sodipodi-0.dtd"
   xmlns:inkscape="http://www.inkscape.org/namespaces/inkscape"
   width="540"
   height="540"
   id="svg3278"
   version="1.1"
   inkscape:version="0.48.3.1 r9886"
   sodipodi:docname="app-loading.svg">
  <defs
     id="defs3280">
    <filter
       color-interpolation-filters="sRGB"
       id="filter9250"
       inkscape:label="Drop Shadow">
      <feFlood
         id="feFlood9252"
         flood-opacity="0.5"
         flood-color="rgb(0,0,0)"
         result="flood" />
      <feComposite
         id="feComposite9254"
         in2="SourceGraphic"
         in="flood"
         operator="in"
         result="composite1" />
      <feGaussianBlur
         id="feGaussianBlur9256"
         stdDeviation="0.2"
         result="blur" />
      <feOffset
         id="feOffset9258"
         dx="1"
         dy="-1"
         result="offset" />
      <feComposite
         id="feComposite9260"
         in2="offset"
         in="SourceGraphic"
         operator="over"
         result="composite2" />
    </filter>
    <linearGradient
       inkscape:collect="always"
       xlink:href="#linearGradient4007"
       id="linearGradient4013"
       x1="29.861986"
       y1="1025.1852"
       x2="29.861986"
       y2="1009.4808"
       gradientUnits="userSpaceOnUse" />
    <linearGradient
       inkscape:collect="always"
       id="linearGradient4007">
      <stop
         style="stop-color:#ff8a19;stop-opacity:1"
         offset="0"
         id="stop4009" />
      <stop
         style="stop-color:#fce94f;stop-opacity:1"
         offset="1"
         id="stop4011" />
    </linearGradient>
    <filter
       color-interpolation-filters="sRGB"
       id="filter3167"
       inkscape:label="Drop Shadow">
      <feFlood
         id="feFlood3169"
         flood-opacity="1"
         flood-color="rgb(0,0,0)"
         result="flood" />
      <feComposite
         id="feComposite3171"
         in2="SourceGraphic"
         in="flood"
         operator="in"
         result="composite1" />
      <feGaussianBlur
         id="feGaussianBlur3173"
         stdDeviation="0.5"
         result="blur" />
      <feOffset
         id="feOffset3175"
         dx="0.5"
         dy="0.5"
         result="offset" />
      <feComposite
         id="feComposite3177"
         in2="offset"
         in="SourceGraphic"
         operator="over"
         result="composite2" />
    </filter>
    <linearGradient
       inkscape:collect="always"
       xlink:href="#linearGradient4007"
       id="linearGradient3314"
       x1="29.861986"
       y1="1025.1852"
       x2="29.861986"
       y2="1009.4808"
       gradientUnits="userSpaceOnUse" />
    <linearGradient
       inkscape:collect="always"
       xlink:href="#linearGradient4400"
       id="linearGradient4410"
       gradientUnits="userSpaceOnUse"
       x1="1.095396"
       y1="1035.1595"
       x2="24.964859"
       y2="1035.1595"
       gradientTransform="matrix(-1,0,0,1,229.69181,-250)" />
    <linearGradient
       id="linearGradient4400">
      <stop
         style="stop-color:#f3f3f3;stop-opacity:1;"
         offset="0"
         id="stop4402" />
      <stop
         style="stop-color:#ffffff;stop-opacity:1;"
         offset="1"
         id="stop4404" />
    </linearGradient>
    <filter
       color-interpolation-filters="sRGB"
       id="filter3074"
       inkscape:label="Drop Shadow">
      <feFlood
         id="feFlood3076"
         flood-opacity="0.5"
         flood-color="rgb(0,0,0)"
         result="flood" />
      <feComposite
         id="feComposite3078"
         in2="SourceGraphic"
         in="flood"
         operator="in"
         result="composite1" />
      <feGaussianBlur
         id="feGaussianBlur3080"
         stdDeviation="0.2"
         result="blur" />
      <feOffset
         id="feOffset3082"
         dx="1"
         dy="-1"
         result="offset" />
      <feComposite
         id="feComposite3084"
         in2="offset"
         in="SourceGraphic"
         operator="over"
         result="composite2" />
    </filter>
    <linearGradient
       gradientTransform="translate(170,-250)"
       inkscape:collect="always"
       xlink:href="#linearGradient4400"
       id="linearGradient4406"
       x1="1.095396"
       y1="1035.1595"
       x2="24.964859"
       y2="1035.1595"
       gradientUnits="userSpaceOnUse" />
    <linearGradient
       id="linearGradient3333">
      <stop
         style="stop-color:#f3f3f3;stop-opacity:1;"
         offset="0"
         id="stop3335" />
      <stop
         style="stop-color:#ffffff;stop-opacity:1;"
         offset="1"
         id="stop3337" />
    </linearGradient>
    <filter
       color-interpolation-filters="sRGB"
       id="filter3062"
       inkscape:label="Drop Shadow">
      <feFlood
         id="feFlood3064"
         flood-opacity="0.5"
         flood-color="rgb(0,0,0)"
         result="flood" />
      <feComposite
         id="feComposite3066"
         in2="SourceGraphic"
         in="flood"
         operator="in"
         result="composite1" />
      <feGaussianBlur
         id="feGaussianBlur3068"
         stdDeviation="0.2"
         result="blur" />
      <feOffset
         id="feOffset3070"
         dx="1"
         dy="-1"
         result="offset" />
      <feComposite
         id="feComposite3072"
         in2="offset"
         in="SourceGraphic"
         operator="over"
         result="composite2" />
    </filter>
    <linearGradient
       y2="24"
       x2="50.044643"
       y1="70.089287"
       x1="50.044643"
       gradientTransform="matrix(5.8920476,0,0,5.8920476,74.275601,624.05029)"
       gradientUnits="userSpaceOnUse"
       id="linearGradient4842"
       xlink:href="#linearGradient3838-4"
       inkscape:collect="always" />
    <linearGradient
       inkscape:collect="always"
       id="linearGradient3838-4">
      <stop
         style="stop-color:#000000;stop-opacity:0.502"
         offset="0"
         id="stop3840-3" />
      <stop
         style="stop-color:#000000;stop-opacity:0.051"
         offset="1"
         id="stop3842-8" />
    </linearGradient>
    <radialGradient
       inkscape:collect="always"
       xlink:href="#linearGradient3969"
       id="radialGradient3260"
       gradientUnits="userSpaceOnUse"
       gradientTransform="matrix(0.162441,2.106734,-1.690916,0.262658,228.2627,-371.4298)"
       cx="180.72482"
       cy="38.594139"
       fx="180.72482"
       fy="38.594139"
       r="28.884468" />
    <linearGradient
       inkscape:collect="always"
       id="linearGradient3969">
      <stop
         style="stop-color:#ffffff;stop-opacity:0.50196081"
         offset="0"
         id="stop3971" />
      <stop
         style="stop-color:#ffffff;stop-opacity:0"
         offset="1"
         id="stop3973" />
    </linearGradient>
    <linearGradient
       inkscape:collect="always"
       xlink:href="#linearGradient4448"
       id="linearGradient3262"
       gradientUnits="userSpaceOnUse"
       x1="181.99649"
       y1="36.387283"
       x2="183.27852"
       y2="53.875359" />
    <linearGradient
       id="linearGradient4448"
       inkscape:collect="always">
      <stop
         id="stop4450"
         offset="0"
         style="stop-color:#ffffff;stop-opacity:1;" />
      <stop
         id="stop4452"
         offset="1"
         style="stop-color:#ffffff;stop-opacity:0;" />
    </linearGradient>
    <linearGradient
       inkscape:collect="always"
       xlink:href="#linearGradient3957"
       id="linearGradient3258"
       gradientUnits="userSpaceOnUse"
       x1="194.68881"
       y1="31.85433"
       x2="194.68881"
       y2="74.711746" />
    <linearGradient
       id="linearGradient3957">
      <stop
         style="stop-color:#132b4d;stop-opacity:1"
         offset="0"
         id="stop3959" />
      <stop
         style="stop-color:#3465a4;stop-opacity:1"
         offset="1"
         id="stop3961" />
    </linearGradient>
    <linearGradient
       y2="74.711746"
       x2="194.68881"
       y1="31.85433"
       x1="194.68881"
       gradientUnits="userSpaceOnUse"
       id="linearGradient3370"
       xlink:href="#linearGradient3957"
       inkscape:collect="always" />
  </defs>
  <sodipodi:namedview
     id="base"
     pagecolor="#000000"
     bordercolor="#666666"
     borderopacity="1.0"
     inkscape:pageopacity="0"
     inkscape:pageshadow="2"
     inkscape:zoom="0.7"
     inkscape:cx="68.952549"
     inkscape:cy="249.5362"
     inkscape:document-units="px"
     inkscape:current-layer="layer1"
     showgrid="false"
     inkscape:window-width="1551"
     inkscape:window-height="875"
     inkscape:window-x="49"
     inkscape:window-y="0"
     inkscape:window-maximized="1">
    <inkscape:grid
       type="xygrid"
       id="grid3286"
       empspacing="5"
       visible="true"
       enabled="true"
       snapvisiblegridlinesonly="true" />
  </sodipodi:namedview>
  <metadata
     id="metadata3283">
    <rdf:RDF>
      <cc:Work
         rdf:about="">
        <dc:format>image/svg+xml</dc:format>
        <dc:type
           rdf:resource="http://purl.org/dc/dcmitype/StillImage" />
      </cc:Work>
    </rdf:RDF>
  </metadata>
  <g
     inkscape:label="Layer 1"
     inkscape:groupmode="layer"
     id="layer1"
     transform="translate(0,-512.36218)">
    <path
       transform="matrix(4.3277212,0,0,4.3275902,-567.68867,602.9152)"
       d="m 222.44791,56.485737 a 28.884468,28.884468 0 1 1 -57.76893,0 28.884468,28.884468 0 1 1 57.76893,0 z"
       sodipodi:ry="28.884468"
       sodipodi:rx="28.884468"
       sodipodi:cy="56.485737"
       sodipodi:cx="193.56345"
       id="path3523"
       style="fill:url(#linearGradient3370);fill-opacity:1;stroke:none;display:inline;"
       sodipodi:type="arc" />
    <path
       inkscape:connector-curvature="0"
       style="opacity:0.78365383;fill:#4584c7;fill-opacity:1;display:inline"
       id="path3525"
       d="m 258.91015,968.92414 c -7.6567,-0.86469 -16.67496,-2.63764 -17.12562,-3.36693 -0.27329,-0.44228 0.97279,-1.08969 2.76921,-1.438 4.29691,-0.83405 4.37084,-0.83405 10.94191,-0.0432 3.73662,0.45689 5.89213,0.31467 6.34485,-0.41814 0.48316,-0.78189 1.86619,-0.63707 4.68378,0.49013 3.58505,1.43454 6.38761,1.50136 11.03732,0.2629 0.88382,-0.23704 1.39043,0.17246 1.219,0.98151 -0.20604,0.97293 0.24311,1.15737 1.51229,0.62162 0.99306,-0.41814 3.16661,-0.68883 4.83011,-0.59877 l 3.02453,0.1638 -2.42967,-1.71124 -2.42971,-1.71127 2.30763,-0.85346 c 1.47219,-0.54486 2.81637,-0.43149 3.71305,0.31035 1.8038,1.49748 14.20769,0.43103 19.18887,-1.65177 1.97364,-0.82504 5.00753,-1.51601 6.74193,-1.53541 1.73445,0 4.28772,-0.68407 5.67398,-1.47633 2.80203,-1.60221 5.04094,-1.9255 5.04094,-0.72847 0,0.90865 -9.88441,5.31135 -18.65145,8.30757 -11.90576,4.06911 -33.68688,6.04031 -48.39295,4.37947 z m 26.92946,-16.17899 c -3.62186,-1.48797 -5.64577,-5.08637 -4.00572,-7.12178 0.71636,-0.88881 0.60787,-1.26469 -0.36812,-1.27546 -0.97231,0 -1.03839,-0.23708 -0.22242,-0.75606 0.63877,-0.40519 1.46898,-3.00914 1.84489,-5.78164 0.37587,-2.7725 1.27603,-7.08256 2.00029,-9.57789 0.72419,-2.49535 1.30982,-5.44414 1.30127,-6.55323 -0.0173,-2.13584 0.86672,-8.86191 1.89705,-14.44699 0.82558,-4.47558 -1.1633,-7.94725 -5.95282,-10.39042 -2.12442,-1.08366 -4.10939,-2.74404 -4.41109,-3.68935 -1.49865,-4.69626 -4.98446,-11.72623 -7.7623,-15.65481 -2.71177,-3.83502 -0.86056,-12.0301 3.62149,-16.03154 2.70469,-2.41472 3.16691,-3.47079 2.89634,-6.61658 -0.17717,-2.05869 -0.688,-3.96995 -1.13542,-4.24753 -0.44748,-0.27588 -0.85689,-0.9578 -0.90982,-1.51213 -0.0531,-0.55432 -0.66338,-1.00822 -1.3565,-1.00822 -0.69313,0 -1.1509,0.55519 -1.01719,1.23322 0.3151,1.59964 -5.72888,0.48235 -7.61994,-1.40866 -0.7352,-0.73537 -1.758,-1.33668 -2.27292,-1.33668 -0.51488,0 -0.93615,-0.60174 -0.93615,-1.33667 0,-2.15998 -4.25707,-5.44587 -8.0655,-6.22477 -1.94076,-0.39656 -4.52305,-1.63454 -5.73842,-2.75009 -1.48139,-1.35951 -3.89494,-2.11904 -7.32214,-2.30395 -5.25279,-0.2845 -10.65497,-2.85482 -9.59625,-4.56824 0.32846,-0.53106 -0.76188,-0.96382 -2.42885,-0.96382 -3.77724,0 -4.94206,-1.69014 -2.48836,-3.61004 1.02589,-0.80304 1.3712,-1.34013 0.76734,-1.19357 -0.9152,0.22414 -4.79032,-3.71304 -7.67851,-7.79852 -0.39182,-0.55476 -2.09136,-2.59621 -3.77634,-4.53721 l -3.06352,-3.52813 1.58082,3.2764 c 0.86942,1.8022 1.98704,3.27639 2.48351,3.27639 0.4965,0 0.65917,0.63494 0.36166,1.41039 -0.29785,0.77546 -0.0564,1.70998 0.53576,2.07592 0.5923,0.3664 1.07692,1.38971 1.07692,2.27464 0,1.40134 -0.26035,1.37332 -2.01639,-0.21552 -1.109,-1.0039 -2.01638,-2.44921 -2.01638,-3.21259 0,-0.76338 -0.69401,-1.65393 -1.54231,-1.97981 -0.94181,-0.36208 -1.31837,-1.29703 -0.96715,-2.40395 0.31639,-0.99659 0.10306,-2.10351 -0.47405,-2.46043 -0.57706,-0.35777 -1.04922,-1.46298 -1.04922,-2.45826 0,-0.99529 -1.09297,-2.98888 -2.42879,-4.43031 -3.70546,-3.99798 -4.72476,-10.45507 -2.5118,-15.91128 2.03183,-5.01007 2.4249,-8.98347 0.88865,-8.98347 -0.57998,0 -0.76392,-1.0496 -0.42243,-2.41042 0.33275,-1.32548 0.11465,-2.71344 -0.48488,-3.08415 -0.60305,-0.3707 -1.08987,0.0431 -1.08987,0.89831 0,0.86468 -0.47089,1.57203 -1.04633,1.57203 -0.57553,0 -0.95865,-1.02116 -0.8514,-2.26862 0.36985,-4.30486 -0.12457,-5.79716 -1.92187,-5.79716 -2.28939,0 -9.40121,3.59496 -10.44129,5.27775 -0.43359,0.70174 -1.1452,1.28109 -1.5813,1.28754 -0.43608,0 -2.89016,1.46341 -5.45352,3.23718 -2.56336,1.77332 -4.92705,2.95828 -5.25262,2.63241 -0.32544,-0.3276 0.86119,-1.57117 2.63728,-2.76819 1.7761,-1.19702 3.38437,-3.06734 3.57394,-4.15703 0.18966,-1.08969 2.00748,-3.45442 4.03975,-5.25533 2.03226,-1.80093 2.83918,-2.97596 1.79311,-2.61172 -2.89608,1.00865 -1.52625,-1.90997 1.61578,-3.44279 1.42423,-0.69441 2.86077,-2.2824 3.19233,-3.52855 0.79703,-2.99492 7.76147,-7.80111 11.36951,-7.84577 1.57492,-0.0173 5.58557,-0.61381 8.91257,-1.32073 3.32703,-0.70693 7.72015,-1.17237 9.76255,-1.03434 3.05186,0.20648 3.68877,-0.0759 3.57515,-1.58397 -0.11208,-1.48798 -0.47199,-1.62661 -1.90321,-0.73279 -0.97072,0.60623 -2.07713,0.79016 -2.45861,0.40864 -0.96369,-0.96375 1.53198,-3.76689 3.35369,-3.76689 0.87778,0 1.26982,-0.59127 0.94807,-1.42973 -0.36121,-0.9419 0.71978,-1.98813 3.16874,-3.06627 2.04459,-0.90008 2.81,-1.42984 1.70099,-1.17723 -2.66101,0.60613 -8.62669,2.69603 -10.82435,3.79195 -0.96282,0.4802 -2.66413,0.87306 -3.78066,0.87306 -1.11655,0 -2.03007,0.40001 -2.03007,0.88869 0,0.87611 -7.18617,3.75996 -12.09823,4.8551 -2.18282,0.48663 -2.04774,0.2371 1.00819,-1.86349 10.91693,-7.50373 20.62132,-11.63528 35.57945,-15.14759 7.66905,-1.8008 12.44294,-2.18568 27.43222,-2.2118 18.08504,-0.0301 31.65314,1.59264 28.67602,3.43265 -0.74731,0.46183 -1.73862,0.60493 -2.20292,0.31812 -0.46427,-0.28708 -5.55552,-0.65825 -11.31389,-0.8252 -8.78759,-0.25476 -10.38006,-0.0698 -9.91185,1.15029 0.30692,0.79956 1.12649,1.23557 1.82152,0.96887 1.73109,-0.66429 9.87324,3.58439 15.14043,7.90038 2.38858,1.95725 4.72446,3.55868 5.19089,3.55868 0.46645,0 1.437,0.94301 2.1568,2.09559 1.14594,1.83498 1.06319,2.15976 -0.66563,2.61188 -2.59594,0.67882 -3.30428,4.77589 -1.64087,9.4907 0.73098,2.07161 1.10952,3.98633 0.84128,4.25445 -0.9218,0.922 -6.87947,-2.70311 -10.76435,-6.54935 -2.13911,-2.11774 -4.37428,-3.55054 -4.96705,-3.18415 -0.59515,0.36639 -0.78731,0.19398 -0.42889,-0.38364 0.35691,-0.5776 -0.0474,-1.6275 -0.89826,-2.3337 -0.85089,-0.70613 -1.31383,-1.89173 -1.02874,-2.63465 0.29139,-0.75893 -0.1444,-1.35077 -0.99396,-1.35077 -0.83175,0 -1.77341,-0.68049 -2.0926,-1.51229 -0.31898,-0.83175 -1.06314,-1.51228 -1.65329,-1.51228 -0.59015,0 -1.8092,-0.66627 -2.70904,-1.4806 -1.20573,-1.09117 -2.42,-1.24656 -4.61623,-0.59076 -1.6391,0.48944 -2.37749,0.92886 -1.64087,0.97653 2.17352,0.14052 9.3915,8.04068 9.0796,9.93764 -0.15777,0.95866 0.0129,2.21862 0.37759,2.79923 0.36553,0.58105 0.25388,1.71557 -0.24828,2.52077 -0.77576,1.24444 -1.56009,1.12332 -5.22645,-0.80736 -2.37257,-1.24917 -5.08095,-2.2699 -6.0186,-2.26817 -2.28416,0.005 -3.34252,-1.88109 -1.4616,-2.60266 0.82404,-0.31639 1.75731,-1.25013 2.07395,-2.07528 0.43203,-1.12586 0.0741,-1.34108 -1.43436,-0.86228 -1.48039,0.46985 -2.01002,0.1776 -2.01002,-1.11029 0,-0.96153 -0.29872,-1.44974 -0.66338,-1.08486 -0.36466,0.36465 -1.15879,0.25216 -1.76432,-0.25 -0.7603,-0.63071 -1.09715,0.17587 -1.08863,2.60706 0.009,2.30179 0.62615,3.8636 1.78554,4.51276 0.97524,0.54572 1.56078,1.33582 1.30117,1.7561 -0.25949,0.41811 0.75162,0.5858 2.24717,0.3707 1.83385,-0.26725 4.19657,0.60303 7.25613,2.66905 3.49749,2.36214 4.61154,2.72552 4.86279,1.58584 0.49696,-2.25398 1.44026,-1.83197 5.73483,2.56601 2.17223,2.22464 4.39092,3.89755 4.93047,3.7178 1.13749,-0.37933 3.76868,2.07549 6.19648,5.78077 1.69859,2.59233 4.16341,3.6984 2.95867,1.32763 -0.35217,-0.69312 0.30174,-0.18965 1.45281,1.11988 1.15124,1.30908 2.08622,3.1238 2.07772,4.03287 -0.0129,1.43539 -0.14396,1.4535 -0.99272,0.14226 -0.86875,-1.34403 -0.98789,-1.34403 -1.07233,0 -0.0651,1.03795 -0.25474,1.11683 -0.6036,0.25 -0.81291,-2.01472 -5.18245,-1.57635 -5.01731,0.50346 0.0888,1.11685 -0.69205,1.8824 -2.12839,2.0867 -1.24767,0.17673 -2.26843,0.80434 -2.26843,1.39358 0,0.66726 -1.51962,0.86685 -4.03275,0.52975 -3.29286,-0.44181 -4.03685,-0.23275 -4.05517,1.12762 -0.0129,0.91728 -0.9096,2.80268 -1.99395,4.18894 -1.08435,1.38582 -1.98161,3.14277 -1.99394,3.904 -0.0173,1.17288 -0.2888,1.17288 -1.76936,0 -1.62066,-1.28365 -1.61759,-1.18151 0.0431,1.41728 1.97045,3.08545 1.63086,4.10444 -2.53551,7.61017 -2.84423,2.39318 -3.7718,6.52261 -1.7464,7.77481 1.48104,0.91511 3.10691,5.46482 2.37573,6.64805 -0.87416,1.4147 -3.52542,-1.0884 -5.07189,-4.78765 -0.9555,-2.28628 -2.18346,-3.31606 -4.50664,-3.78073 -4.95361,-0.99099 -6.97398,-0.76511 -6.97398,0.77892 0,0.91208 -0.70523,1.23363 -1.97619,0.9013 -2.28277,-0.59699 -8.41573,2.89665 -10.62692,6.05321 -1.94207,2.77294 -1.91674,6.09588 0.0785,10.30119 1.85653,3.91176 3.36029,4.6842 7.50766,3.85443 2.07567,-0.4138 3.21522,-1.35651 3.62692,-2.99665 0.33018,-1.31555 1.11822,-2.42679 1.75123,-2.46903 0.63303,-0.0431 1.94312,-0.22846 2.91123,-0.41381 2.63002,-0.50346 3.05166,1.06813 1.23114,4.5885 -0.89529,1.73154 -1.37147,3.40443 -1.05814,3.71736 0.31336,0.31465 0.0491,1.19702 -0.5873,1.96385 -0.95814,1.15436 -0.50274,1.32203 2.64918,0.97503 6.24281,-0.68838 7.47683,0.0431 7.41765,4.31651 -0.10001,7.23602 2.25061,10.2486 6.3035,8.07957 1.33621,-0.71511 2.5525,-0.7138 3.8934,0 2.59388,1.38799 2.71414,1.36385 4.91783,-1.00175 1.04805,-1.12504 2.76703,-2.21989 3.81999,-2.43369 1.05293,-0.21122 2.7828,-0.73106 3.84414,-1.15048 1.35318,-0.53448 1.71194,-0.40949 1.20072,0.41813 -0.40088,0.64872 -0.24872,1.17977 0.33879,1.17977 0.58724,0 1.06772,-0.42674 1.06772,-0.94874 0,-0.52156 1.21507,-0.31897 2.70021,0.45259 1.48514,0.77073 3.1431,1.12721 3.68443,0.79271 0.5413,-0.33622 0.69236,-0.13362 0.33579,0.44096 -0.35692,0.57718 0.36725,1.3216 1.60854,1.65437 3.1726,0.85046 3.97702,0.77589 3.30833,-0.30605 -0.31898,-0.51596 -0.0487,-1.26685 0.60037,-1.66815 0.73722,-0.45562 0.91032,-0.29311 0.46104,0.43449 -0.66881,1.08236 0.73515,1.56299 4.18855,1.43495 0.69307,-0.0431 1.26839,0.69658 1.27835,1.60524 0.0259,2.31343 6.89669,7.74162 10.76638,8.50587 3.90046,0.76984 7.36281,3.55097 7.36281,5.91354 0,0.95307 0.48325,2.03153 1.07387,2.39662 0.70265,0.43408 0.45049,1.41299 -0.72938,2.83199 -0.99179,1.19271 -1.16274,1.60652 -0.37975,0.91986 1.15487,-1.01296 2.63004,-0.58493 7.82142,2.26818 3.51894,1.93455 7.21953,3.51691 8.22349,3.51691 1.00398,0 2.61886,0.87676 3.58867,1.94834 0.96978,1.07159 2.40116,1.7035 3.1808,1.40479 1.02538,-0.39225 1.41758,0.29743 1.41758,2.50611 0,2.15006 -1.32339,4.60057 -4.48569,8.305 -2.46715,2.89018 -4.79291,6.67046 -5.16835,8.39983 -1.03538,4.76955 -5.55906,10.52706 -9.24943,11.77279 -1.80216,0.60864 -3.27665,1.741 -3.27665,2.51689 0,0.77632 -1.24763,2.213 -2.77246,3.19363 -1.52492,0.98021 -3.59077,2.7945 -4.59072,4.03117 -4.95118,6.12434 -10.34532,10.41972 -12.58953,10.02531 -1.74138,-0.30604 -2.23735,0 -2.01639,1.32375 0.31424,1.85393 -1.85773,5.06352 -3.42632,5.06352 -0.52359,0 -3.41704,2.12851 -6.4299,4.72947 -3.63885,3.14147 -5.07284,4.97947 -4.27133,5.47473 0.847,0.52373 0.47151,1.36729 -1.26009,2.83156 -2.31252,1.95567 -2.35642,2.17162 -0.70227,3.45787 0.97039,0.75476 1.76432,1.60953 1.76432,1.89919 0,1.27893 -3.80891,1.31815 -6.84478,0.069 z m -4.05624,-173.405 c -0.72778,-0.28882 -1.59733,-0.25433 -1.93234,0.0776 -0.33493,0.33621 0.26034,0.5733 1.32323,0.52933 1.17447,-0.0475 1.41341,-0.28881 0.60911,-0.60908 z m 6.83254,-4.57256 c 0.0215,-0.39658 -0.64479,-0.46338 -1.47655,-0.14226 -0.8837,0.34054 -1.51867,0 -1.52772,-0.78795 -0.0129,-1.11469 -0.18191,-1.10522 -0.914,0.0517 -0.54502,0.86081 -0.46536,2.37035 0.2026,3.8359 l 1.10102,2.41645 1.28952,-2.32376 c 0.70929,-1.27807 1.30566,-2.64965 1.3253,-3.04794 z m -32.22623,2.83499 c 0,-0.20259 -1.03701,-1.04573 -2.30451,-1.87591 -2.06718,-1.3548 -2.51879,-1.33668 -4.38582,0.17241 -2.02434,1.63928 -1.96114,1.691 2.30445,1.87636 2.41225,0.10775 4.38588,0.0431 4.38588,-0.17243 z m -2.42476,-5.18982 c -1.82947,-1.33754 -1.83385,-1.4341 -0.0962,-2.10092 1.00175,-0.38363 3.52381,-0.24569 5.60465,0.31035 3.20951,0.85692 3.69524,0.78062 3.20299,-0.50217 -0.37545,-0.97891 -0.16725,-1.25693 0.59123,-0.7884 0.64433,0.39658 1.96906,0.25865 2.94384,-0.30603 1.60965,-0.93752 1.57574,-1.03494 -0.37026,-1.06297 -1.64223,-0.0431 -2.14241,-0.65949 -2.14241,-2.72465 0,-1.48152 -0.85063,-3.31563 -1.89035,-4.07599 -1.03969,-0.76037 -1.77692,-1.58971 -1.63829,-1.84273 0.69786,-1.2759 0.0866,-2.47723 -1.26026,-2.47723 -0.83174,0 -1.51225,-0.4914 -1.51225,-1.09228 0,-0.60044 -0.56713,-0.88882 -1.26025,-0.64011 -0.69312,0.25001 -2.06511,0.0432 -3.04884,-0.46853 -1.38875,-0.71469 -2.36724,-0.23278 -4.37669,2.15522 -1.42346,1.69144 -2.95285,2.8501 -3.39873,2.57466 -0.44587,-0.27588 -1.0687,0.17241 -1.38409,0.99357 -0.31554,0.82157 -0.24958,1.39356 0.14656,1.27073 0.39569,-0.12501 1.98769,1.05736 3.53721,2.62292 1.76278,1.78153 3.41982,2.61603 4.42682,2.22938 2.07929,-0.79787 5.56113,0.30172 4.80921,1.51685 -0.31812,0.51468 -1.25875,0.93581 -2.0905,0.93581 -0.8864,0 -1.21457,-0.48191 -0.79297,-1.16383 0.4493,-0.72718 0.27632,-0.8901 -0.46098,-0.4345 -0.64921,0.40088 -0.9194,1.15176 -0.60038,1.66816 0.31897,0.51596 0.0996,0.93839 -0.48765,0.93839 -0.58725,0 -1.0677,-0.4539 -1.0677,-1.00822 0,-1.77375 -3.77939,-1.07762 -4.26673,0.7858 -0.55407,2.11903 1.79402,4.80102 2.79091,3.18804 0.44737,-0.72417 1.03714,-0.72373 1.91041,5.7e-4 0.69476,0.57674 1.56172,0.75002 1.92661,0.38364 0.36466,-0.3664 0.66338,-0.056 0.66338,0.68107 0,0.73924 0.33967,1.00432 0.75455,0.58966 0.41509,-0.41381 -0.10819,-1.38539 -1.16297,-2.15697 z m 7.4657,-5.43077 c 0,-0.52157 0.4485,-1.2259 0.99662,-1.56469 0.57153,-0.35346 0.74054,0.0517 0.39614,0.94872 -0.6702,1.7466 -1.39285,2.06601 -1.39285,0.61597 z m -12.6617,-2.54792 c -1.07636,-0.81383 -1.42702,-1.49444 -0.77924,-1.51212 1.91536,-0.0517 4.36725,1.12245 4.36725,2.0923 0,1.32116 -1.36638,1.10047 -3.58801,-0.58018 z m 33.83362,9.83306 c 0,-0.11638 -0.85974,-0.67631 -1.91055,-1.23882 -1.36209,-0.72891 -2.20563,-0.66684 -2.93879,0.21551 -0.77329,0.93149 -0.29958,1.23883 1.91049,1.23883 1.61634,0 2.93885,-0.0991 2.93885,-0.21552 z m -15.1228,-2.30352 c 0,-0.55433 -0.70733,-1.00821 -1.57177,-1.00821 -0.86452,0 -1.2914,0.45388 -0.94872,1.00821 0.3427,0.55433 1.05001,1.00822 1.57178,1.00822 0.52179,0 0.94871,-0.45389 0.94871,-1.00822 z m 3.52864,0 c -0.34269,-0.55433 -0.82318,-1.00821 -1.06771,-1.00821 -0.2444,0 -0.44454,0.45388 -0.44454,1.00821 0,0.55433 0.48045,1.00822 1.06767,1.00822 0.58721,0 0.7873,-0.45389 0.44458,-1.00822 z m -32.76603,-5.07472 c -1.27905,-0.85478 -1.08473,-1.38927 1.26021,-3.46478 1.52488,-1.3496 2.7725,-3.01603 2.7725,-3.70312 0,-0.68709 -0.64342,-0.3707 -1.42984,0.70606 -0.7864,1.07546 -1.7694,1.616 -2.18441,1.2009 -0.41509,-0.41381 -0.22544,-0.75434 0.42157,-0.75434 0.64695,0 1.17624,-0.68063 1.17624,-1.51254 0,-1.95653 -1.90752,-1.96085 -2.65777,0 -0.3181,0.82847 -0.99161,1.2509 -1.49706,0.93839 -0.50545,-0.31036 -0.65796,-0.99013 -0.33881,-1.50651 0.31899,-0.51597 0.12631,-0.9384 -0.42803,-0.9384 -0.55449,0 -1.29313,0.46122 -1.64146,1.02459 -0.3483,0.56338 -1.10402,0.73365 -1.67941,0.37933 -0.67452,-0.41811 -0.56024,-0.95434 0.32156,-1.5134 1.11378,-0.70563 1.08698,-0.86297 -0.14441,-0.84615 -1.91416,0.0431 -7.0159,2.88931 -5.23343,2.93758 0.72584,0 1.06545,0.447 0.75471,0.94962 -0.31077,0.50302 0.45645,0.70131 1.70485,0.44095 l 2.26981,-0.47328 -2.3237,1.38883 -2.32364,1.3884 2.80078,1.2759 c 2.0204,0.92073 2.90586,0.96125 3.17785,0.14657 0.27198,-0.81685 0.78386,-0.794 1.83903,0.0818 1.17826,0.97761 1.20813,1.37417 0.15388,2.04317 -0.85194,0.5401 -0.25346,0.82933 1.7166,0.82933 2.35512,0 2.68988,-0.22414 1.51229,-1.0108 z m -3.82046,-3.60097 c -1.44061,-1.55825 -0.46779,-1.85653 1.65964,-0.50865 0.75234,0.47674 0.97918,1.10263 0.50409,1.39099 -0.47506,0.28881 -1.44876,-0.10775 -2.16373,-0.88234 z m 39.57646,-0.2457 c -0.56809,-0.59787 -2.48586,0.91769 -2.48586,1.96471 0,0.54356 0.63477,0.40519 1.41055,-0.31036 0.77585,-0.7151 1.2597,-1.45909 1.07531,-1.65308 z m -28.69871,1.469 c 0,-0.21552 -0.70412,-0.66639 -1.56465,-0.99658 -0.89721,-0.34484 -1.3019,-0.17672 -0.94871,0.39656 0.59209,0.95823 2.51336,1.41687 2.51336,0.60045 z m -15.33902,-10.22963 c 0.87128,-0.75865 0.37243,-1.02848 -1.80666,-0.97632 -1.65569,0.0431 -3.80601,0.95003 -4.77855,2.0229 -1.73203,1.91084 -1.72384,1.91386 0.40002,0.15518 2.25516,-1.86816 4.09457,-0.83063 2.85734,1.61169 -0.35131,0.69314 -0.0173,0.57976 0.74281,-0.25001 0.75965,-0.83149 1.92282,-1.98369 2.58488,-2.56042 z m 8.28173,1.49273 c 0,-0.5871 -0.45368,-0.78711 -1.00818,-0.44442 -0.55455,0.34484 -1.00823,0.82287 -1.00823,1.0677 0,0.2457 0.45368,0.44442 1.00823,0.44442 0.5545,0 1.00818,-0.48063 1.00818,-1.0677 z m -5.31219,-7.69647 c -0.98095,-0.2556 -2.34198,-0.23878 -3.02454,0.0387 -0.68257,0.2763 0.11984,0.48531 1.7835,0.4648 1.6635,-0.0215 2.22197,-0.24655 1.24104,-0.50212 z m 7.85928,-1.12295 c -0.31033,-0.31037 -1.1239,-5.7e-4 -1.8078,0.68834 -0.98827,0.99572 -0.87245,1.1115 0.56442,0.56438 0.99429,-0.37847 1.55384,-0.94233 1.24338,-1.25272 z m 11.56749,-1.26241 c 0,-0.52178 -0.37803,-0.9487 -0.84015,-0.9487 -0.46208,0 -0.84016,0.66058 -0.84016,1.46789 0,0.8074 0.37803,1.23432 0.84016,0.94874 0.46208,-0.28579 0.84015,-0.94614 0.84015,-1.46793 z m -4.04389,-1.97769 c -0.59966,-1.12047 -0.75537,-2.59495 -0.34612,-3.27666 0.46838,-0.77998 0.10261,-0.71864 -0.98702,0.16552 -1.62221,1.31634 -1.62453,1.52268 -0.0388,3.27661 2.20757,2.4393 2.73057,2.37625 1.37035,-0.16552 z m -5.11377,0.66675 c -0.23104,-0.19915 -1.78118,-0.66671 -3.44468,-1.03884 -2.20882,-0.49411 -2.61668,-0.40044 -1.51224,0.347 1.36143,0.92127 5.96859,1.56444 4.95692,0.69201 z m -8.98968,-2.75449 c 1.34423,-0.95069 1.34423,-1.02012 0,-0.62489 -0.83175,0.24441 -2.41965,-0.0215 -3.52865,-0.59244 -1.80251,-0.92701 -1.86963,-0.85908 -0.63268,0.64033 1.6112,1.95321 2.11632,2.02324 4.16133,0.577 z m 5.04094,-1.38845 c 0,-0.93675 -0.58657,-1.25556 -1.59682,-0.86791 -1.28564,0.49338 -1.33478,0.77886 -0.25218,1.4652 1.79069,1.13509 1.84887,1.1163 1.84887,-0.59729 z m 26.61609,-0.53576 c 3.96084,0 -0.0931,-2.21041 -4.46321,-2.43356 -2.63456,-0.13448 -4.73837,-0.86685 -5.50599,-1.91662 -1.79659,-2.457 -2.53227,-2.09928 -2.53227,1.23126 0,2.4024 0.35174,2.83814 1.95356,2.4193 1.07442,-0.28105 2.98415,0.21078 4.24369,1.09322 1.51252,1.05939 2.62936,1.26491 3.28904,0.60522 0.54933,-0.54935 1.90618,-0.99882 3.01518,-0.99882 z m -22.58333,0 c 0,-0.5545 -0.48051,-1.00817 -1.06772,-1.00817 -0.58722,0 -0.78729,0.45367 -0.44458,1.00817 0.34269,0.55452 0.82318,1.00819 1.06767,1.00819 0.2444,0 0.44463,-0.45367 0.44463,-1.00819 z m 27.41003,-9.76236 c -0.72778,-0.2914 -1.59734,-0.25563 -1.93234,0.0792 -0.33492,0.33492 0.26034,0.57329 1.32322,0.52955 1.17449,-0.0483 1.41337,-0.28751 0.60912,-0.60912 z m 26.72334,220.83693 c -1.07508,-1.07546 0.3,-2.37982 2.50798,-2.37982 1.73488,0 1.87191,0.25001 0.82523,1.51212 -1.35526,1.63281 -2.31736,1.88325 -3.33321,0.8677 z M 189.34525,926.25293 c -2.7725,-3.23155 -5.22388,-5.7019 -5.44745,-5.48939 -0.22371,0.21123 -1.4826,-1.07287 -2.79777,-2.85525 -2.44545,-3.31476 -5.84293,-5.70622 -8.19728,-5.77002 -0.72584,0 -1.05059,0.40088 -0.72161,0.93237 0.35734,0.57802 -0.62084,0.54268 -2.42944,-0.0863 -2.36244,-0.8233 -3.72507,-2.53068 -6.203,-7.77265 -5.10649,-10.80294 -5.16753,-11.06889 -2.8266,-12.32194 1.17608,-0.62934 1.82597,-1.72075 1.51195,-2.53888 -0.30258,-0.78883 -0.11121,-1.43453 0.42588,-1.43453 0.53709,0 0.97654,-0.7095 0.97654,-1.57591 0,-1.05521 0.74907,-1.4716 2.26844,-1.26039 1.57358,0.21983 2.27235,-0.20259 2.28128,-1.37763 0.009,-0.93106 0.34742,-2.02764 0.75613,-2.43628 0.40864,-0.40949 0.74325,-0.25 0.74325,0.35347 0,0.60302 1.3611,1.39529 3.02459,1.76039 1.6635,0.36639 3.02458,1.23625 3.02458,1.93455 0,0.69872 1.24761,1.89574 2.7725,2.66042 1.52488,0.76425 3.02256,1.52505 3.32821,1.69101 0.30561,0.16811 0.36941,-1.29401 0.14182,-3.24407 -0.50722,-4.34496 1.39379,-4.77042 2.3271,-0.52114 0.36553,1.66342 1.04674,3.02424 1.51417,3.02424 0.46747,0 1.40582,1.70134 2.08525,3.78072 0.67941,2.07937 2.18907,4.75877 3.35479,5.9545 3.03713,3.1143 4.63994,5.19455 4.63994,6.02174 0,0.39656 0.71485,1.5091 1.58854,2.47464 2.12244,2.34533 2.6247,9.90333 0.82855,12.46763 -0.77489,1.10607 -1.40892,2.80915 -1.40892,3.78418 0,1.05952 -1.03446,2.03282 -2.57076,2.41818 -2.53995,0.63751 -2.54599,0.66251 -0.50407,2.09273 2.01781,1.41341 2.81858,3.41821 1.31047,3.28071 -0.41596,-0.0431 -3.02453,-2.71303 -5.79704,-5.94458 z m 7.90932,-15.70608 c -0.32847,-0.85563 -0.81324,-1.33927 -1.07747,-1.07504 -0.26424,0.26294 -0.18147,0.96425 0.18407,1.55566 0.99412,1.60866 1.57517,1.29616 0.89342,-0.48062 z m 9.28635,19.79458 c -0.59976,-0.97028 7.13157,-5.12128 9.58754,-5.14757 1.21155,0 1.20083,-0.17674 -0.0665,-0.9927 -1.19123,-0.76985 -1.21797,-0.98064 -0.12586,-0.99314 1.00102,0 1.21813,-0.85562 0.78136,-3.03975 -0.3414,-1.70609 -0.1763,-3.02467 0.37803,-3.02467 0.54062,0 0.98295,0.45389 0.98295,1.00822 0,0.55433 0.94896,1.95697 2.10878,3.11692 l 2.10878,2.10868 -2.36082,1.66471 c -1.29844,0.91555 -2.58767,1.66859 -2.86491,1.67333 -0.27716,0 -1.9352,1.02935 -3.68429,2.27592 -3.34347,2.38328 -5.89558,2.88674 -6.84518,1.35005 z m 9.72294,-24.48955 c -0.66542,-0.66512 -1.20983,-1.57247 -1.20983,-2.01646 0,-1.48539 1.51851,-0.82718 2.79056,1.20997 1.37867,2.20739 0.347,2.73412 -1.58073,0.80649 z m 158.58438,-1.05822 c 0.40474,-1.2479 1.14933,-7.25929 1.65471,-13.35861 0.54367,-6.56573 1.56124,-12.24265 2.49403,-13.91511 1.32651,-2.37852 1.38741,-3.60873 0.38578,-7.78428 -0.6616,-2.75786 -0.885,-6.76272 -0.50341,-9.02142 0.61934,-3.66605 0.48089,-4.06177 -1.41891,-4.06177 -1.19889,0 -2.10483,-0.65088 -2.10483,-1.51211 0,-1.90609 -1.93643,-1.89014 -4.48392,0.0431 -1.08003,0.81685 -2.76428,1.23109 -3.74265,0.9203 -0.97862,-0.31037 -2.65523,-0.0949 -3.72586,0.47717 -2.52909,1.35349 -6.87066,-1.90438 -8.84959,-6.64031 -0.77106,-1.8453 -1.96364,-3.24406 -2.65031,-3.10742 -0.89205,0.17674 -1.24832,-1.66599 -1.24832,-6.4601 0,-3.68977 0.35692,-6.48814 0.79327,-6.21874 0.43627,0.26725 0.69804,-1.02201 0.58154,-2.86948 -0.11639,-1.84747 0.65575,-4.94671 1.71578,-6.88773 1.06019,-1.941 1.9333,-4.20919 1.94031,-5.04068 0.005,-0.8319 0.46583,-1.44874 1.01952,-1.37115 1.38763,0.19397 6.80159,-3.75659 6.1036,-4.45446 -0.31036,-0.31034 0.1875,-1.39487 1.10641,-2.41041 0.91887,-1.01555 1.3181,-1.84617 0.88697,-1.84617 -0.43114,0 -0.16121,-0.79401 0.59994,-1.7643 1.25404,-1.59875 1.21844,-1.63453 -0.38063,-0.37931 -0.97037,0.76123 -1.82114,1.10132 -1.89044,0.75606 -0.0694,-0.34484 -0.19311,-1.19444 -0.27457,-1.88756 -0.0814,-0.69313 -0.99738,-1.1121 -2.03469,-0.93106 -1.67195,0.2931 -1.80252,-0.10776 -1.14836,-3.52857 0.40606,-2.12205 0.69899,-4.92429 0.65163,-6.22734 -0.13493,-3.6915 0.78824,-4.30144 3.99757,-2.64189 2.76268,1.42848 2.96731,1.40693 2.96731,-0.31037 0,-1.01554 -1.13407,-3.38372 -2.52052,-5.26266 -2.99979,-4.06608 -3.01272,-4.12427 -0.75598,-3.41476 1.59635,0.50216 1.61082,0.42674 0.15173,-0.78753 -1.74863,-1.45607 -1.85846,-1.73281 -2.03334,-5.12344 -0.0879,-1.70694 -0.23105,-1.83195 -0.57799,-0.50431 -0.25346,0.9707 -1.05534,1.76469 -1.78172,1.76469 -1.85305,0 -2.7451,-4.02683 -1.03737,-4.68202 0.75385,-0.28882 1.12171,-1.17418 0.81765,-1.96603 -0.4013,-1.04615 -0.0599,-1.25132 1.24707,-0.75002 1.41109,0.54139 1.65543,0.31467 1.13189,-1.04917 -0.4207,-1.09616 -0.27372,-1.49573 0.39785,-1.08106 0.58579,0.36208 0.80998,1.32374 0.49809,2.13669 -0.3121,0.81297 0.55238,3.48374 1.92079,5.93468 1.36822,2.45136 2.25908,5.25619 1.97949,6.23338 -0.28879,1.00951 -0.005,0.82632 0.65495,-0.42242 0.96174,-1.81946 0.77239,-2.83371 -1.09199,-5.85018 -1.24038,-2.00697 -2.0592,-3.84539 -1.81954,-4.08505 0.59407,-0.59399 6.47382,7.84508 7.31695,10.50206 0.37329,1.1759 1.00891,2.13798 1.41246,2.13798 1.54346,0 12.23668,23.80249 12.23668,27.23837 0,0.88322 -0.73166,0.58578 -2.05567,-0.83538 -1.84652,-1.98238 -3.99344,-2.92852 -3.99344,-1.75997 0,0.694 4.18535,7.61922 4.60477,7.61922 0.20517,0 0.0876,-0.74401 -0.26123,-1.65308 -0.52044,-1.3565 -0.30173,-1.46685 1.21862,-0.61597 1.01913,0.57028 1.94208,1.8811 2.05114,2.91303 0.10907,1.03192 0.486,3.23717 0.83766,4.90058 0.35173,1.66385 1.30379,7.66662 2.11614,13.34008 1.59635,11.14992 0.81239,25.52839 -2.08739,38.28482 -0.78222,3.44105 -1.42478,7.75111 -1.42794,9.57789 -0.009,5.56053 -1.97462,11.06198 -4.15538,11.63227 -1.09236,0.28448 -3.10592,2.72938 -4.47455,5.42991 -2.58689,5.10533 -4.239,6.57865 -2.96181,2.64231 z m 6.74129,-96.75261 c -0.72331,-0.72333 -1.19302,-0.78323 -1.19302,-0.15087 0,1.34573 1.19241,2.53801 1.86519,1.86514 0.28663,-0.28881 -0.0173,-1.05778 -0.67217,-1.71384 z m -2.65577,-0.0431 c -0.84314,-3.8441 -4.29186,-9.81065 -5.67619,-9.8197 -1.84419,0 -4.39642,4.19926 -3.73951,6.17001 0.24528,0.73537 1.31889,1.38323 2.38561,1.43927 5.23968,0.27156 6.46713,0.50605 6.35713,1.20219 -0.18406,1.16727 0.075,2.26861 0.53433,2.26861 0.22802,0 0.29052,-0.56726 0.13836,-1.26038 z m -141.69959,92.41708 c 0,-0.87806 0.53873,-1.41686 1.19719,-1.19702 1.86941,0.62287 2.17946,2.79318 0.39916,2.79318 -0.87797,0 -1.59631,-0.71812 -1.59631,-1.59616 z m 3.53877,-1.41168 c -0.34829,-0.56338 0.0741,-1.0246 0.93852,-1.0246 1.77092,0 2.03167,0.60476 0.63326,1.46902 -0.51619,0.31897 -1.22344,0.12068 -1.57178,-0.44442 z M 219.675,896.32182 c -0.84403,-2.1992 0.27673,-3.22166 1.46755,-1.33839 1.19219,1.88497 1.21758,2.99534 0.0686,2.99534 -0.49523,0 -1.18641,-0.74572 -1.53603,-1.65695 z m -8.65372,-10.40981 c 0,-0.5371 -0.68053,-0.71553 -1.51229,-0.39656 -1.83752,0.70475 -2.00378,-0.99702 -0.24009,-2.46085 0.94236,-0.78193 1.57095,-0.42243 2.42559,1.38926 0.6345,1.34442 0.74265,2.44446 0.24009,2.44446 -0.5023,0 -0.9133,-0.43966 -0.9133,-0.97674 z m -19.68118,-1.29703 c -1.09715,-0.60519 -2.58766,-1.92851 -3.31222,-2.94189 -1.4025,-1.96084 -4.22763,-2.5182 -4.22763,-0.83365 0,0.55433 -0.90735,1.00822 -2.01635,1.00822 -1.10905,0 -2.01641,-0.45389 -2.01641,-1.00822 0,-0.55433 -0.90735,-1.00822 -2.01636,-1.00822 -1.10898,0 -2.01635,-0.4539 -2.01635,-1.00822 0,-0.55434 0.45752,-1.00823 1.01671,-1.00823 1.99081,0 -1.38856,-3.83676 -4.82113,-5.47345 -2.29408,-1.09401 -3.25572,-2.13844 -2.87691,-3.12552 0.33794,-0.88107 -0.0172,-1.48281 -0.88007,-1.48281 -0.87378,0 -1.21862,0.60045 -0.86869,1.51255 0.42242,1.10002 -0.1194,1.51211 -1.98852,1.51211 -1.41283,0 -2.84922,-0.4539 -3.1919,-1.00821 -0.34268,-0.55434 0.3112,-1.00824 1.45276,-1.00824 1.14171,0 2.13256,-0.45389 2.20192,-1.00821 0.0694,-0.55434 0.18277,-1.42375 0.25217,-1.93238 0.20431,-1.49877 1.63832,-2.54922 1.63832,-1.20047 0,0.67932 0.40217,0.98709 0.89395,0.68321 0.49166,-0.30605 1.45456,0.12069 2.13981,0.9483 0.68525,0.82589 0.87274,1.50134 0.41681,1.50134 -0.45604,0 -0.30387,0.52501 0.33797,1.16727 0.88398,0.88409 1.52495,0.86986 2.64243,-0.0604 1.18393,-0.98279 2.44961,-0.73106 6.40719,1.27461 2.71254,1.37461 5.52603,3.21519 6.25222,4.0898 0.72619,0.87544 2.5703,1.59141 4.09806,1.59141 2.80656,0 5.58345,-2.14618 4.36005,-3.36951 -0.36466,-0.36637 -0.16077,-0.66337 0.45333,-0.66337 2.15019,0 2.32926,2.00912 0.36682,4.11521 -1.32758,1.42505 -2.64532,1.91428 -3.99934,1.48453 -3.52658,-1.11944 -3.74033,1.58798 -0.3638,4.60532 3.29872,2.94707 3.09759,4.53592 -0.33493,2.64405 z m 12.00521,-2.95269 c -0.46891,-0.75862 -0.1776,-0.95735 0.8345,-0.56897 0.85516,0.3276 2.01256,0.13794 2.57206,-0.42242 0.68421,-0.68408 1.23905,-0.65822 1.69468,0.0776 0.37242,0.60303 0.53717,1.13021 0.36595,1.17115 -3.19928,0.76941 -4.8802,0.68969 -5.4671,-0.25862 z m -45.38807,-2.99448 c -0.48066,-0.77287 -2.10558,-2.18842 -3.61097,-3.14535 -3.85461,-2.45094 -5.29721,-5.37603 -3.0723,-6.22994 0.94335,-0.36208 1.38771,-0.33191 0.98753,0.0689 -1.02076,1.02073 2.34382,4.51265 3.60003,3.73634 0.58002,-0.35777 0.72325,-0.14225 0.32803,0.49828 -0.42416,0.68623 0.31122,1.38841 1.86056,1.77721 2.76238,0.69355 3.00744,1.18452 1.65587,3.3182 -0.73867,1.166 -1.01106,1.16213 -1.74888,-0.0431 z m 3.26842,-0.27156 c 0.3026,-0.78924 1.24637,-1.70134 2.09697,-2.02807 1.10868,-0.42674 1.37206,-0.13794 0.93023,1.01296 -0.33923,0.88322 -0.61635,1.79574 -0.61635,2.02765 0,0.23276 -0.66626,0.42243 -1.4806,0.42243 -0.86616,0 -1.25224,-0.59529 -0.93025,-1.4341 z m 38.70557,-0.58234 c -1.3597,-2.5406 -0.22371,-2.5406 3.02458,0 2.49378,1.95092 2.49684,1.97204 0.28751,1.99403 -1.22815,0 -2.71858,-0.88494 -3.31209,-1.99403 z m -32.26196,-0.44441 c 0,-0.2457 0.45368,-0.72503 1.00818,-1.0677 0.5545,-0.34484 1.00817,-0.14224 1.00817,0.4444 0,0.58752 -0.45367,1.06771 -1.00817,1.06771 -0.5545,0 -1.00818,-0.19829 -1.00818,-0.44441 z m 3.61231,-1.43668 c -0.43432,-0.70261 -0.51739,-1.55005 -0.18448,-1.88239 0.9023,-0.90262 1.88608,0.42243 1.39874,1.88669 -0.34139,1.02419 -0.57895,1.02332 -1.21413,0 z m -14.0151,-3.81693 c -0.37803,-0.37932 -0.74092,-2.76646 -0.80653,-5.30793 -0.10044,-3.89107 -0.21983,-4.15228 -0.75619,-1.6535 -0.35001,1.63194 -0.9771,2.87984 -1.39296,2.7725 -0.41597,-0.10776 -1.15931,-0.19397 -1.65213,-0.19397 -2.04799,0 -2.16102,-6.88727 -0.19268,-11.73829 1.93558,-4.77042 2.20382,-4.69326 2.60633,0.75002 0.28621,3.86995 1.4531,5.18463 4.14551,4.66997 1.57937,-0.30174 2.40229,0 2.40229,0.91296 0,0.75519 -1.02081,1.40134 -2.26844,1.43668 l -2.26843,0.0646 2.26843,0.91168 c 1.24763,0.50173 2.2615,1.49357 2.25301,2.2048 -0.0129,0.99485 -0.21511,0.97761 -0.88218,-0.0733 -0.4767,-0.75216 -1.12035,-0.95735 -1.43032,-0.45604 -0.30992,0.50173 -0.14698,1.57075 0.36251,2.37593 0.50942,0.80564 0.89736,2.1449 0.86206,2.97682 -0.0504,1.18453 -0.18277,1.21426 -0.61071,0.13794 -0.38493,-0.96771 -0.75451,-1.03796 -1.24947,-0.23707 -0.38666,0.62545 -1.01225,0.82804 -1.39027,0.45 z m 100.29945,-3.37555 c 0.50743,-1.52245 2.12869,-1.67935 2.60443,-0.2543 0.23104,0.69312 -0.33622,1.26038 -1.26021,1.26038 -0.92416,0 -1.52909,-0.4539 -1.34422,-1.00824 z m -84.77611,-1.42848 c -0.044,-1.06253 0.1944,-1.65781 0.5295,-1.32289 0.33492,0.3362 0.3707,1.20435 0.0797,1.93239 -0.32198,0.8039 -0.56071,0.56509 -0.60907,-0.6095 z m -24.84829,-5.88079 c -1.15486,-9.44901 -1.17145,-9.87963 -0.39871,-10.35722 0.39311,-0.24139 1.02709,2.38499 1.40871,5.83984 0.38148,3.45484 0.94205,7.30238 1.24546,8.54982 0.30347,1.24789 0.0936,2.26862 -0.46682,2.26862 -0.5602,0 -1.36509,-2.83543 -1.78867,-6.30106 z m 15.62006,6.04889 c -0.75821,-2.55094 -0.7423,-5.29413 0.0388,-6.63211 0.75111,-1.28709 0.99056,-0.67328 1.01396,2.59967 0.0172,2.35653 -0.19612,4.28461 -0.47341,4.28461 -0.27718,0 -0.53783,-0.11208 -0.57903,-0.25002 z m 45.44332,-8.33905 c 0,-0.84355 -1.13422,-2.05049 -2.52045,-2.68198 -2.19339,-0.9996 -3.49162,-2.84147 -2.00269,-2.84147 0.92963,0 5.00898,2.49577 5.76793,3.529 1.07451,1.4621 0.93599,3.52812 -0.23664,3.52812 -0.55451,0 -1.00818,-0.6901 -1.00818,-1.53367 z m -50.40929,-6.53166 c -0.73166,-1.36687 -0.74308,-2.01645 -0.0345,-2.01645 0.57399,0 1.04366,-0.70736 1.04366,-1.57161 0,-0.86468 0.45369,-1.29141 1.00818,-0.94873 1.29271,0.79915 1.32387,6.55322 0.0345,6.55322 -0.53498,0 -1.45833,-0.90736 -2.05184,-2.01643 z m -5.02555,-3.21692 c 0.009,-0.72589 0.45524,-2.0005 0.99279,-2.83198 0.79456,-1.22935 0.98021,-1.09917 0.99275,0.69657 0.009,1.21468 -0.43824,2.4893 -0.99275,2.83198 -0.55453,0.34485 -1.00123,0.0431 -0.99279,-0.69657 z m -6.19463,-3.08416 c -0.39958,-10.05936 3.16631,-33.12215 5.23482,-33.85838 0.51941,-0.18534 0.94439,-1.35436 0.94439,-2.59836 0,-2.73156 4.69006,-14.67675 6.49847,-16.55138 1.07013,-1.10909 1.39927,-1.05694 1.9217,0.30604 0.40175,1.04615 0.22932,1.39487 -0.47424,0.95995 -0.73115,-0.45175 -0.88316,0 -0.44971,1.38065 0.43885,1.3828 -0.003,2.67638 -1.33862,3.9208 -2.12157,1.97635 -4.14121,6.43684 -4.14121,9.14512 0,1.36943 0.24354,1.31729 1.48022,-0.31898 0.81408,-1.07632 1.49462,-3.20484 1.51228,-4.72944 0.0172,-1.52506 0.48576,-2.77295 1.04026,-2.77295 1.82281,0 1.05293,6.91013 -1.26026,11.31114 -1.94264,3.69623 -2.31468,3.99021 -2.59055,2.04747 -0.17715,-1.24745 -0.6914,-2.26861 -1.14267,-2.26861 -1.96764,0 -2.93328,12.45039 -1.05567,13.61079 1.67703,1.03622 1.23231,4.83851 -0.48869,4.17814 -2.22109,-0.85218 -3.25457,2.06558 -3.34096,9.43262 -0.11681,9.95462 -0.1319,10.08177 -1.21124,10.08177 -0.55456,0 -1.06677,-1.47461 -1.13832,-3.27681 z m 9.43297,-0.15947 c 0.30993,-1.62075 0.059,-2.27293 -0.75304,-1.96127 -1.59777,0.61295 -2.98634,-7.62653 -1.53061,-9.08175 0.72291,-0.7233 1.04628,-0.14225 1.04628,1.87246 0,1.78454 1.03917,4.00359 2.67418,5.71009 2.23335,2.33112 2.46229,3.04665 1.3888,4.33979 -1.92118,2.31516 -3.35119,1.86989 -2.82561,-0.87932 z M 275.3436,829.21972 c 0.94098,-0.94097 1.47867,-0.94097 2.41964,0 0.94093,0.94098 0.67215,1.20995 -1.20981,1.20995 -1.88196,0 -2.15081,-0.26725 -1.20983,-1.20995 z m 6.25076,0.14225 c 0,-0.64184 0.64294,-0.91985 1.42883,-0.61812 0.78586,0.30173 1.69002,-0.13362 2.00924,-0.96426 0.35131,-0.91599 1.08031,-1.20134 1.84778,-0.72374 0.69704,0.43408 2.24476,0.66296 3.43947,0.50864 1.19469,-0.15518 2.46908,0.19829 2.83202,0.78711 0.36811,0.5957 -0.14655,1.09529 -1.16396,1.13063 -1.00308,0.0431 -3.75197,0.28448 -6.10865,0.55434 -2.85534,0.32759 -4.28473,0.10349 -4.28473,-0.6746 z m 13.91293,-0.14225 c 0.94098,-0.94097 1.47872,-0.94097 2.41969,0 0.94094,0.94098 0.6721,1.20995 -1.20987,1.20995 -1.88195,0 -2.15076,-0.26725 -1.20982,-1.20995 z M 272.2447,823.7911 c -1.53802,-0.83407 -3.30941,-1.19918 -3.93646,-0.81166 -0.69782,0.43105 -0.861,0.25432 -0.4207,-0.45949 0.45726,-0.73968 -0.0586,-1.16383 -1.41604,-1.16383 -1.17443,0 -1.91504,0.35778 -1.64578,0.79183 0.2694,0.43579 -0.38448,0.79226 -1.45276,0.79226 -2.6818,0 -2.43327,-1.40392 0.48381,-2.73284 1.95766,-0.89185 3.61261,-0.64528 8.56958,1.27676 6.03919,2.34146 7.85472,3.94366 4.37911,3.86435 -0.97042,-0.0431 -3.02274,-0.72286 -4.56076,-1.55738 z m 90.00461,-13.46551 c 0,-0.58752 0.45367,-1.0677 1.00818,-1.0677 0.55448,0 1.00813,0.19828 1.00813,0.44441 0,0.24569 -0.45365,0.72501 -1.00813,1.06771 -0.55451,0.34484 -1.00818,0.14223 -1.00818,-0.44442 z m 2.01631,-18.65145 c 0,-0.24569 0.45368,-0.72502 1.00817,-1.06771 0.55451,-0.34483 1.00813,-0.14224 1.00813,0.44442 0,0.58711 -0.45362,1.06771 -1.00813,1.06771 -0.55449,0 -1.00817,-0.19828 -1.00817,-0.44442 z m -199.6209,-4.98162 c 0,-0.83192 0.45369,-1.79273 1.00819,-2.13541 0.5545,-0.34484 1.00819,0.0604 1.00819,0.88925 0,0.83193 -0.45369,1.79274 -1.00819,2.13541 -0.5545,0.34485 -1.00819,-0.0604 -1.00819,-0.88925 z m 4.03273,-0.0604 c 0,-0.24571 0.45372,-0.7246 1.00817,-1.06728 0.55451,-0.34053 1.00823,-0.14225 1.00823,0.44441 0,0.58753 -0.45372,1.06771 -1.00823,1.06771 -0.55445,0 -1.00817,-0.19828 -1.00817,-0.44484 z m 6.04915,-5.54457 c 0,-0.58752 0.45368,-1.06771 1.00818,-1.06771 0.55445,0 1.00818,0.19828 1.00818,0.44441 0,0.2457 -0.45373,0.72502 -1.00818,1.0677 -0.5545,0.34484 -1.00818,0.14225 -1.00818,-0.4444 z m 1.48931,-9.17055 c -0.34138,-0.55218 -1.15624,-0.68279 -1.81104,-0.28881 -0.67826,0.40519 -0.59515,0 0.19311,-0.99183 1.43892,-1.77378 4.68342,-2.29965 5.54892,-0.89961 0.27414,0.44355 -0.35863,1.34186 -1.40603,1.99576 -1.23013,0.76813 -2.12413,0.83407 -2.52492,0.18535 z m 133.29436,-14.19226 c -1.00403,-0.58407 -2.5021,-0.80261 -3.32898,-0.48536 -0.8489,0.32761 -1.23526,0.14224 -0.88744,-0.41813 0.3388,-0.54828 0.0599,-0.99657 -0.61977,-0.99657 -2.23506,0 0.0461,-1.33494 2.77919,-1.62635 3.13957,-0.33621 8.75269,2.28757 7.88879,3.68546 -0.77654,1.25652 -3.52832,1.18193 -5.83179,-0.15948 z" />
    <path
       d="m 222.44791,56.485737 a 28.884468,28.884468 0 1 1 -57.76893,0 28.884468,28.884468 0 1 1 57.76893,0 z"
       sodipodi:ry="28.884468"
       sodipodi:rx="28.884468"
       sodipodi:cy="56.485737"
       sodipodi:cx="193.56345"
       id="path3527"
       style="opacity:0.52016129;fill:url(#radialGradient3260);fill-opacity:1;stroke:url(#linearGradient3262);stroke-width:0.4162648;stroke-miterlimit:4;stroke-opacity:1;display:inline"
       sodipodi:type="arc"
       transform="matrix(2.4342955,-0.4352947,0.30668701,1.7150702,-232.09224,768.33117)" />
    <path
       inkscape:connector-curvature="0"
       style="color:#000000;fill:url(#linearGradient4842);fill-opacity:1;stroke:none;stroke-width:1;marker:none;visibility:visible;display:inline;overflow:visible;enable-background:accumulate"
       d="m 362.13649,765.59414 c -71.74211,3.63663 -128.77559,62.99958 -128.77559,135.64542 0,25.565 7.11268,49.49213 19.39716,69.91061 5.64609,0.78042 11.38118,1.21231 17.24192,1.21231 69.03776,0 125.00393,-55.96614 125.00393,-125.00392 0,-31.29839 -11.56903,-59.83592 -30.57747,-81.76442 -0.75951,0.0259 -1.53363,-0.0387 -2.28995,0 z"
       id="path3068" />
    <path
       style="fill:url(#linearGradient4406);fill-opacity:1;stroke:none;display:inline;filter:url(#filter3062)"
       d="m 171.66893,774.7692 c -1.39106,4.4367 2.75229,12.4743 6.3584,16.8933 2.77568,3.4013 6.11735,5.1374 9.97875,7.2142 2.162,1.1629 8.01586,2.2572 8.01586,2.2572 0,0 -12.19745,-8.6767 -14.0023,-15.0237 -1.4358,-5.0493 3.28162,-5.7622 2.33607,-8.8783 -0.91987,-3.0315 -2.94898,-7.2768 -6.37221,-7.7649 -2.72096,-0.3879 -5.4923,2.6796 -6.31457,5.3022 z"
       id="path4398"
       inkscape:connector-curvature="0"
       sodipodi:nodetypes="ssscssss"
       transform="matrix(4.3104802,0,0,4.3104802,-592.09609,-2481.8933)" />
    <path
       sodipodi:nodetypes="sssscssss"
       inkscape:connector-curvature="0"
       id="path4408"
       d="m 228.02288,774.7692 c 1.39106,4.4367 -1.7282,10.7645 -4.73276,15.0999 -1.41018,2.0348 -4.20606,4.4931 -6.22618,5.9926 -2.02013,1.4995 -3.2645,2.0401 -5.48599,3.1436 -3.57754,1.777 -8.43389,2.2255 -8.43389,2.2255 0,0 12.72327,-8.7736 14.52812,-15.1206 1.43579,-5.0493 -3.28163,-5.7622 -2.33608,-8.8783 0.91988,-3.0315 2.94899,-7.2768 6.37222,-7.7649 2.72095,-0.3879 5.4923,2.6796 6.31456,5.3022 z"
       style="fill:url(#linearGradient4410);fill-opacity:1;stroke:none;display:inline;filter:url(#filter3074)"
       transform="matrix(4.3104802,0,0,4.3104802,-592.09609,-2481.8933)" />
    <path
       id="path2936"
       style="fill:#eeeeec;fill-opacity:1;fill-rule:nonzero;stroke:none;display:inline;filter:url(#filter9250)"
       d="m 39.302282,29.293741 c 0.29823,0.21494 0.451374,0.478241 0.451374,0.787218 0,0.314349 -0.153144,0.577651 -0.451374,0.781844 l -15.575089,8.965684 c -0.137024,0.08598 -0.282108,0.128964 -0.43794,0.128964 -0.155831,0 -0.303603,-0.04299 -0.448687,-0.128964 -0.300916,-0.171952 -0.451374,-0.427193 -0.451374,-0.771097 l 0,-17.955549 c 0,-0.335844 0.150458,-0.593772 0.451374,-0.771098 0.31435,-0.198819 0.612579,-0.198819 0.886627,0 l 15.575089,8.962998 z"
       inkscape:connector-curvature="0"
       transform="matrix(3.1532979,0,0,3.1532979,177.97395,752.57598)" />
    <text
       xml:space="preserve"
       style="font-size:21.44113541000000112px;font-style:normal;font-variant:normal;font-weight:500;font-stretch:normal;text-align:center;line-height:125%;letter-spacing:0px;word-spacing:0px;writing-mode:lr-tb;text-anchor:middle;fill:url(#linearGradient4013);fill-opacity:1;stroke:none;display:inline;font-family:Roboto;-inkscape-font-specification:Roboto Medium"
       x="28.833189"
       y="1025.1865"
       id="text3285"
       sodipodi:linespacing="125%"
       transform="matrix(4.1022664,0,0,4.0609498,152.91613,-3498.9656)"><tspan
         sodipodi:role="line"
         x="28.833191"
         y="1025.1865"
         style="font-style:normal;font-variant:normal;font-weight:500;font-stretch:normal;fill:url(#linearGradient4013);fill-opacity:1;stroke:none;font-family:Roboto;-inkscape-font-specification:Roboto Medium"
         id="tspan3289">Loading</tspan></text>
  </g>
</svg>
