<?xml version="1.0" encoding="UTF-8" standalone="no"?>
<!-- Created with Inkscape (http://www.inkscape.org/) -->

<svg
   xmlns:dc="http://purl.org/dc/elements/1.1/"
   xmlns:cc="http://creativecommons.org/ns#"
   xmlns:rdf="http://www.w3.org/1999/02/22-rdf-syntax-ns#"
   xmlns:svg="http://www.w3.org/2000/svg"
   xmlns="http://www.w3.org/2000/svg"
   xmlns:xlink="http://www.w3.org/1999/xlink"
   xmlns:sodipodi="http://sodipodi.sourceforge.net/DTD/sodipodi-0.dtd"
   xmlns:inkscape="http://www.inkscape.org/namespaces/inkscape"
   width="540"
   height="540"
   id="svg3278"
   version="1.1"
   inkscape:version="0.48.3.1 r9886"
   sodipodi:docname="app-loading.svg">
  <sodipodi:namedview
     id="base"
     pagecolor="#000000"
     bordercolor="#666666"
     borderopacity="1.0"
     inkscape:pageopacity="0"
     inkscape:pageshadow="2"
     inkscape:zoom="0.98994949"
     inkscape:cx="201.93256"
     inkscape:cy="327.80843"
     inkscape:document-units="px"
     inkscape:current-layer="layer7"
     showgrid="false"
     inkscape:window-width="1871"
     inkscape:window-height="1055"
     inkscape:window-x="49"
     inkscape:window-y="0"
     inkscape:window-maximized="1"
     showguides="true"
     inkscape:guide-bbox="true">
    <inkscape:grid
       snapvisiblegridlinesonly="true"
       enabled="true"
       visible="true"
       empspacing="5"
       id="grid3286"
       type="xygrid" />
    <sodipodi:guide
       id="guide3054"
       position="142.85714,280"
       orientation="1,0" />
    <sodipodi:guide
       id="guide3056"
       position="395.71429,264.28571"
       orientation="1,0" />
  </sodipodi:namedview>
  <defs
     id="defs3280">
    <linearGradient
       inkscape:collect="always"
       xlink:href="#linearGradient4975-5"
       id="linearGradient4985-4"
       gradientUnits="userSpaceOnUse"
       x1="7.7024131"
       y1="43.782436"
       x2="10.354065"
       y2="35.890617"
       gradientTransform="matrix(-4.3596053,0,0,4.3596053,398.72067,77.826204)" />
    <linearGradient
       inkscape:collect="always"
       id="linearGradient4975-5">
      <stop
         style="stop-color:#e7e7e7;stop-opacity:1"
         offset="0"
         id="stop4977-0" />
      <stop
         style="stop-color:#ffffff;stop-opacity:1"
         offset="1"
         id="stop4979-6" />
    </linearGradient>
    <linearGradient
       gradientTransform="matrix(4.3596053,0,0,4.3596053,138.49758,77.826204)"
       inkscape:collect="always"
       xlink:href="#linearGradient5664"
       id="linearGradient4981-6"
       x1="7.7024131"
       y1="43.782436"
       x2="10.354065"
       y2="35.890617"
       gradientUnits="userSpaceOnUse" />
    <linearGradient
       id="linearGradient5664"
       inkscape:collect="always">
      <stop
         id="stop5666"
         offset="0"
         style="stop-color:#e7e7e7;stop-opacity:1" />
      <stop
         id="stop5668"
         offset="1"
         style="stop-color:#ffffff;stop-opacity:1" />
    </linearGradient>
    <radialGradient
       inkscape:collect="always"
       xlink:href="#linearGradient3915-51"
       id="radialGradient3951-4"
       gradientUnits="userSpaceOnUse"
       gradientTransform="matrix(1.2587413,0.21159733,-0.51205879,3.0194899,23.526813,-64.831129)"
       cx="-22.43605"
       cy="34.565014"
       fx="-22.43605"
       fy="34.565014"
       r="1.2626907" />
    <linearGradient
       id="linearGradient3915-51">
      <stop
         style="stop-color:#888888;stop-opacity:1;"
         offset="0"
         id="stop3917-1" />
      <stop
         style="stop-color:#dddddd;stop-opacity:1;"
         offset="1"
         id="stop3919-5" />
    </linearGradient>
    <radialGradient
       inkscape:collect="always"
       xlink:href="#linearGradient3915-51"
       id="radialGradient3949-1"
       gradientUnits="userSpaceOnUse"
       gradientTransform="matrix(1.3615437,0.14667432,-0.27795677,2.6044543,17.72999,-52.146477)"
       cx="-22.447693"
       cy="34.588718"
       fx="-22.447693"
       fy="34.588718"
       r="1.2626907" />
    <radialGradient
       inkscape:collect="always"
       xlink:href="#linearGradient3915-51"
       id="radialGradient3947-3"
       gradientUnits="userSpaceOnUse"
       gradientTransform="matrix(1.8363659,0.40245553,-0.80203078,3.8446017,46.885468,-88.871874)"
       cx="-22.741371"
       cy="34.496517"
       fx="-22.741371"
       fy="34.496517"
       r="1.2626907" />
    <radialGradient
       inkscape:collect="always"
       xlink:href="#linearGradient3915-51"
       id="radialGradient3937-7"
       cx="-22.43605"
       cy="34.565014"
       fx="-22.43605"
       fy="34.565014"
       r="1.2626907"
       gradientTransform="matrix(1.2587413,0.21159733,-0.51205879,3.0194899,23.526813,-64.831129)"
       gradientUnits="userSpaceOnUse" />
    <radialGradient
       inkscape:collect="always"
       xlink:href="#linearGradient3915-51"
       id="radialGradient3921-9"
       cx="-22.447693"
       cy="34.588718"
       fx="-22.447693"
       fy="34.588718"
       r="1.2626907"
       gradientTransform="matrix(1.3615437,0.14667432,-0.27795677,2.6044543,17.72999,-52.146477)"
       gradientUnits="userSpaceOnUse" />
    <radialGradient
       inkscape:collect="always"
       xlink:href="#linearGradient3915-51"
       id="radialGradient3929-9"
       cx="-22.741371"
       cy="34.496517"
       fx="-22.741371"
       fy="34.496517"
       r="1.2626907"
       gradientTransform="matrix(1.8363659,0.40245553,-0.80203078,3.8446017,46.885468,-88.871874)"
       gradientUnits="userSpaceOnUse" />
    <linearGradient
       inkscape:collect="always"
       xlink:href="#linearGradient4400-65"
       id="linearGradient4410-8"
       gradientUnits="userSpaceOnUse"
       x1="1.095396"
       y1="1035.1595"
       x2="24.964859"
       y2="1035.1595"
       gradientTransform="matrix(-1,0,0,1,201.54896,-911.17049)" />
    <linearGradient
       id="linearGradient4400-65">
      <stop
         style="stop-color:#f3f3f3;stop-opacity:1;"
         offset="0"
         id="stop4402-2" />
      <stop
         style="stop-color:#ffffff;stop-opacity:1;"
         offset="1"
         id="stop4404-9" />
    </linearGradient>
    <linearGradient
       gradientTransform="translate(141.85715,-911.17049)"
       inkscape:collect="always"
       xlink:href="#linearGradient4400-65"
       id="linearGradient4406-6"
       x1="1.095396"
       y1="1035.1595"
       x2="24.964859"
       y2="1035.1595"
       gradientUnits="userSpaceOnUse" />
    <linearGradient
       y2="24"
       x2="50.044643"
       y1="70.089287"
       x1="50.044643"
       gradientTransform="matrix(5.9591972,0,0,5.9591972,71.330753,-17.238869)"
       gradientUnits="userSpaceOnUse"
       id="linearGradient4842-1"
       xlink:href="#linearGradient3838-4-5"
       inkscape:collect="always" />
    <linearGradient
       inkscape:collect="always"
       id="linearGradient3838-4-5">
      <stop
         style="stop-color:#000000;stop-opacity:0.502"
         offset="0"
         id="stop3840-3-7" />
      <stop
         style="stop-color:#000000;stop-opacity:0.051"
         offset="1"
         id="stop3842-8-8" />
    </linearGradient>
    <radialGradient
       inkscape:collect="always"
       xlink:href="#linearGradient3969-1"
       id="radialGradient3260-9"
       gradientUnits="userSpaceOnUse"
       gradientTransform="matrix(0.162441,2.106734,-1.690916,0.262658,228.2627,-371.4298)"
       cx="180.72482"
       cy="38.594139"
       fx="180.72482"
       fy="38.594139"
       r="28.884468" />
    <linearGradient
       inkscape:collect="always"
       id="linearGradient3969-1">
      <stop
         style="stop-color:#ffffff;stop-opacity:0.50196081"
         offset="0"
         id="stop3971-4" />
      <stop
         style="stop-color:#ffffff;stop-opacity:0"
         offset="1"
         id="stop3973-0" />
    </linearGradient>
    <linearGradient
       inkscape:collect="always"
       xlink:href="#linearGradient4448-1"
       id="linearGradient3262-6"
       gradientUnits="userSpaceOnUse"
       x1="181.99649"
       y1="36.387283"
       x2="183.27852"
       y2="53.875359" />
    <linearGradient
       id="linearGradient4448-1"
       inkscape:collect="always">
      <stop
         id="stop4450-0"
         offset="0"
         style="stop-color:#ffffff;stop-opacity:1;" />
      <stop
         id="stop4452-8"
         offset="1"
         style="stop-color:#ffffff;stop-opacity:0;" />
    </linearGradient>
    <linearGradient
       id="linearGradient3957-1">
      <stop
         style="stop-color:#132b4d;stop-opacity:1"
         offset="0"
         id="stop3959-83" />
      <stop
         style="stop-color:#3465a4;stop-opacity:1"
         offset="1"
         id="stop3961-4" />
    </linearGradient>
    <linearGradient
       y2="74.711746"
       x2="194.68881"
       y1="31.85433"
       x1="194.68881"
       gradientUnits="userSpaceOnUse"
       id="linearGradient5811"
       xlink:href="#linearGradient3957-1"
       inkscape:collect="always" />
  </defs>
  <metadata
     id="metadata3283">
    <rdf:RDF>
      <cc:Work
         rdf:about="">
        <dc:format>image/svg+xml</dc:format>
        <dc:type
           rdf:resource="http://purl.org/dc/dcmitype/StillImage" />
        <dc:title></dc:title>
      </cc:Work>
    </rdf:RDF>
  </metadata>
  <g
     inkscape:groupmode="layer"
     id="layer2"
     inkscape:label="loading"
     sodipodi:insensitive="true">
    <g
       transform="translate(0,-512.36218)"
       id="g4880"
       style="fill:#477db7;fill-opacity:1">
      <text
         xml:space="preserve"
         style="font-size:61.94404221px;font-style:normal;font-variant:normal;font-weight:500;font-stretch:normal;text-align:center;line-height:125%;letter-spacing:0px;word-spacing:0px;writing-mode:lr-tb;text-anchor:middle;fill:#477db7;fill-opacity:1;stroke:none;display:inline;font-family:Roboto;-inkscape-font-specification:Roboto Medium"
         x="146.45441"
         y="953.10889"
         id="text3285"
         sodipodi:linespacing="125%"
         transform="scale(1.0050742,0.99495142)"><tspan
           style="fill:#477db7;fill-opacity:1"
           id="tspan3982">l</tspan></text>
      <text
         xml:space="preserve"
         style="font-size:61.94404221px;font-style:normal;font-variant:normal;font-weight:500;font-stretch:normal;text-align:center;line-height:125%;letter-spacing:0px;word-spacing:0px;writing-mode:lr-tb;text-anchor:middle;fill:#477db7;fill-opacity:1;stroke:none;display:inline;font-family:Roboto;-inkscape-font-specification:Roboto Medium"
         x="180.53981"
         y="953.10889"
         id="text3984"
         sodipodi:linespacing="125%"
         transform="scale(1.0050742,0.99495142)"><tspan
           style="fill:#477db7;fill-opacity:1"
           id="tspan3986">o</tspan></text>
      <text
         xml:space="preserve"
         style="font-size:61.94404221px;font-style:normal;font-variant:normal;font-weight:500;font-stretch:normal;text-align:center;line-height:125%;letter-spacing:0px;word-spacing:0px;writing-mode:lr-tb;text-anchor:middle;fill:#477db7;fill-opacity:1;stroke:none;display:inline;font-family:Roboto;-inkscape-font-specification:Roboto Medium"
         x="222.58488"
         y="953.10889"
         id="text3988"
         sodipodi:linespacing="125%"
         transform="scale(1.0050742,0.99495142)"><tspan
           style="fill:#477db7;fill-opacity:1"
           id="tspan3990">a</tspan></text>
      <text
         xml:space="preserve"
         style="font-size:61.94404221px;font-style:normal;font-variant:normal;font-weight:500;font-stretch:normal;text-align:center;line-height:125%;letter-spacing:0px;word-spacing:0px;writing-mode:lr-tb;text-anchor:middle;fill:#477db7;fill-opacity:1;stroke:none;display:inline;font-family:Roboto;-inkscape-font-specification:Roboto Medium"
         x="264.62994"
         y="953.10889"
         id="text3992"
         sodipodi:linespacing="125%"
         transform="scale(1.0050742,0.99495142)"><tspan
           style="fill:#477db7;fill-opacity:1"
           id="tspan3994">d</tspan></text>
      <text
         xml:space="preserve"
         style="font-size:61.94404221px;font-style:normal;font-variant:normal;font-weight:500;font-stretch:normal;text-align:center;line-height:125%;letter-spacing:0px;word-spacing:0px;writing-mode:lr-tb;text-anchor:middle;fill:#477db7;fill-opacity:1;stroke:none;display:inline;font-family:Roboto;-inkscape-font-specification:Roboto Medium"
         x="300.70526"
         y="953.10889"
         id="text3996"
         sodipodi:linespacing="125%"
         transform="scale(1.0050742,0.99495142)"><tspan
           style="fill:#477db7;fill-opacity:1"
           id="tspan3998">i</tspan></text>
      <text
         xml:space="preserve"
         style="font-size:61.94404221px;font-style:normal;font-variant:normal;font-weight:500;font-stretch:normal;text-align:center;line-height:125%;letter-spacing:0px;word-spacing:0px;writing-mode:lr-tb;text-anchor:middle;fill:#477db7;fill-opacity:1;stroke:none;display:inline;font-family:Roboto;-inkscape-font-specification:Roboto Medium"
         x="336.78049"
         y="953.10889"
         id="text4000"
         sodipodi:linespacing="125%"
         transform="scale(1.0050742,0.99495142)"><tspan
           style="fill:#477db7;fill-opacity:1"
           id="tspan4002">n</tspan></text>
      <text
         xml:space="preserve"
         style="font-size:61.94404221px;font-style:normal;font-variant:normal;font-weight:500;font-stretch:normal;text-align:center;line-height:125%;letter-spacing:0px;word-spacing:0px;writing-mode:lr-tb;text-anchor:middle;fill:#477db7;fill-opacity:1;stroke:none;display:inline;font-family:Roboto;-inkscape-font-specification:Roboto Medium"
         x="378.82535"
         y="953.10889"
         id="text4004"
         sodipodi:linespacing="125%"
         transform="scale(1.0050742,0.99495142)"><tspan
           style="fill:#477db7;fill-opacity:1"
           id="tspan4006">g</tspan></text>
    </g>
  </g>
  <g
     inkscape:groupmode="layer"
     id="layer7"
     inkscape:label="Layer">
    <path
       transform="matrix(4.3770428,0,0,4.3769103,-577.9498,-38.614842)"
       d="m 222.44791,56.485737 a 28.884468,28.884468 0 1 1 -57.76893,0 28.884468,28.884468 0 1 1 57.76893,0 z"
       sodipodi:ry="28.884468"
       sodipodi:rx="28.884468"
       sodipodi:cy="56.485737"
       sodipodi:cx="193.56345"
       id="path3523"
       style="fill:url(#linearGradient5811);fill-opacity:1;stroke:none;display:inline"
       sodipodi:type="arc" />
    <path
       inkscape:connector-curvature="0"
       style="opacity:0.78365383;fill:#4584c7;fill-opacity:1;display:inline"
       id="path3525"
       d="m 258.06952,331.56536 c -7.74397,-0.87453 -16.865,-2.66764 -17.3208,-3.40528 -0.2764,-0.4473 0.98383,-1.10211 2.80078,-1.45437 4.34588,-0.84358 4.4206,-0.84358 11.0666,-0.0436 3.77917,0.46212 5.95928,0.31826 6.41712,-0.42288 0.48871,-0.79083 1.88749,-0.64435 4.73719,0.49569 3.62593,1.45088 6.46041,1.51845 11.16312,0.26594 0.89389,-0.23978 1.40624,0.17438 1.2329,0.99268 -0.20839,0.98396 0.24588,1.17055 1.52952,0.62865 1.00437,-0.42288 3.20265,-0.69666 4.88516,-0.60555 l 3.059,0.16567 -2.45738,-1.73076 -2.45742,-1.73077 2.33396,-0.8632 c 1.48898,-0.55105 2.84848,-0.4364 3.75536,0.31389 1.82437,1.51453 14.36961,0.43596 19.40757,-1.6706 1.99613,-0.83443 5.0646,-1.53327 6.81877,-1.55289 1.75418,0 4.33654,-0.69187 5.73859,-1.49316 2.83396,-1.62047 5.09843,-1.94744 5.09843,-0.73678 0,0.91901 -9.99705,5.37191 -18.86401,8.40227 -12.04145,4.11547 -34.07084,6.10911 -48.94446,4.42936 z m 27.23637,-16.36334 c -3.66316,-1.50494 -5.71012,-5.14433 -4.05138,-7.20294 0.72448,-0.89895 0.61479,-1.27911 -0.37231,-1.29001 -0.98344,0 -1.05027,-0.23977 -0.22496,-0.76467 0.64605,-0.4098 1.48571,-3.04344 1.86592,-5.84754 0.38015,-2.8041 1.29057,-7.16327 2.02307,-9.68704 0.73246,-2.52378 1.32471,-5.50618 1.31608,-6.62791 -0.0174,-2.16019 0.87663,-8.96291 1.9187,-14.61165 0.835,-4.52658 -1.17657,-8.03781 -6.02065,-10.50883 -2.14864,-1.09601 -4.15628,-2.77533 -4.46136,-3.73139 -1.51575,-4.74979 -5.04128,-11.85987 -7.85082,-15.83321 -2.74268,-3.87874 -0.87031,-12.16723 3.66281,-16.21425 2.73552,-2.44225 3.20295,-3.51035 2.92934,-6.69199 -0.17917,-2.08215 -0.69583,-4.0152 -1.1484,-4.29596 -0.45253,-0.27901 -0.8666,-0.9687 -0.92018,-1.52935 -0.0536,-0.56064 -0.6709,-1.01971 -1.37193,-1.01971 -0.70107,0 -1.16401,0.56152 -1.02882,1.24729 0.31869,1.61785 -5.79414,0.48784 -7.70674,-1.42472 -0.74357,-0.74375 -1.77806,-1.35192 -2.29882,-1.35192 -0.52075,0 -0.94682,-0.6086 -0.94682,-1.35191 0,-2.1846 -4.30563,-5.50793 -8.15743,-6.29571 -1.96287,-0.40108 -4.57458,-1.65316 -5.80385,-2.78142 -1.49823,-1.37502 -3.9393,-2.14319 -7.40553,-2.33021 -5.31266,-0.28774 -10.77643,-2.88737 -9.70566,-4.62031 0.3322,-0.53711 -0.77052,-0.97481 -2.45651,-0.97481 -3.82028,0 -4.99842,-1.7094 -2.51671,-3.65117 1.03758,-0.81219 1.38683,-1.3554 0.77609,-1.20718 -0.92563,0.2267 -4.84491,-3.75536 -7.76607,-7.88739 -0.39628,-0.56108 -2.11519,-2.62579 -3.81931,-4.58892 l -3.09846,-3.56834 1.59884,3.31374 c 0.87933,1.82275 2.00969,3.31373 2.51183,3.31373 0.50214,0 0.66667,0.64217 0.36577,1.42646 -0.30125,0.7843 -0.0571,1.72946 0.54185,2.09959 0.59906,0.37057 1.08921,1.40554 1.08921,2.30056 0,1.41731 -0.26332,1.38897 -2.03938,-0.21798 -1.12164,-1.01535 -2.03934,-2.47712 -2.03934,-3.24921 0,-0.77209 -0.70194,-1.67278 -1.55991,-2.00237 -0.95253,-0.3662 -1.33343,-1.3118 -0.97816,-2.43135 0.31999,-1.00794 0.10419,-2.12749 -0.47947,-2.48846 -0.58367,-0.36185 -1.06117,-1.47965 -1.06117,-2.48628 0,-1.00664 -1.10543,-3.02295 -2.45647,-4.48081 -3.74769,-4.04355 -4.77865,-10.57424 -2.54043,-16.09262 2.05499,-5.06717 2.45254,-9.08586 0.89878,-9.08586 -0.58658,0 -0.77261,-1.06156 -0.42724,-2.43789 0.33656,-1.34058 0.11596,-2.74437 -0.49041,-3.1193 -0.60991,-0.37492 -1.10229,0.0436 -1.10229,0.90854 0,0.87454 -0.47624,1.58995 -1.05829,1.58995 -0.58205,0 -0.96953,-1.03279 -0.86111,-2.29446 0.37406,-4.35394 -0.12599,-5.86323 -1.94373,-5.86323 -2.31547,0 -9.50834,3.63591 -10.56031,5.3379 -0.43854,0.70974 -1.15822,1.29567 -1.59928,1.30221 -0.44106,0 -2.92312,1.48009 -5.51573,3.27407 -2.59257,1.79354 -4.98316,2.99199 -5.31249,2.66241 -0.32915,-0.33133 0.87101,-1.58908 2.66739,-2.79974 1.79633,-1.21066 3.42294,-3.1023 3.61468,-4.2044 0.19182,-1.10211 2.03035,-3.49379 4.08577,-5.31523 2.05543,-1.82145 2.87154,-3.00988 1.81356,-2.64149 -2.92909,1.02015 -1.5437,-1.93174 1.63415,-3.48202 1.4405,-0.70233 2.89343,-2.30841 3.22877,-3.56877 0.80609,-3.02905 7.84986,-7.89001 11.49907,-7.93518 1.59282,-0.0174 5.64922,-0.62081 9.01413,-1.33578 3.36497,-0.71498 7.80814,-1.18573 9.87381,-1.04613 3.08665,0.20882 3.73082,-0.0767 3.6159,-1.60203 -0.11335,-1.50493 -0.47737,-1.64514 -1.92489,-0.74113 -0.98183,0.61314 -2.10081,0.79916 -2.48663,0.41329 -0.97473,-0.97472 1.54944,-3.80981 3.3919,-3.80981 0.88779,0 1.28429,-0.59801 0.95889,-1.44604 -0.36533,-0.952618 0.72797,-2.010782 3.20484,-3.101206 2.06784,-0.910329 2.84202,-1.446125 1.72038,-1.190652 -2.69135,0.613048 -8.725,2.726759 -10.94771,3.835188 -0.9738,0.48566 -2.69454,0.88299 -3.82376,0.88299 -1.12927,0 -2.0532,0.40458 -2.0532,0.89882 0,0.88609 -7.26807,3.8028 -12.23611,4.91045 -2.2077,0.49215 -2.07107,0.23977 1.01967,-1.88475 11.04136,-7.589243 20.85635,-11.767881 35.98497,-15.320218 7.75643,-1.821313 12.58474,-2.210582 27.74479,-2.237001 18.2912,-0.03052 32.01393,1.610787 29.00288,3.471772 -0.75582,0.467088 -1.75844,0.611827 -2.22802,0.321739 -0.46957,-0.29035 -5.61887,-0.665756 -11.44283,-0.834603 -8.88775,-0.257653 -10.49841,-0.07063 -10.02482,1.163404 0.3104,0.808663 1.13934,1.249637 1.84224,0.979909 1.75086,-0.671859 9.9858,3.625229 15.31302,7.990418 2.41579,1.97956 4.7783,3.59924 5.25006,3.59924 0.47175,0 1.45332,0.95375 2.18133,2.11947 1.15904,1.85588 1.07534,2.18438 -0.67321,2.64166 -2.62549,0.68655 -3.34195,4.83031 -1.65953,9.59885 0.7393,2.09522 1.12216,4.03176 0.85082,4.30293 -0.93226,0.93252 -6.95784,-2.73391 -10.88698,-6.62399 -2.1635,-2.14187 -4.42413,-3.591 -5.02366,-3.22044 -0.60198,0.37057 -0.79628,0.19618 -0.43378,-0.388 0.36097,-0.58419 -0.048,-1.64606 -0.90854,-2.36029 -0.86059,-0.71419 -1.32877,-1.9133 -1.04047,-2.66468 0.29471,-0.7676 -0.14604,-1.36617 -1.00524,-1.36617 -0.84127,0 -1.79362,-0.68825 -2.11645,-1.52952 -0.32261,-0.84123 -1.07526,-1.52953 -1.67213,-1.52953 -0.59687,0 -1.82986,-0.67386 -2.73992,-1.49748 -1.21947,-1.10359 -2.44757,-1.26075 -4.66884,-0.59748 -1.65778,0.49503 -2.40458,0.93945 -1.65957,0.98767 2.19825,0.14212 9.49854,8.13232 9.18303,10.05089 -0.15956,0.96958 0.0131,2.24389 0.3819,2.83113 0.3697,0.58767 0.25678,1.73512 -0.25111,2.5495 -0.78456,1.25861 -1.57783,1.13611 -5.28602,-0.81656 -2.39957,-1.26341 -5.13884,-2.29577 -6.08714,-2.29402 -2.3102,0.004 -3.38066,-1.90253 -1.47826,-2.63233 0.83343,-0.32 1.77732,-1.26437 2.09758,-2.09893 0.43692,-1.13869 0.075,-1.35636 -1.4507,-0.8721 -1.49726,0.4752 -2.03293,0.17962 -2.03293,-1.12295 0,-0.97249 -0.30212,-1.46626 -0.67094,-1.09722 -0.36882,0.36882 -1.17204,0.25503 -1.78443,-0.25286 -0.76895,-0.6379 -1.10965,0.17787 -1.10102,2.63678 0.009,2.32803 0.63328,3.90764 1.80588,4.5642 0.98636,0.55192 1.57857,1.35104 1.31595,1.7761 -0.26245,0.42288 0.76022,0.59247 2.27283,0.37493 1.85475,-0.2703 4.24438,0.60991 7.33883,2.69947 3.53734,2.38906 4.66404,2.75657 4.9182,1.60389 0.50262,-2.27963 1.45668,-1.85283 5.80015,2.59528 2.19698,2.24999 4.441,3.94195 4.98669,3.76016 1.15046,-0.38365 3.81165,2.09915 6.26707,5.84666 1.71799,2.62187 4.2109,3.74055 2.99243,1.34276 -0.35618,-0.70102 0.30517,-0.19182 1.46932,1.13263 1.1644,1.32401 2.11005,3.1594 2.10146,4.07884 -0.0131,1.45175 -0.14561,1.47006 -1.00406,0.14387 -0.87864,-1.35932 -0.99914,-1.35932 -1.08459,0 -0.0658,1.04979 -0.25765,1.12958 -0.61043,0.25286 -0.82218,-2.03768 -5.24151,-1.59431 -5.07453,0.5092 0.0898,1.12957 -0.6999,1.90384 -2.15265,2.11049 -1.26184,0.17874 -2.29424,0.8135 -2.29424,1.40946 0,0.67486 -1.53693,0.87671 -4.07871,0.53579 -3.33039,-0.44686 -4.08286,-0.23542 -4.10139,1.14047 -0.0131,0.92773 -0.91996,2.83462 -2.01667,4.23667 -1.0967,1.40161 -2.00419,3.17859 -2.01671,3.94849 -0.0174,1.18625 -0.29209,1.18625 -1.78948,0 -1.63913,-1.29829 -1.63603,-1.19497 0.0436,1.43344 1.99291,3.12061 1.64946,4.15122 -2.5644,7.6969 -2.87665,2.42045 -3.81483,6.59696 -1.7663,7.86342 1.49792,0.92555 3.14232,5.52711 2.4028,6.72382 -0.88413,1.43082 -3.56559,-1.1008 -5.12969,-4.84221 -0.96639,-2.31234 -2.20836,-3.35385 -4.55801,-3.82381 -5.01006,-1.00228 -7.05349,-0.77383 -7.05349,0.78778 0,0.92249 -0.71323,1.24772 -1.99866,0.91159 -2.30885,-0.6038 -8.51165,2.92966 -10.74804,6.1222 -1.96422,2.80453 -1.93859,6.16535 0.0793,10.41858 1.87768,3.95634 3.39853,4.73758 7.59321,3.89836 2.09933,-0.41852 3.25183,-1.37197 3.66826,-3.0308 0.33395,-1.33055 1.13097,-2.45446 1.77118,-2.49718 0.64025,-0.0436 1.96522,-0.23106 2.94443,-0.41852 2.65993,-0.5092 3.08639,1.08031 1.24515,4.6408 -0.90553,1.75125 -1.3871,3.44321 -1.0702,3.75972 0.31695,0.31825 0.0497,1.21066 -0.59399,1.98624 -0.96906,1.1675 -0.50851,1.33709 2.67937,0.98614 6.31397,-0.69623 7.56204,0.0436 7.50218,4.36571 -0.10114,7.31847 2.27628,10.3654 6.37531,8.17164 1.35148,-0.72326 2.58163,-0.72195 3.93782,0 2.62343,1.4038 2.74507,1.37938 4.97387,-1.01317 1.05999,-1.13786 2.79856,-2.2452 3.86353,-2.46143 1.06492,-0.21362 2.81451,-0.73939 3.88794,-1.16358 1.36861,-0.54059 1.73141,-0.41416 1.21441,0.42288 -0.40545,0.65612 -0.25155,1.19322 0.34266,1.19322 0.59391,0 1.07988,-0.4316 1.07988,-0.95954 0,-0.52752 1.22893,-0.32262 2.73098,0.45775 1.50206,0.7795 3.17894,1.14004 3.72642,0.80174 0.54748,-0.34005 0.70024,-0.13515 0.33961,0.44598 -0.36097,0.58375 0.37144,1.33666 1.62688,1.67322 3.20871,0.86015 4.02234,0.78473 3.34604,-0.30953 -0.32261,-0.52185 -0.0493,-1.28129 0.6072,-1.68717 0.74563,-0.46081 0.92071,-0.29645 0.46631,0.43945 -0.67644,1.0947 0.74353,1.58079 4.23623,1.45131 0.70102,-0.0436 1.2829,0.70451 1.29297,1.62352 0.0262,2.3398 6.97528,7.82985 10.88907,8.60281 3.94488,0.77862 7.44673,3.59144 7.44673,5.98094 0,0.96391 0.48876,2.05468 1.08611,2.42394 0.71066,0.43901 0.45562,1.42908 -0.73769,2.86426 -1.0031,1.2063 -1.17605,1.62483 -0.38452,0.93034 1.16803,-1.02451 2.66002,-0.5916 7.91055,2.29402 3.55905,1.9566 7.30182,3.55701 8.31721,3.55701 1.01544,0 2.64872,0.88674 3.62955,1.97054 0.98086,1.0838 2.42856,1.72291 3.21708,1.42079 1.03706,-0.39672 1.4337,0.30082 1.4337,2.53468 0,2.17457 -1.33849,4.653 -4.53678,8.39965 -2.49526,2.92311 -4.84753,6.74649 -5.2273,8.49556 -1.04713,4.82391 -5.62236,10.64703 -9.35479,11.90696 -1.82271,0.61557 -3.314,1.76084 -3.314,2.54557 0,0.78516 -1.26185,2.23822 -2.8041,3.23003 -1.54225,0.99138 -3.63164,2.82633 -4.64298,4.0771 -5.00762,6.19413 -10.46323,10.53848 -12.73301,10.13957 -1.76124,-0.30953 -2.26285,0 -2.03943,1.33884 0.31782,1.87507 -1.87885,5.12123 -3.46531,5.12123 -0.52957,0 -3.45604,2.15277 -6.50318,4.78336 -3.68034,3.17728 -5.13065,5.03621 -4.32002,5.53713 0.85666,0.52969 0.47689,1.38287 -1.27445,2.86383 -2.33888,1.97795 -2.38326,2.19636 -0.71031,3.49727 0.98148,0.76337 1.78443,1.62788 1.78443,1.92084 0,1.2935 -3.85228,1.33317 -6.92275,0.0698 z m -4.10247,-175.38127 c -0.73608,-0.29209 -1.61554,-0.25722 -1.95437,0.0785 -0.33874,0.34005 0.26332,0.57983 1.33831,0.53536 1.18786,-0.048 1.42947,-0.29209 0.61606,-0.61601 z m 6.91041,-4.62467 c 0.0218,-0.40108 -0.65216,-0.46866 -1.49339,-0.14387 -0.89376,0.34441 -1.53602,0 -1.54513,-0.79693 -0.0131,-1.1274 -0.18397,-1.1178 -0.92445,0.0523 -0.55119,0.87062 -0.47062,2.39735 0.2049,3.87962 l 1.11357,2.44399 1.30427,-2.35026 c 0.71733,-1.29263 1.32052,-2.67985 1.34036,-3.08268 z m -32.5935,2.86731 c 0,-0.2049 -1.04884,-1.05764 -2.33078,-1.8973 -2.09073,-1.37022 -2.54749,-1.35191 -4.43585,0.17439 -2.04736,1.65796 -1.98345,1.71027 2.33077,1.89773 2.43972,0.10899 4.43586,0.0436 4.43586,-0.17438 z m -2.45241,-5.24896 c -1.85031,-1.35279 -1.8548,-1.45044 -0.0972,-2.12487 1.01317,-0.38801 3.56398,-0.2485 5.66853,0.31389 3.24608,0.86669 3.73736,0.78952 3.23949,-0.5079 -0.37972,-0.99006 -0.16915,-1.27126 0.59797,-0.79737 0.65167,0.40109 1.99151,0.26158 2.97739,-0.30953 1.62801,-0.94821 1.5937,-1.04674 -0.37449,-1.07508 -1.66097,-0.0436 -2.16685,-0.66702 -2.16685,-2.7557 0,-1.4984 -0.86033,-3.35341 -1.91187,-4.12245 -1.05153,-0.76903 -1.7972,-1.60782 -1.65699,-1.86373 0.70586,-1.29044 0.0876,-2.50546 -1.27458,-2.50546 -0.84123,0 -1.52952,-0.497 -1.52952,-1.10473 0,-0.60729 -0.57355,-0.89895 -1.27458,-0.6474 -0.70102,0.25286 -2.08864,0.0436 -3.08359,-0.47389 -1.40458,-0.72282 -2.39425,-0.23542 -4.42657,2.1798 -1.43967,1.71071 -2.98655,2.88258 -3.43746,2.604 -0.45096,-0.27902 -1.08088,0.17438 -1.39987,1.00489 -0.31912,0.83094 -0.25242,1.40946 0.14823,1.28521 0.40021,-0.12643 2.0103,1.06941 3.57749,2.65282 1.7829,1.80182 3.45878,2.64584 4.47731,2.25479 2.10299,-0.80697 5.62451,0.30517 4.86397,1.53414 -0.32174,0.52054 -1.27305,0.94647 -2.11432,0.94647 -0.89647,0 -1.22836,-0.4874 -0.80195,-1.17709 0.4544,-0.73547 0.27945,-0.90026 -0.46626,-0.43945 -0.65664,0.40544 -0.9299,1.16489 -0.6072,1.68717 0.32261,0.52184 0.1007,0.94908 -0.49325,0.94908 -0.59391,0 -1.07983,-0.45906 -1.07983,-1.01971 0,-1.79398 -3.82246,-1.0899 -4.31536,0.79476 -0.56042,2.14318 1.81447,4.85572 2.82272,3.22436 0.45248,-0.73241 1.04896,-0.73198 1.93213,0.001 0.70273,0.58331 1.57957,0.75857 1.94861,0.388 0.36883,-0.37056 0.6709,-0.0567 0.6709,0.68882 0,0.74767 0.34354,1.01579 0.7632,0.59639 0.41983,-0.41852 -0.10943,-1.40117 -1.17623,-2.18154 z m 7.55079,-5.49267 c 0,-0.52751 0.45362,-1.23987 1.00799,-1.58253 0.57799,-0.35749 0.74893,0.0523 0.40064,0.95954 -0.67787,1.76652 -1.40872,2.08956 -1.40872,0.62299 z m -12.80599,-2.57696 c -1.08864,-0.82309 -1.44329,-1.51148 -0.78813,-1.52935 1.93719,-0.0523 4.41702,1.13524 4.41702,2.11615 0,1.33622 -1.38195,1.11301 -3.62889,-0.5868 z m 34.21919,9.94513 c 0,-0.11771 -0.86952,-0.68402 -1.9323,-1.25295 -1.37764,-0.73721 -2.23081,-0.67443 -2.97229,0.21798 -0.78212,0.94211 -0.303,1.25295 1.93226,1.25295 1.63476,0 2.97233,-0.10027 2.97233,-0.21798 z m -15.29515,-2.32977 c 0,-0.56065 -0.71536,-1.01971 -1.58973,-1.01971 -0.87432,0 -1.30609,0.45906 -0.95946,1.01971 0.34659,0.56064 1.06196,1.01971 1.58969,1.01971 0.52773,0 0.9595,-0.45907 0.9595,-1.01971 z m 3.56886,0 c -0.34659,-0.56065 -0.83255,-1.01971 -1.07987,-1.01971 -0.24719,0 -0.44965,0.45906 -0.44965,1.01971 0,0.56064 0.48592,1.01971 1.07987,1.01971 0.59391,0 0.79624,-0.45907 0.44965,-1.01971 z m -33.13949,-5.13257 c -1.29359,-0.86451 -1.09705,-1.4051 1.27461,-3.50425 1.54226,-1.36499 2.8041,-3.05041 2.8041,-3.74533 0,-0.69492 -0.65076,-0.37493 -1.44612,0.7141 -0.79541,1.08772 -1.78958,1.63442 -2.20932,1.21459 -0.41983,-0.41853 -0.22801,-0.76293 0.42637,-0.76293 0.65433,0 1.18965,-0.68839 1.18965,-1.52979 0,-1.97883 -1.92926,-1.98318 -2.68805,0 -0.32173,0.83792 -1.00292,1.26516 -1.51417,0.94909 -0.51117,-0.3139 -0.66545,-1.00141 -0.34267,-1.52369 0.32261,-0.52184 0.12774,-0.94908 -0.43291,-0.94908 -0.56077,0 -1.30784,0.46648 -1.66014,1.03628 -0.35225,0.5698 -1.11662,0.742 -1.69854,0.38364 -0.68219,-0.42288 -0.56662,-0.96522 0.32523,-1.53066 1.12647,-0.71366 1.09936,-0.87279 -0.14605,-0.85579 -1.93597,0.0436 -7.09587,2.92225 -5.29309,2.97107 0.73412,0 1.07761,0.4521 0.76333,0.96043 -0.31433,0.50876 0.46164,0.7093 1.72427,0.44598 l 2.29563,-0.47868 -2.35013,1.40466 -2.35013,1.40423 2.83269,1.29044 c 2.04344,0.93122 2.93895,0.9722 3.21408,0.14823 0.27509,-0.82614 0.79279,-0.80304 1.85998,0.0828 1.1917,0.98876 1.22191,1.38985 0.15564,2.06646 -0.86168,0.54626 -0.25634,0.83879 1.73617,0.83879 2.38196,0 2.72048,-0.2267 1.52948,-1.02233 z m -3.86396,-3.64201 c -1.45703,-1.576 -0.47311,-1.87768 1.67857,-0.51443 0.76089,0.48217 0.99033,1.11518 0.50982,1.40684 -0.48048,0.29209 -1.46527,-0.10899 -2.18839,-0.89241 z m 40.02749,-0.2485 c -0.57455,-0.60467 -2.51418,0.92816 -2.51418,1.98711 0,0.54975 0.64199,0.4098 1.42664,-0.31389 0.78468,-0.72326 1.27405,-1.47573 1.08754,-1.67191 z m -29.02577,1.48576 c 0,-0.21798 -0.71214,-0.674 -1.58249,-1.00794 -0.90741,-0.34877 -1.31673,-0.17875 -0.95951,0.40108 0.59884,0.96914 2.542,1.433 2.542,0.60729 z m -15.51387,-10.34622 c 0.88125,-0.76729 0.37667,-1.0402 -1.8272,-0.98745 -1.67457,0.0436 -3.84944,0.96086 -4.83302,2.04596 -1.75177,1.93262 -1.74349,1.93567 0.40458,0.15695 2.28085,-1.88945 4.14119,-0.8401 2.88989,1.63006 -0.35531,0.70102 -0.0174,0.58636 0.75129,-0.25286 0.76825,-0.84097 1.94473,-2.00629 2.61433,-2.58961 z m 8.37611,1.50973 c 0,-0.59378 -0.45885,-0.79606 -1.01967,-0.44947 -0.56082,0.34877 -1.01967,0.83225 -1.01967,1.07987 0,0.2485 0.45885,0.44948 1.01967,0.44948 0.56082,0 1.01967,-0.4861 1.01967,-1.07988 z m -5.37269,-7.78416 c -0.99212,-0.25852 -2.36866,-0.24152 -3.05905,0.0392 -0.69034,0.27945 0.1212,0.49084 1.80383,0.47009 1.6825,-0.0218 2.24733,-0.24937 1.25522,-0.50785 z m 7.94886,-1.13576 c -0.31389,-0.3139 -1.13672,-6.6e-4 -1.82841,0.69618 -0.99953,1.00707 -0.88239,1.12417 0.57084,0.5708 1.00559,-0.38277 1.57155,-0.95305 1.25757,-1.26698 z m 11.69931,-1.2768 c 0,-0.52773 -0.38234,-0.95951 -0.84973,-0.95951 -0.46735,0 -0.84973,0.66811 -0.84973,1.48462 0,0.8166 0.38234,1.24838 0.84973,0.95955 0.46735,-0.28904 0.84973,-0.95693 0.84973,-1.48466 z m -4.08996,-2.00023 c -0.60651,-1.13324 -0.76402,-2.62453 -0.35008,-3.314 0.47372,-0.788871 0.10376,-0.726834 -0.99826,0.16741 -1.6407,1.33133 -1.64305,1.54003 -0.0392,3.31395 2.23273,2.4671 2.76164,2.40332 1.38596,-0.16741 z m -5.17211,0.67434 c -0.23367,-0.20141 -1.80143,-0.6743 -3.48389,-1.05066 -2.23399,-0.49975 -2.64654,-0.40501 -1.52952,0.35094 1.37698,0.93178 6.03666,1.58228 5.01341,0.6999 z m -9.09209,-2.78587 c 1.35955,-0.96151 1.35955,-1.03175 0,-0.63202 -0.84122,0.24719 -2.44726,-0.0218 -3.56886,-0.59918 -1.82305,-0.937577 -1.89093,-0.868869 -0.63994,0.64762 1.62962,1.97547 2.14048,2.04631 4.2088,0.58358 z m 5.09839,-1.40428 c 0,-0.947426 -0.59326,-1.269862 -1.61502,-0.877803 -1.30034,0.499 -1.34999,0.787733 -0.25503,1.481913 1.81106,1.14802 1.86992,1.12901 1.86992,-0.60411 z m 26.91943,-0.541852 c 4.006,0 -0.0942,-2.235605 -4.51407,-2.461302 -2.66459,-0.13602 -4.79238,-0.876717 -5.56878,-1.938455 -1.81709,-2.485019 -2.56114,-2.123215 -2.56114,1.245278 0,2.429782 0.35574,2.870495 1.97586,2.446872 1.08667,-0.284247 3.01811,0.213184 4.29207,1.105679 1.5297,1.07146 2.65932,1.27933 3.32647,0.61214 0.55563,-0.55564 1.92795,-1.010212 3.04959,-1.010212 z m -22.84076,0 c 0,-0.560819 -0.48592,-1.019668 -1.07983,-1.019668 -0.59395,0 -0.79628,0.458849 -0.44969,1.019668 0.34659,0.560822 0.83255,1.019672 1.07987,1.019672 0.24719,0 0.44965,-0.45885 0.44965,-1.019672 z m 27.72247,-9.873634 c -0.73608,-0.294709 -1.61554,-0.258524 -1.95437,0.08022 -0.33874,0.338741 0.26332,0.579827 1.33831,0.535577 1.18787,-0.04883 1.42947,-0.290785 0.61606,-0.616055 z m 27.0279,223.353756 c -1.08733,-1.08772 0.30342,-2.40694 2.53654,-2.40694 1.75466,0 1.89321,0.25286 0.83465,1.52935 -1.3707,1.65142 -2.34377,1.90471 -3.37119,0.87759 z M 187.71181,288.40789 c -2.8041,-3.2684 -5.2834,-5.76689 -5.50954,-5.55196 -0.22626,0.21362 -1.49948,-1.08511 -2.82964,-2.8878 -2.47338,-3.35254 -5.90958,-5.77125 -8.29075,-5.83577 -0.73407,0 -1.06252,0.40544 -0.7298,0.94298 0.36141,0.58462 -0.62791,0.54888 -2.45712,-0.0872 -2.38937,-0.83269 -3.76757,-2.55952 -6.27369,-7.86124 -5.16473,-10.92604 -5.22642,-11.19503 -2.85881,-12.46237 1.18943,-0.6365 1.84673,-1.74035 1.52918,-2.56781 -0.30605,-0.7978 -0.11248,-1.45087 0.43073,-1.45087 0.5432,0 0.98767,-0.71759 0.98767,-1.59387 0,-1.06724 0.75761,-1.48837 2.29428,-1.27475 1.59152,0.22234 2.29825,-0.2049 2.30728,-1.39333 0.009,-0.94168 0.35138,-2.05076 0.76476,-2.46405 0.41329,-0.41416 0.75173,-0.25286 0.75173,0.35749 0,0.6099 1.37659,1.4112 3.05905,1.78046 1.68245,0.37057 3.059,1.25033 3.059,1.95659 0,0.70669 1.26189,1.91735 2.80414,2.69075 1.54226,0.77296 3.057,1.54243 3.36614,1.71027 0.3091,0.17003 0.37362,-1.30875 0.14343,-3.28104 -0.51304,-4.39448 1.40968,-4.82477 2.35362,-0.52707 0.3697,1.68237 1.05869,3.0587 1.53144,3.0587 0.47276,0 1.42184,1.72073 2.10901,3.8238 0.68716,2.10308 2.21402,4.81301 3.39299,6.02236 3.07173,3.14982 4.69281,5.25376 4.69281,6.09037 0,0.40109 0.723,1.5263 1.60669,2.50285 2.14662,2.37206 2.65461,10.01619 0.838,12.60972 -0.78377,1.11868 -1.42498,2.84116 -1.42498,3.8273 0,1.07159 -1.04626,2.05599 -2.60007,2.44574 -2.5689,0.64479 -2.575,0.67007 -0.50981,2.11659 2.04077,1.42951 2.8507,3.45717 1.32541,3.31809 -0.4207,-0.0436 -3.05901,-2.74393 -5.86311,-6.01233 z m 7.99944,-15.8851 c -0.3322,-0.86538 -0.82248,-1.35453 -1.08977,-1.08728 -0.26724,0.26593 -0.18354,0.97524 0.18616,1.57338 1.00549,1.627 1.59313,1.31093 0.90365,-0.4861 z m 9.3922,20.02018 c -0.60659,-0.98135 7.21284,-5.17964 9.69681,-5.20624 1.22536,0 1.2145,-0.17874 -0.0671,-1.00402 -1.20482,-0.77862 -1.23189,-0.99181 -0.1273,-1.00445 1.01243,0 1.23203,-0.86538 0.79027,-3.07439 -0.34528,-1.72553 -0.17831,-3.05914 0.38234,-3.05914 0.54678,0 0.99416,0.45907 0.99416,1.01971 0,0.56065 0.95977,1.97927 2.13281,3.15243 l 2.1328,2.13272 -2.38775,1.68368 c -1.31325,0.92598 -2.61712,1.68761 -2.89753,1.6924 -0.28032,0 -1.95724,1.04108 -3.72628,2.30187 -3.38157,2.41043 -5.96277,2.91963 -6.92319,1.36543 z m 9.8337,-24.76866 c -0.67295,-0.67269 -1.22356,-1.59038 -1.22356,-2.03942 0,-1.50232 1.53575,-0.83661 2.82236,1.22374 1.39438,2.23255 0.35095,2.7653 -1.5988,0.81568 z m 160.39176,-1.07028 c 0.40936,-1.26211 1.16244,-7.34201 1.67352,-13.51086 0.54992,-6.64055 1.57909,-12.38215 2.52251,-14.07367 1.34162,-2.40563 1.40323,-3.64986 0.39018,-7.87301 -0.66915,-2.78928 -0.89511,-6.83979 -0.50915,-9.12422 0.62634,-3.70785 0.48635,-4.10806 -1.4351,-4.10806 -1.21254,0 -2.12884,-0.6583 -2.12884,-1.52935 0,-1.92782 -1.95846,-1.91168 -4.53499,0.0436 -1.09234,0.82614 -2.79577,1.2451 -3.78536,0.93077 -0.98972,-0.31389 -2.68543,-0.0959 -3.76827,0.48261 -2.55791,1.36892 -6.94899,-1.92607 -8.95044,-6.71597 -0.77985,-1.86635 -1.98606,-3.28104 -2.68055,-3.14284 -0.90217,0.17874 -1.26254,-1.68499 -1.26254,-6.53374 0,-3.73182 0.36098,-6.56208 0.80234,-6.2896 0.44119,0.27029 0.706,-1.03366 0.58816,-2.90219 -0.11771,-1.86853 0.66318,-5.00308 1.73529,-6.96621 1.07234,-1.96313 1.95537,-4.25716 1.96248,-5.09813 0.004,-0.8414 0.4711,-1.46526 1.03113,-1.38679 1.40345,0.19618 6.87911,-3.79939 6.17316,-4.50521 -0.31389,-0.31389 0.18964,-1.41077 1.11903,-2.43789 0.92933,-1.02713 1.33312,-1.86722 0.89707,-1.86722 -0.43609,0 -0.16305,-0.80304 0.60677,-1.78439 1.26834,-1.61698 1.23233,-1.65316 -0.38495,-0.38365 -0.98148,0.76991 -1.84189,1.11388 -1.91199,0.76468 -0.0702,-0.34877 -0.19531,-1.20805 -0.27771,-1.90907 -0.0824,-0.70103 -1.00873,-1.12478 -2.05791,-0.94168 -1.69096,0.29646 -1.82301,-0.10899 -1.1614,-3.56877 0.41068,-2.14623 0.70696,-4.98043 0.65904,-6.29834 -0.13645,-3.73356 0.79724,-4.35045 4.04315,-2.672 2.79415,1.44477 3.0011,1.42297 3.0011,-0.31389 0,-1.02713 -1.14701,-3.42229 -2.54923,-5.32264 -3.03398,-4.11242 -3.04706,-4.17127 -0.76459,-3.45368 1.61454,0.50789 1.62919,0.4316 0.15346,-0.7965 -1.76861,-1.47268 -1.87969,-1.75256 -2.05651,-5.18183 -0.0889,-1.7264 -0.23368,-1.85283 -0.58458,-0.51007 -0.25635,0.98178 -1.06737,1.78482 -1.80209,1.78482 -1.87411,0 -2.77633,-4.07274 -1.04914,-4.7354 0.76241,-0.2921 1.1345,-1.18756 0.82697,-1.98842 -0.40587,-1.05808 -0.0606,-1.26559 1.26124,-0.75857 1.4272,0.54756 1.67435,0.31825 1.14483,-1.06113 -0.4255,-1.10865 -0.27683,-1.51278 0.40239,-1.09339 0.59247,0.36621 0.81922,1.33884 0.50375,2.16106 -0.31563,0.82222 0.55864,3.52343 1.94264,6.0023 1.38383,2.47931 2.28487,5.3161 2.00211,6.30443 -0.29209,1.02102 -0.004,0.83573 0.6624,-0.42724 0.97267,-1.84019 0.7812,-2.86601 -1.10442,-5.91686 -1.25452,-2.02983 -2.08267,-3.8892 -1.84028,-4.1316 0.60084,-0.60075 6.54761,7.93448 7.40035,10.62174 0.37754,1.1893 1.0204,2.16237 1.42855,2.16237 1.56104,0 12.37614,24.07376 12.37614,27.5488 0,0.89328 -0.74,0.59247 -2.0791,-0.84489 -1.86761,-2.00499 -4.03896,-2.96192 -4.03896,-1.78003 0,0.7019 4.23305,7.70604 4.6572,7.70604 0.20751,0 0.0885,-0.75247 -0.2642,-1.67191 -0.52633,-1.37197 -0.30517,-1.48358 1.23255,-0.62299 1.0307,0.57678 1.96422,1.90253 2.07452,2.94622 0.1103,1.04369 0.4915,3.27407 0.84716,4.95644 0.35574,1.6828 1.31869,7.75399 2.1403,13.4921 1.61454,11.27699 0.82161,25.81933 -2.11118,38.72115 -0.79114,3.48027 -1.44107,7.83944 -1.44421,9.68704 -0.009,5.62389 -1.99713,11.18805 -4.20274,11.76483 -1.10481,0.28773 -3.14132,2.7605 -4.52554,5.49179 -2.61637,5.16352 -4.28732,6.65363 -2.99557,2.67244 z m 6.81807,-97.85527 c -0.7315,-0.73154 -1.20656,-0.79214 -1.20656,-0.15258 0,1.36107 1.20599,2.56693 1.8864,1.8864 0.28991,-0.2921 -0.0174,-1.06985 -0.67984,-1.73338 z m -2.68604,-0.0436 c -0.85269,-3.8879 -4.34077,-9.92248 -5.74082,-9.93164 -1.86521,0 -4.44653,4.24715 -3.78213,6.24036 0.24806,0.74375 1.33391,1.399 2.41278,1.45567 5.29941,0.27466 6.54085,0.51182 6.42955,1.2159 -0.18616,1.18058 0.0759,2.29446 0.54042,2.29446 0.23062,0 0.29383,-0.57373 0.13994,-1.27475 z m -143.31448,93.47037 c 0,-0.88805 0.54491,-1.433 1.21088,-1.21066 1.89067,0.62996 2.2043,2.82502 0.4037,2.82502 -0.88797,0 -1.61449,-0.72631 -1.61449,-1.61436 z m 3.57915,-1.42777 c -0.35226,-0.5698 0.075,-1.03628 0.94921,-1.03628 1.7911,0 2.05482,0.61165 0.64047,1.48576 -0.52206,0.32261 -1.23738,0.12206 -1.58968,-0.44948 z m -21.3384,-2.71211 c -0.85365,-2.22427 0.27989,-3.25837 1.48423,-1.35366 1.20583,1.90646 1.2315,3.02949 0.0693,3.02949 -0.50083,0 -1.19989,-0.75421 -1.5535,-1.67583 z m -8.75234,-10.52845 c 0,-0.5432 -0.68829,-0.72369 -1.52952,-0.40108 -1.85846,0.71279 -2.02661,-1.00838 -0.24283,-2.4889 0.95309,-0.79083 1.58886,-0.42724 2.45323,1.4051 0.64174,1.35976 0.75108,2.47233 0.24283,2.47233 -0.50802,0 -0.92371,-0.44468 -0.92371,-0.98788 z m -19.90548,-1.3118 c -1.10965,-0.61209 -2.61716,-1.95049 -3.34996,-2.97543 -1.41849,-1.98319 -4.27582,-2.54688 -4.27582,-0.84315 0,0.56064 -0.91769,1.01971 -2.03937,1.01971 -1.12164,0 -2.03934,-0.45907 -2.03934,-1.01971 0,-0.56065 -0.9177,-1.01971 -2.03934,-1.01971 -1.12168,0 -2.03938,-0.45907 -2.03938,-1.01971 0,-0.56065 0.46273,-1.01972 1.02835,-1.01972 2.01344,0 -1.40441,-3.88048 -4.87613,-5.53582 -2.32019,-1.10647 -3.29277,-2.1628 -2.90969,-3.16115 0.34179,-0.89111 -0.0174,-1.49971 -0.89006,-1.49971 -0.88378,0 -1.23255,0.6073 -0.87859,1.52979 0.42724,1.11257 -0.12076,1.52935 -2.01117,1.52935 -1.429,0 -2.8817,-0.45907 -3.22834,-1.01971 -0.34658,-0.56065 0.31477,-1.01972 1.46937,-1.01972 1.15472,0 2.15687,-0.45906 2.22697,-1.01971 0.0702,-0.56064 0.18485,-1.43997 0.25504,-1.95441 0.20664,-1.51583 1.657,-2.57827 1.657,-1.21415 0,0.68708 0.40675,0.99835 0.90413,0.691 0.49726,-0.30953 1.47115,0.12207 2.1642,0.95911 0.69305,0.8353 0.88269,1.51845 0.42157,1.51845 -0.46124,0 -0.30735,0.531 0.3418,1.18058 0.89402,0.89416 1.54234,0.87977 2.67257,-0.061 1.19736,-0.99399 2.47747,-0.73939 6.4802,1.28914 2.74346,1.39027 5.58901,3.25182 6.32348,4.13639 0.73446,0.88543 2.59959,1.60956 4.14472,1.60956 2.83858,0 5.64712,-2.17064 4.40978,-3.4079 -0.36882,-0.37056 -0.16261,-0.67094 0.45846,-0.67094 2.17474,0 2.35584,2.03201 0.371,4.16211 -1.34272,1.44129 -2.67545,1.9361 -4.04489,1.50145 -3.56676,-1.13219 -3.78296,1.60608 -0.36795,4.6578 3.33632,2.98067 3.1329,4.58762 -0.33874,2.67419 z m 12.14203,-2.98633 c -0.47424,-0.76729 -0.17962,-0.96827 0.84402,-0.57547 0.8649,0.33133 2.0355,0.13951 2.60137,-0.42724 0.692,-0.69187 1.25313,-0.66571 1.71394,0.0785 0.37667,0.60991 0.54334,1.14309 0.37013,1.18451 -3.2357,0.77819 -4.93577,0.69753 -5.52938,-0.26158 z m -45.90534,-3.02862 c -0.48614,-0.78168 -2.12958,-2.21337 -3.65213,-3.1812 -3.89853,-2.47888 -5.35756,-5.4373 -3.10731,-6.30094 0.9541,-0.36621 1.40354,-0.33569 0.99879,0.0697 -1.0324,1.03236 2.37049,4.56407 3.64105,3.77891 0.58663,-0.36185 0.7315,-0.14387 0.33177,0.50397 -0.42898,0.69405 0.31433,1.40423 1.88178,1.79746 2.79385,0.70146 3.0417,1.19802 1.67474,3.35603 -0.7471,1.17927 -1.02259,1.17535 -1.76882,-0.0436 z m 3.30563,-0.27466 c 0.30604,-0.79824 1.26058,-1.72073 2.1209,-2.05119 1.12129,-0.4316 1.38771,-0.13951 0.94085,1.02451 -0.3431,0.89328 -0.62338,1.81621 -0.62338,2.05076 0,0.23541 -0.67391,0.42724 -1.49753,0.42724 -0.87601,0 -1.26646,-0.60206 -0.94084,-1.45044 z m 39.14672,-0.58898 c -1.37523,-2.56955 -0.22626,-2.56955 3.05905,0 2.52221,1.97316 2.52526,1.99452 0.29079,2.01676 -1.24214,0 -2.74956,-0.89503 -3.34984,-2.01676 z m -32.62964,-0.44947 c 0,-0.2485 0.45885,-0.73329 1.01967,-1.07988 0.56082,-0.34877 1.01967,-0.14386 1.01967,0.44948 0,0.59421 -0.45885,1.07987 -1.01967,1.07987 -0.56082,0 -1.01967,-0.20054 -1.01967,-0.44947 z m 3.65344,-1.45306 c -0.43923,-0.71062 -0.52324,-1.56771 -0.18659,-1.90384 0.91255,-0.9129 1.90759,0.42724 1.41469,1.9082 -0.34528,1.03584 -0.58558,1.03497 -1.22797,0 z m -14.17478,-3.86043 c -0.38233,-0.38365 -0.74941,-2.79799 -0.81577,-5.36842 -0.10157,-3.93541 -0.22234,-4.19961 -0.76476,-1.67234 -0.35443,1.65054 -0.98823,2.91265 -1.40885,2.8041 -0.4207,-0.10899 -1.17251,-0.19619 -1.67095,-0.19619 -2.07133,0 -2.18564,-6.96577 -0.19487,-11.87207 1.95764,-4.82478 2.22889,-4.74674 2.63603,0.75857 0.28948,3.91405 1.46967,5.24373 4.19272,4.72319 1.59741,-0.30517 2.4297,0 2.4297,0.92337 0,0.7638 -1.03244,1.41731 -2.29429,1.45305 l -2.29428,0.0654 2.29428,0.92206 c 1.26185,0.50745 2.28723,1.5106 2.27868,2.22993 -0.0131,1.0062 -0.21754,0.98876 -0.89224,-0.0741 -0.48212,-0.76075 -1.1331,-0.96827 -1.44664,-0.46125 -0.31346,0.50746 -0.14823,1.58864 0.36664,2.40302 0.51526,0.81481 0.90758,2.16934 0.87192,3.01074 -0.051,1.19802 -0.18485,1.2281 -0.61767,0.13951 -0.38931,-0.97873 -0.76315,-1.04979 -1.26376,-0.23978 -0.39106,0.63258 -1.02377,0.83748 -1.40606,0.45514 z m 101.44248,-3.41401 c 0.51326,-1.53981 2.15299,-1.6985 2.63416,-0.25721 0.23368,0.70102 -0.34005,1.27474 -1.27457,1.27474 -0.9347,0 -1.54653,-0.45906 -1.35959,-1.01971 z m -85.74227,-1.44477 c -0.044,-1.07464 0.19662,-1.6767 0.53557,-1.33796 0.33875,0.34005 0.37493,1.21807 0.0807,1.95441 -0.32567,0.81306 -0.56714,0.57154 -0.61606,-0.61645 z m -25.13143,-5.94781 c -1.16807,-9.55669 -1.18481,-9.99221 -0.40326,-10.47526 0.3976,-0.24414 1.03881,2.41217 1.42476,5.90639 0.38583,3.49423 0.95279,7.38561 1.25967,8.64728 0.30691,1.26211 0.0942,2.29446 -0.47215,2.29446 -0.56657,0 -1.38064,-2.86775 -1.80906,-6.37287 z m 15.79808,6.11783 c -0.76686,-2.58001 -0.75077,-5.35446 0.0392,-6.70768 0.75966,-1.30178 1.00183,-0.68097 1.02551,2.62927 0.0174,2.3834 -0.19837,4.33345 -0.47882,4.33345 -0.28032,0 -0.54395,-0.11335 -0.58563,-0.25286 z m 45.96122,-8.43409 c 0,-0.85317 -1.14714,-2.07386 -2.54919,-2.71254 -2.21838,-1.011 -3.53141,-2.87386 -2.02551,-2.87386 0.94019,0 5.06608,2.52422 5.83367,3.56921 1.08676,1.47878 0.9466,3.56834 -0.23934,3.56834 -0.56082,0 -1.01967,-0.69797 -1.01967,-1.55115 z m -50.98384,-6.60611 c -0.73995,-1.38243 -0.7515,-2.03942 -0.0349,-2.03942 0.58057,0 1.05555,-0.71541 1.05555,-1.58951 0,-0.87454 0.45884,-1.30614 1.01971,-0.95955 1.30744,0.80827 1.33896,6.62791 0.0349,6.62791 -0.54111,0 -1.47494,-0.9177 -2.07521,-2.03943 z m -5.08277,-3.25357 c 0.009,-0.73416 0.46042,-2.02329 1.0041,-2.86426 0.80356,-1.24336 0.99133,-1.1117 1.00406,0.70451 0.009,1.22854 -0.44328,2.51767 -1.00406,2.86426 -0.56086,0.34877 -1.01269,0.0436 -1.0041,-0.70451 z m -6.26523,-3.1193 c -0.40414,-10.17401 3.20239,-33.49964 5.29447,-34.24426 0.52534,-0.18747 0.95515,-1.36979 0.95515,-2.62797 0,-2.76268 4.74351,-14.84404 6.57254,-16.74003 1.08232,-1.12173 1.41522,-1.06898 1.9436,0.30953 0.40632,1.05808 0.23193,1.41077 -0.47964,0.97088 -0.73948,-0.45688 -0.89324,0 -0.45488,1.39639 0.44389,1.39856 -0.003,2.70687 -1.35388,3.96551 -2.14571,1.99888 -4.18836,6.5102 -4.18836,9.24934 0,1.38504 0.24632,1.33229 1.49709,-0.32261 0.82335,-1.0886 1.51165,-3.24137 1.52948,-4.78336 0.0174,-1.54243 0.49128,-2.80454 1.0521,-2.80454 1.84364,0 1.06497,6.98889 -1.27457,11.44004 -1.96483,3.73837 -2.34107,4.03569 -2.62012,2.07082 -0.17918,-1.26167 -0.69928,-2.29446 -1.15565,-2.29446 -1.99011,0 -2.96671,12.59228 -1.06771,13.76589 1.69615,1.04805 1.24637,4.89365 -0.49429,4.22576 -2.24637,-0.86189 -3.29168,2.08912 -3.379,9.54013 -0.11815,10.06807 -0.1334,10.19668 -1.22509,10.19668 -0.56082,0 -1.07887,-1.49142 -1.15124,-3.31417 z m 9.54043,-0.1613 c 0.31345,-1.63922 0.0597,-2.29882 -0.76158,-1.98362 -1.61598,0.61993 -3.02038,-7.71345 -1.54806,-9.18526 0.73111,-0.73154 1.05821,-0.14386 1.05821,1.89382 0,1.80487 1.05101,4.0492 2.70461,5.77516 2.25884,2.35768 2.49034,3.08137 1.40467,4.38926 -1.94308,2.34154 -3.38942,1.89119 -2.85785,-0.88936 z m 119.88609,-17.12192 c 0.9517,-0.9517 1.49556,-0.9517 2.44726,0 0.95166,0.9517 0.6798,1.22374 -1.22365,1.22374 -1.9034,0 -2.17527,-0.27029 -1.22361,-1.22374 z m 6.32204,0.14387 c 0,-0.64915 0.65028,-0.93034 1.44508,-0.62517 0.79484,0.30517 1.70931,-0.13515 2.03218,-0.97524 0.35531,-0.92642 1.09256,-1.21502 1.86879,-0.73198 0.70504,0.43901 2.2704,0.67051 3.4787,0.51443 1.20827,-0.15694 2.49723,0.20055 2.86431,0.79607 0.37231,0.60249 -0.14823,1.10777 -1.17723,1.14352 -1.01452,0.0436 -3.79473,0.28774 -6.17825,0.56065 -2.88789,0.33133 -4.33358,0.10463 -4.33358,-0.68228 z m 14.07149,-0.14387 c 0.95171,-0.9517 1.49552,-0.9517 2.44723,0 0.9517,0.9517 0.67979,1.22374 -1.22361,1.22374 -1.90341,0 -2.17527,-0.27029 -1.22362,-1.22374 z m -23.5277,-5.49048 c -1.55555,-0.84359 -3.34717,-1.21285 -3.98136,-0.82092 -0.70573,0.43596 -0.87079,0.25722 -0.4255,-0.46473 0.46251,-0.74811 -0.0593,-1.1771 -1.43213,-1.1771 -1.18782,0 -1.93688,0.36185 -1.66454,0.80086 0.27248,0.44076 -0.38888,0.8013 -1.46936,0.8013 -2.71233,0 -2.46095,-1.41992 0.48936,-2.76399 1.97996,-0.902 3.65379,-0.65263 8.66725,1.29131 6.10802,2.36814 7.9442,3.98861 4.42901,3.90839 -0.98148,-0.0436 -3.05717,-0.73111 -4.61277,-1.57512 z m 91.03035,-13.61898 c 0,-0.59421 0.45881,-1.07987 1.01967,-1.07987 0.56082,0 1.01962,0.20054 1.01962,0.44948 0,0.24849 -0.4588,0.73328 -1.01962,1.07987 -0.56086,0.34877 -1.01967,0.14387 -1.01967,-0.44948 z m 2.03929,-18.86403 c 0,-0.24849 0.45885,-0.73328 1.01967,-1.07987 0.56078,-0.34877 1.01963,-0.14387 1.01963,0.44948 0,0.59377 -0.45885,1.07987 -1.01963,1.07987 -0.56082,0 -1.01967,-0.20054 -1.01967,-0.44948 z m -201.89593,-5.03839 c 0,-0.8414 0.45889,-1.81316 1.01966,-2.15975 0.56082,-0.34877 1.01972,0.061 1.01972,0.89939 0,0.8414 -0.4589,1.81316 -1.01972,2.15975 -0.56077,0.34876 -1.01966,-0.061 -1.01966,-0.89939 z m 4.07871,-0.061 c 0,-0.24849 0.45885,-0.73285 1.01967,-1.07943 0.56082,-0.34441 1.01971,-0.14387 1.01971,0.44947 0,0.59422 -0.45889,1.07988 -1.01971,1.07988 -0.56082,0 -1.01967,-0.20055 -1.01967,-0.44992 z m 6.11805,-5.60776 c 0,-0.59421 0.45885,-1.07987 1.01967,-1.07987 0.56082,0 1.01971,0.20054 1.01971,0.44948 0,0.24849 -0.45889,0.73328 -1.01971,1.07987 -0.56082,0.34877 -1.01967,0.14387 -1.01967,-0.44948 z m 1.50634,-9.27506 c -0.34529,-0.55846 -1.16942,-0.69056 -1.83169,-0.29209 -0.68599,0.4098 -0.60193,0 0.19531,-1.00314 1.45532,-1.79398 4.7368,-2.32585 5.61212,-0.90985 0.27727,0.4486 -0.36272,1.35714 -1.42206,2.01849 -1.2441,0.77688 -2.14833,0.84359 -2.55368,0.18747 z m 134.81346,-14.354 c -1.01548,-0.59072 -2.53062,-0.81176 -3.36692,-0.49089 -0.85858,0.33133 -1.24933,0.14387 -0.89755,-0.42288 0.34266,-0.55454 0.0606,-1.00794 -0.62683,-1.00794 -2.26054,0 0.0466,-1.35017 2.81081,-1.64488 3.17541,-0.34005 8.85249,2.31364 7.97874,3.72746 -0.78543,1.27083 -3.56852,1.19541 -5.89825,-0.1613 z" />
    <path
       d="m 222.44791,56.485737 a 28.884468,28.884468 0 1 1 -57.76893,0 28.884468,28.884468 0 1 1 57.76893,0 z"
       sodipodi:ry="28.884468"
       sodipodi:rx="28.884468"
       sodipodi:cy="56.485737"
       sodipodi:cx="193.56345"
       id="path3527"
       style="opacity:0.52016129;fill:url(#radialGradient3260-9);fill-opacity:1;stroke:url(#linearGradient3262-6);stroke-width:0.41157421;stroke-miterlimit:4;stroke-opacity:1;display:inline"
       sodipodi:type="arc"
       transform="matrix(2.4620384,-0.44025561,0.31018221,1.7346162,-238.52869,128.68632)" />
    <path
       inkscape:connector-curvature="0"
       style="color:#000000;fill:url(#linearGradient4842-1);fill-opacity:1;stroke:none;stroke-width:1;marker:none;visibility:visible;display:inline;overflow:visible;enable-background:accumulate"
       d="m 362.4723,125.9181 c -72.55974,3.67807 -130.24321,63.71757 -130.24321,137.19135 0,25.85634 7.1937,50.05616 19.61823,70.70734 5.71042,0.78931 11.51088,1.22614 17.43842,1.22614 69.82457,0 126.42855,-56.60398 126.42855,-126.42855 0,-31.65509 -11.70088,-60.51788 -30.92595,-82.69628 -0.76821,0.0262 -1.55115,-0.0392 -2.31604,0 z"
       id="path3068" />
    <g
       id="g5596"
       transform="matrix(1.2424875,0,0,1.2424875,269.28574,208.61447)"
       inkscape:label="WireframeSphere"
       style="stroke:#b2f2ff;stroke-width:0.40241852;stroke-miterlimit:4;stroke-opacity:0.37647059;stroke-dasharray:none;display:inline">
      <g
         id="g5598"
         inkscape:label="Lines of Longitude"
         style="stroke:#b2f2ff;stroke-width:0.40241852;stroke-miterlimit:4;stroke-opacity:0.37647059;stroke-dasharray:none">
        <path
           d="M 1.5313594e-7,100 C -3.1563713,100 -5.7151159,55.228478 -5.715116,2.6794897e-6 -5.7151161,-55.228472 -3.1563716,-99.999999 -1.5313595e-7,-100 c 8.8413244e-8,0 1.76826483e-7,0 2.6523972e-7,0"
           id="path5600"
           sodipodi:cx="0"
           sodipodi:cy="0"
           transform="matrix(0.99919663,0.04007615,-0.04007615,0.99919663,0,0)"
           sodipodi:end="4.712389"
           sodipodi:start="1.5707963"
           sodipodi:open="true"
           sodipodi:type="arc"
           style="fill:none;stroke:#b2f2ff;stroke-width:0.40241852;stroke-miterlimit:4;stroke-opacity:0.37647059;stroke-dasharray:none"
           sodipodi:ry="100"
           sodipodi:rx="5.715116" />
        <path
           d="M 9.7939055e-7,100 C -20.186771,100 -36.551383,55.228478 -36.551384,2.6794897e-6 -36.551385,-55.228472 -20.186773,-99.999999 -9.7939057e-7,-100 c 5.6545243e-7,0 1.13090487e-6,0 1.6963573e-6,0"
           id="path5602"
           sodipodi:cx="0"
           sodipodi:cy="0"
           transform="matrix(0.96145779,0.27495257,-0.27495257,0.96145779,0,0)"
           sodipodi:end="4.712389"
           sodipodi:start="1.5707963"
           sodipodi:open="true"
           sodipodi:type="arc"
           style="fill:none;stroke:#b2f2ff;stroke-width:0.40241852;stroke-miterlimit:4;stroke-opacity:0.37647059;stroke-dasharray:none"
           sodipodi:ry="100"
           sodipodi:rx="36.551384" />
        <path
           d="M 1.6565459e-6,100 C -34.144003,100 -61.823188,55.228478 -61.823189,2.6794897e-6 -61.82319,-55.228472 -34.144006,-99.999999 -1.656546e-6,-100 c 9.5640902e-7,0 1.91281802e-6,0 2.869227e-6,0"
           id="path5604"
           sodipodi:cx="0"
           sodipodi:cy="0"
           transform="matrix(0.83467686,0.55074,-0.55074,0.83467686,0,0)"
           sodipodi:end="4.712389"
           sodipodi:start="1.5707963"
           sodipodi:open="true"
           sodipodi:type="arc"
           style="fill:none;stroke:#b2f2ff;stroke-width:0.40241852;stroke-miterlimit:4;stroke-opacity:0.37647059;stroke-dasharray:none"
           sodipodi:ry="100"
           sodipodi:rx="61.823189" />
        <path
           d="M 2.0815114e-6,100 C -42.903205,100 -77.683127,55.228478 -77.683128,2.6794897e-6 -77.68313,-55.228472 -42.903209,-99.999999 -2.0815114e-6,-100 c 1.20176333e-6,0 2.40352669e-6,0 3.6052901e-6,0"
           id="path5606"
           sodipodi:cx="0"
           sodipodi:cy="0"
           transform="matrix(0.50388121,0.86377296,-0.86377296,0.50388121,0,0)"
           sodipodi:end="4.712389"
           sodipodi:start="1.5707963"
           sodipodi:open="true"
           sodipodi:type="arc"
           style="fill:none;stroke:#b2f2ff;stroke-width:0.40241852;stroke-miterlimit:4;stroke-opacity:0.37647059;stroke-dasharray:none"
           sodipodi:ry="100"
           sodipodi:rx="77.683128" />
        <path
           d="M 1.6028976e-6,-100 C 45.130866,-99.999999 81.71666,-55.228473 81.71666,1.961531e-6 81.716659,55.228475 45.130866,99.999998 2.7762813e-6,100"
           id="path5608"
           sodipodi:cx="0"
           sodipodi:cy="0"
           transform="matrix(0.12101765,-0.99265036,0.99265036,0.12101765,0,0)"
           sodipodi:end="7.8539816"
           sodipodi:start="4.712389"
           sodipodi:open="true"
           sodipodi:type="arc"
           style="fill:none;stroke:#b2f2ff;stroke-width:0.40241852;stroke-miterlimit:4;stroke-opacity:0.37647059;stroke-dasharray:none"
           sodipodi:ry="100"
           sodipodi:rx="81.71666" />
        <path
           d="M 1.4379931e-6,-100 C 40.487848,-99.999999 73.309731,-55.228473 73.309731,1.961531e-6 73.30973,55.228475 40.487847,99.999998 2.4906602e-6,100"
           id="path5610"
           sodipodi:cx="0"
           sodipodi:cy="0"
           transform="matrix(0.65604345,-0.75472312,0.75472312,0.65604345,0,0)"
           sodipodi:end="7.8539816"
           sodipodi:start="4.712389"
           sodipodi:open="true"
           sodipodi:type="arc"
           style="fill:none;stroke:#b2f2ff;stroke-width:0.40241852;stroke-miterlimit:4;stroke-opacity:0.37647059;stroke-dasharray:none"
           sodipodi:ry="100"
           sodipodi:rx="73.309731" />
        <path
           d="M 1.0541701e-6,-100 C 29.681004,-99.999999 53.742211,-55.228473 53.74221,1.961531e-6 53.74221,55.228475 29.681004,99.999998 1.8258638e-6,100"
           id="path5612"
           sodipodi:cx="0"
           sodipodi:cy="0"
           transform="matrix(0.89492694,-0.44621271,0.44621271,0.89492694,0,0)"
           sodipodi:end="7.8539816"
           sodipodi:start="4.712389"
           sodipodi:open="true"
           sodipodi:type="arc"
           style="fill:none;stroke:#b2f2ff;stroke-width:0.40241852;stroke-miterlimit:4;stroke-opacity:0.37647059;stroke-dasharray:none"
           sodipodi:ry="100"
           sodipodi:rx="53.74221" />
        <path
           d="M 5.0986225e-7,-100 C 14.35558,-99.999999 25.993077,-55.228473 25.993076,1.961531e-6 25.993076,55.228475 14.35558,99.999998 8.8310133e-7,100"
           id="path5614"
           sodipodi:cx="0"
           sodipodi:cy="0"
           transform="matrix(0.98207772,-0.18847642,0.18847642,0.98207772,0,0)"
           sodipodi:end="7.8539816"
           sodipodi:start="4.712389"
           sodipodi:open="true"
           sodipodi:type="arc"
           style="fill:none;stroke:#b2f2ff;stroke-width:0.40241852;stroke-miterlimit:4;stroke-opacity:0.37647059;stroke-dasharray:none"
           sodipodi:ry="100"
           sodipodi:rx="25.993076" />
      </g>
      <g
         id="g5616"
         inkscape:label="Lines of Latitude"
         style="stroke:#b2f2ff;stroke-width:0.40241852;stroke-miterlimit:4;stroke-opacity:0.37647059;stroke-dasharray:none">
        <path
           d="m 40.624789,91.37708 c -23.912103,10.63131 -57.337472,10.63131 -81.249577,0"
           id="path5618"
           sodipodi:cx="0"
           sodipodi:cy="61.314411"
           sodipodi:end="2.2301784"
           sodipodi:start="0.91141422"
           sodipodi:open="true"
           sodipodi:type="arc"
           style="fill:none;stroke:#b2f2ff;stroke-width:0.40241852;stroke-miterlimit:4;stroke-opacity:0.37647059;stroke-dasharray:none"
           sodipodi:ry="38.036152"
           sodipodi:rx="66.312263" />
        <path
           d="M 72.047682,69.348382 C 50.079826,92.171951 0.01451459,100.45938 -39.776322,87.858866 -53.360661,83.557131 -64.547996,77.140203 -72.047683,69.348382"
           id="path5620"
           sodipodi:cx="0"
           sodipodi:cy="46.533138"
           sodipodi:end="2.6371514"
           sodipodi:start="0.50444126"
           sodipodi:open="true"
           sodipodi:type="arc"
           style="fill:none;stroke:#b2f2ff;stroke-width:0.40241852;stroke-miterlimit:4;stroke-opacity:0.37647059;stroke-dasharray:none"
           sodipodi:ry="47.205414"
           sodipodi:rx="82.298386" />
        <path
           d="M 90.144549,43.289528 C 76.431484,71.845827 24.955758,88.618922 -24.829702,80.753284 -56.586154,75.736061 -81.397453,61.504619 -90.14455,43.289527"
           id="path5622"
           sodipodi:cx="0"
           sodipodi:cy="29.047531"
           sodipodi:end="2.8728145"
           sodipodi:start="0.26877819"
           sodipodi:open="true"
           sodipodi:type="arc"
           style="fill:none;stroke:#b2f2ff;stroke-width:0.40241852;stroke-miterlimit:4;stroke-opacity:0.37647059;stroke-dasharray:none"
           sodipodi:ry="53.631329"
           sodipodi:rx="93.501625" />
        <path
           d="M 98.911449,14.714897 C 94.250127,46.048369 46.187215,69.281729 -8.4400694,66.608058 -56.601269,64.250862 -94.801875,42.339511 -98.911449,14.714897"
           id="path5624"
           sodipodi:cx="0"
           sodipodi:cy="9.8737869"
           sodipodi:end="3.0564693"
           sodipodi:start="0.085123351"
           sodipodi:open="true"
           sodipodi:type="arc"
           style="fill:none;stroke:#b2f2ff;stroke-width:0.40241852;stroke-miterlimit:4;stroke-opacity:0.37647059;stroke-dasharray:none"
           sodipodi:ry="56.940441"
           sodipodi:rx="99.270889" />
        <path
           d="M 98.911449,-14.714894 C 103.57277,16.618579 63.06735,44.186814 8.440065,46.860484 -46.18722,49.534154 -94.25013,26.300793 -98.911449,-5.0326796 c -0.479254,-3.221552 -0.479254,-6.4606644 0,-9.6822164"
           id="path5626"
           sodipodi:cx="0"
           sodipodi:cy="-9.8737869"
           sodipodi:end="9.5099013"
           sodipodi:start="6.198062"
           sodipodi:open="true"
           sodipodi:type="arc"
           style="fill:none;stroke:#b2f2ff;stroke-width:0.40241852;stroke-miterlimit:4;stroke-opacity:0.37647059;stroke-dasharray:none"
           sodipodi:ry="56.940441"
           sodipodi:rx="99.270889" />
        <path
           d="M 90.144549,-43.289529 C 103.85762,-14.733231 74.615163,14.792583 24.829703,22.658222 -24.955756,30.52386 -76.431483,13.750766 -90.144549,-14.805533 c -4.476101,-9.3211 -4.476101,-19.162892 -2e-6,-28.483993"
           id="path5628"
           sodipodi:cx="0"
           sodipodi:cy="-29.047531"
           sodipodi:end="9.6935561"
           sodipodi:start="6.0144071"
           sodipodi:open="true"
           sodipodi:type="arc"
           style="fill:none;stroke:#b2f2ff;stroke-width:0.40241852;stroke-miterlimit:4;stroke-opacity:0.37647059;stroke-dasharray:none"
           sodipodi:ry="53.631329"
           sodipodi:rx="93.501625" />
        <path
           d="m 72.047684,-69.34838 c 21.967854,22.82357 7.519471,51.54046 -32.271366,64.1409704 -39.79083755,12.6005099 -89.856149,4.31308252 -111.824002,-18.5104874 -13.667602,-14.199997 -13.667602,-31.430487 10e-7,-45.630484"
           id="path5630"
           sodipodi:cx="0"
           sodipodi:cy="-46.533138"
           sodipodi:end="9.9292192"
           sodipodi:start="5.7787441"
           sodipodi:open="true"
           sodipodi:type="arc"
           style="fill:none;stroke:#b2f2ff;stroke-width:0.40241852;stroke-miterlimit:4;stroke-opacity:0.37647059;stroke-dasharray:none"
           sodipodi:ry="47.205414"
           sodipodi:rx="82.298386" />
        <path
           d="m 40.62479,-91.377079 c 28.945953,12.869358 34.222946,36.76155 11.786494,53.364703 -22.436452,16.603153 -64.090121,19.629992 -93.036074,6.760633 -28.945953,-12.869359 -34.222946,-36.76155 -11.786494,-53.364703 3.417438,-2.528932 7.377544,-4.800415 11.786485,-6.760629"
           id="path5632"
           sodipodi:cx="0"
           sodipodi:cy="-61.314411"
           sodipodi:end="10.336192"
           sodipodi:start="5.3717711"
           sodipodi:open="true"
           sodipodi:type="arc"
           style="fill:none;stroke:#b2f2ff;stroke-width:0.40241852;stroke-miterlimit:4;stroke-opacity:0.37647059;stroke-dasharray:none"
           sodipodi:ry="38.036152"
           sodipodi:rx="66.312263" />
        <path
           d="m 46.472317,-72.53231 c 0,14.721937 -20.806365,26.656425 -46.472317,26.656425 -25.665952,0 -46.472317,-11.934488 -46.472317,-26.656425 0,-14.721938 20.806365,-26.656426 46.472317,-26.656426 25.665952,0 46.472317,11.934488 46.472317,26.656426 z"
           id="path5634"
           sodipodi:cx="0"
           sodipodi:cy="-72.53231"
           sodipodi:type="arc"
           style="fill:none;stroke:#b2f2ff;stroke-width:0.40241852;stroke-miterlimit:4;stroke-opacity:0.37647059;stroke-dasharray:none"
           sodipodi:ry="26.656425"
           sodipodi:rx="46.472317" />
        <path
           d="m 23.931566,-79.534897 c 0,7.581535 -10.714527,13.727583 -23.931566,13.727583 -13.217039,0 -23.931566,-6.146048 -23.931566,-13.727583 0,-7.581535 10.714527,-13.727583 23.931566,-13.727583 13.217039,0 23.931566,6.146048 23.931566,13.727583 z"
           id="path5636"
           sodipodi:cx="0"
           sodipodi:cy="-79.534897"
           sodipodi:type="arc"
           style="fill:none;stroke:#b2f2ff;stroke-width:0.40241852;stroke-miterlimit:4;stroke-opacity:0.37647059;stroke-dasharray:none"
           sodipodi:ry="13.727583"
           sodipodi:rx="23.931566" />
      </g>
      <path
         d="M 100,0 C 100,55.228475 55.228475,100 0,100 -55.228475,100 -100,55.228475 -100,0 c 0,-55.228475 44.771525,-100 100,-100 55.228475,0 100,44.771525 100,100 z"
         id="path5638"
         sodipodi:cx="0"
         sodipodi:cy="0"
         sodipodi:type="arc"
         style="fill:none;stroke:#b2f2ff;stroke-width:0.40241852;stroke-miterlimit:4;stroke-opacity:0.37647059;stroke-dasharray:none"
         sodipodi:ry="100"
         sodipodi:rx="100" />
    </g>
    <path
       style="fill:url(#linearGradient4406-6);fill-opacity:1;stroke:none;display:inline;"
       d="m 143.52608,113.59871 c -1.39106,4.4367 2.75229,12.4743 6.35839,16.8933 2.77569,3.4013 6.11736,5.1374 9.97876,7.2142 2.16199,1.1629 8.01586,2.2572 8.01586,2.2572 0,0 -12.19746,-8.6767 -14.00231,-15.0237 -1.43579,-5.0493 3.28163,-5.7622 2.33608,-8.8783 -0.91987,-3.0315 -2.94898,-7.2768 -6.37222,-7.7649 -2.72095,-0.3879 -5.49229,2.6796 -6.31456,5.3022 z"
       id="path4398"
       inkscape:connector-curvature="0"
       sodipodi:nodetypes="ssscssss"
       transform="matrix(4.3596053,0,0,4.3596053,-479.9436,-276.1375)" />
    <path
       sodipodi:nodetypes="sssscssss"
       inkscape:connector-curvature="0"
       id="path4408"
       d="m 199.88003,113.59871 c 1.39106,4.4367 -1.7282,10.7645 -4.73276,15.0999 -1.41018,2.0348 -4.20606,4.4931 -6.22618,5.9926 -2.02013,1.4995 -3.2645,2.0401 -5.48599,3.1436 -3.57754,1.777 -8.43389,2.2255 -8.43389,2.2255 0,0 12.72327,-8.7736 14.52812,-15.1206 1.43579,-5.0493 -3.28163,-5.7622 -2.33608,-8.8783 0.91987,-3.0315 2.94898,-7.2768 6.37222,-7.7649 2.72095,-0.3879 5.49229,2.6796 6.31456,5.3022 z"
       style="fill:url(#linearGradient4410-8);fill-opacity:1;stroke:none;display:inline;"
       transform="matrix(4.3596053,0,0,4.3596053,-479.9436,-276.1375)" />
    <path
       style="fill:none;stroke:#e7e7e7;stroke-width:0.5;stroke-linecap:butt;stroke-linejoin:miter;stroke-miterlimit:4;stroke-opacity:1;stroke-dasharray:none;display:inline"
       d="m 162.58122,199.02931 c 12.52349,-3.85337 34.26759,44.3139 34.26759,44.3139"
       id="path3139"
       inkscape:connector-curvature="0"
       sodipodi:nodetypes="cc" />
    <path
       inkscape:transform-center-y="2.4890249"
       inkscape:transform-center-x="-2.7114944"
       transform="matrix(1.701196,1.1381491,-1.1660381,1.7675577,237.24708,173.7865)"
       d="m -21.71828,34.493649 a 1.2626907,2.0203052 0 1 1 -2.525381,0 1.2626907,2.0203052 0 1 1 2.525381,0 z"
       sodipodi:ry="2.0203052"
       sodipodi:rx="1.2626907"
       sodipodi:cy="34.493649"
       sodipodi:cx="-22.98097"
       id="path3909"
       style="color:#000000;fill:url(#radialGradient3929-9);fill-opacity:1;stroke:none;stroke-width:0.5;marker:none;visibility:visible;display:inline;overflow:visible;enable-background:accumulate"
       sodipodi:type="arc" />
    <path
       sodipodi:type="arc"
       style="color:#000000;fill:url(#radialGradient3921-9);fill-opacity:1;stroke:none;stroke-width:0.5;marker:none;visibility:visible;display:inline;overflow:visible;enable-background:accumulate"
       id="path3911"
       sodipodi:cx="-22.98097"
       sodipodi:cy="34.493649"
       sodipodi:rx="1.2626907"
       sodipodi:ry="2.0203052"
       d="m -21.71828,34.493649 a 1.2626907,2.0203052 0 1 1 -2.525381,0 1.2626907,2.0203052 0 1 1 2.525381,0 z"
       transform="matrix(1.701196,1.1381491,-1.1660381,1.7675577,244.26574,179.56655)"
       inkscape:transform-center-x="-2.7114951"
       inkscape:transform-center-y="2.489023" />
    <path
       inkscape:transform-center-y="2.4890182"
       inkscape:transform-center-x="-2.7114959"
       transform="matrix(1.701196,1.1381491,-1.1660381,1.7675577,250.59628,186.86047)"
       d="m -21.71828,34.493649 a 1.2626907,2.0203052 0 1 1 -2.525381,0 1.2626907,2.0203052 0 1 1 2.525381,0 z"
       sodipodi:ry="2.0203052"
       sodipodi:rx="1.2626907"
       sodipodi:cy="34.493649"
       sodipodi:cx="-22.98097"
       id="path3913"
       style="color:#000000;fill:url(#radialGradient3937-7);fill-opacity:1;stroke:none;stroke-width:0.5;marker:none;visibility:visible;display:inline;overflow:visible;enable-background:accumulate"
       sodipodi:type="arc" />
    <path
       sodipodi:nodetypes="cc"
       inkscape:connector-curvature="0"
       id="path3939"
       d="m 375.38367,199.90123 c -12.52353,-3.85337 -34.26759,44.31391 -34.26759,44.31391"
       style="fill:none;stroke:#e7e7e7;stroke-width:0.5;stroke-linecap:butt;stroke-linejoin:miter;stroke-miterlimit:4;stroke-opacity:1;stroke-dasharray:none;display:inline" />
    <path
       sodipodi:type="arc"
       style="color:#000000;fill:url(#radialGradient3947-3);fill-opacity:1;stroke:none;stroke-width:0.5;marker:none;visibility:visible;display:inline;overflow:visible;enable-background:accumulate"
       id="path3941"
       sodipodi:cx="-22.98097"
       sodipodi:cy="34.493649"
       sodipodi:rx="1.2626907"
       sodipodi:ry="2.0203052"
       d="m -21.71828,34.493649 a 1.2626907,2.0203052 0 1 1 -2.525381,0 1.2626907,2.0203052 0 1 1 2.525381,0 z"
       transform="matrix(-1.701196,1.1381491,1.1660381,1.7675577,300.71779,174.65842)"
       inkscape:transform-center-x="2.7115028"
       inkscape:transform-center-y="2.4890238" />
    <path
       inkscape:transform-center-y="2.489022"
       inkscape:transform-center-x="2.7115034"
       transform="matrix(-1.701196,1.1381491,1.1660381,1.7675577,293.69913,180.43847)"
       d="m -21.71828,34.493649 a 1.2626907,2.0203052 0 1 1 -2.525381,0 1.2626907,2.0203052 0 1 1 2.525381,0 z"
       sodipodi:ry="2.0203052"
       sodipodi:rx="1.2626907"
       sodipodi:cy="34.493649"
       sodipodi:cx="-22.98097"
       id="path3943"
       style="color:#000000;fill:url(#radialGradient3949-1);fill-opacity:1;stroke:none;stroke-width:0.5;marker:none;visibility:visible;display:inline;overflow:visible;enable-background:accumulate"
       sodipodi:type="arc" />
    <path
       sodipodi:type="arc"
       style="color:#000000;fill:url(#radialGradient3951-4);fill-opacity:1;stroke:none;stroke-width:0.5;marker:none;visibility:visible;display:inline;overflow:visible;enable-background:accumulate"
       id="path3945"
       sodipodi:cx="-22.98097"
       sodipodi:cy="34.493649"
       sodipodi:rx="1.2626907"
       sodipodi:ry="2.0203052"
       d="m -21.71828,34.493649 a 1.2626907,2.0203052 0 1 1 -2.525381,0 1.2626907,2.0203052 0 1 1 2.525381,0 z"
       transform="matrix(-1.701196,1.1381491,1.1660381,1.7675577,287.36855,187.73239)"
       inkscape:transform-center-x="2.7115006"
       inkscape:transform-center-y="2.4890172" />
    <path
       style="fill:url(#linearGradient4981-6);fill-opacity:1;stroke:none;display:inline"
       d="m 191.27513,252.42619 c -16.66158,-4.30005 -15.61649,-5.68 -22.91386,-10.45917 2.06087,18.61638 16.50442,33.85817 30.68948,42.66244 -8.38478,-12.8022 -11.75711,-22.94883 -7.77562,-32.20327 z"
       id="path4965"
       inkscape:connector-curvature="0"
       sodipodi:nodetypes="cccc" />
    <path
       sodipodi:nodetypes="cccc"
       inkscape:connector-curvature="0"
       id="path4983"
       d="m 345.94307,252.42619 c 16.66159,-4.30005 15.6165,-5.68 22.91387,-10.45917 -2.06087,18.61638 -16.50442,33.85817 -30.68944,42.66244 8.38474,-12.8022 11.75707,-22.94883 7.77557,-32.20327 z"
       style="fill:url(#linearGradient4985-4);fill-opacity:1;stroke:none;display:inline" />
    <g
       id="g6460">
      <path
         transform="matrix(3.1892349,0,0,3.1892349,176.21091,112.75157)"
         inkscape:connector-curvature="0"
         d="m 39.302282,29.293741 c 0.29823,0.21494 0.451374,0.478241 0.451374,0.787218 0,0.314349 -0.153144,0.577651 -0.451374,0.781844 l -15.575089,8.965684 c -0.137024,0.08598 -0.282108,0.128964 -0.43794,0.128964 -0.155831,0 -0.303603,-0.04299 -0.448687,-0.128964 -0.300916,-0.171952 -0.451374,-0.427193 -0.451374,-0.771097 l 0,-17.955549 c 0,-0.335844 0.150458,-0.593772 0.451374,-0.771098 0.31435,-0.198819 0.612579,-0.198819 0.886627,0 l 15.575089,8.962998 z"
         style="fill:#ffffff;fill-opacity:1;fill-rule:nonzero;stroke:none;display:inline;"
         id="path2936" />
    </g>
  </g>
</svg>
