<?xml version="1.0" encoding="UTF-8" standalone="no"?>
<!-- Created with Inkscape (http://www.inkscape.org/) -->

<svg
   xmlns:dc="http://purl.org/dc/elements/1.1/"
   xmlns:cc="http://creativecommons.org/ns#"
   xmlns:rdf="http://www.w3.org/1999/02/22-rdf-syntax-ns#"
   xmlns:svg="http://www.w3.org/2000/svg"
   xmlns="http://www.w3.org/2000/svg"
   xmlns:xlink="http://www.w3.org/1999/xlink"
   xmlns:sodipodi="http://sodipodi.sourceforge.net/DTD/sodipodi-0.dtd"
   xmlns:inkscape="http://www.inkscape.org/namespaces/inkscape"
   width="60"
   height="60"
   id="svg2"
   version="1.1"
   inkscape:version="0.48.3.1 r9886"
   sodipodi:docname="icon.svg"
   inkscape:export-filename="/home/emilis/work/somaplayer/static/img/icons/60.png"
   inkscape:export-xdpi="90"
   inkscape:export-ydpi="90">
  <defs
     id="defs4">
    <linearGradient
       id="linearGradient5664"
       inkscape:collect="always">
      <stop
         id="stop5666"
         offset="0"
         style="stop-color:#e7e7e7;stop-opacity:1" />
      <stop
         id="stop5668"
         offset="1"
         style="stop-color:#ffffff;stop-opacity:1" />
    </linearGradient>
    <linearGradient
       inkscape:collect="always"
       id="linearGradient4975">
      <stop
         style="stop-color:#e7e7e7;stop-opacity:1"
         offset="0"
         id="stop4977" />
      <stop
         style="stop-color:#ffffff;stop-opacity:1"
         offset="1"
         id="stop4979" />
    </linearGradient>
    <linearGradient
       id="linearGradient3915">
      <stop
         style="stop-color:#888888;stop-opacity:1;"
         offset="0"
         id="stop3917" />
      <stop
         style="stop-color:#dddddd;stop-opacity:1;"
         offset="1"
         id="stop3919" />
    </linearGradient>
    <linearGradient
       inkscape:collect="always"
       id="linearGradient3969">
      <stop
         style="stop-color:#ffffff;stop-opacity:0.50196081"
         offset="0"
         id="stop3971" />
      <stop
         style="stop-color:#ffffff;stop-opacity:0"
         offset="1"
         id="stop3973" />
    </linearGradient>
    <linearGradient
       id="linearGradient3957">
      <stop
         style="stop-color:#132b4d;stop-opacity:1"
         offset="0"
         id="stop3959" />
      <stop
         style="stop-color:#3465a4;stop-opacity:1"
         offset="1"
         id="stop3961" />
    </linearGradient>
    <linearGradient
       inkscape:collect="always"
       id="linearGradient4007">
      <stop
         style="stop-color:#ff8a19;stop-opacity:1"
         offset="0"
         id="stop4009" />
      <stop
         style="stop-color:#fce94f;stop-opacity:1"
         offset="1"
         id="stop4011" />
    </linearGradient>
    <linearGradient
       id="linearGradient4400">
      <stop
         style="stop-color:#f3f3f3;stop-opacity:1;"
         offset="0"
         id="stop4402" />
      <stop
         style="stop-color:#ffffff;stop-opacity:1;"
         offset="1"
         id="stop4404" />
    </linearGradient>
    <linearGradient
       id="linearGradient4448"
       inkscape:collect="always">
      <stop
         id="stop4450"
         offset="0"
         style="stop-color:#ffffff;stop-opacity:1;" />
      <stop
         id="stop4452"
         offset="1"
         style="stop-color:#ffffff;stop-opacity:0;" />
    </linearGradient>
    <linearGradient
       inkscape:collect="always"
       xlink:href="#linearGradient3957"
       id="linearGradient3258"
       gradientUnits="userSpaceOnUse"
       x1="194.68881"
       y1="31.85433"
       x2="194.68881"
       y2="74.711746" />
    <radialGradient
       inkscape:collect="always"
       xlink:href="#linearGradient3969"
       id="radialGradient3260"
       gradientUnits="userSpaceOnUse"
       gradientTransform="matrix(0.162441,2.106734,-1.690916,0.262658,228.2627,-371.4298)"
       cx="180.72482"
       cy="38.594139"
       fx="180.72482"
       fy="38.594139"
       r="28.884468" />
    <linearGradient
       inkscape:collect="always"
       xlink:href="#linearGradient4448"
       id="linearGradient3262"
       gradientUnits="userSpaceOnUse"
       x1="181.99649"
       y1="36.387283"
       x2="183.27852"
       y2="53.875359" />
    <linearGradient
       inkscape:collect="always"
       xlink:href="#linearGradient4400"
       id="linearGradient4406"
       x1="1.0953961"
       y1="1035.1596"
       x2="24.964859"
       y2="1035.1596"
       gradientUnits="userSpaceOnUse" />
    <linearGradient
       inkscape:collect="always"
       xlink:href="#linearGradient4400"
       id="linearGradient4410"
       gradientUnits="userSpaceOnUse"
       x1="1.0953961"
       y1="1035.1596"
       x2="24.964859"
       y2="1035.1596"
       gradientTransform="matrix(-1,0,0,1,59.691814,0)" />
    <linearGradient
       inkscape:collect="always"
       xlink:href="#linearGradient4007"
       id="linearGradient4013"
       x1="29.861986"
       y1="1025.1852"
       x2="29.861986"
       y2="1009.4808"
       gradientUnits="userSpaceOnUse" />
    <filter
       id="filter3167"
       style="color-interpolation-filters:sRGB;"
       inkscape:label="Drop Shadow">
      <feFlood
         id="feFlood3169"
         flood-opacity="1"
         flood-color="rgb(0,0,0)"
         result="flood" />
      <feComposite
         id="feComposite3171"
         in2="SourceGraphic"
         in="flood"
         operator="in"
         result="composite1" />
      <feGaussianBlur
         id="feGaussianBlur3173"
         in="composite"
         stdDeviation="0.5"
         result="blur" />
      <feOffset
         id="feOffset3175"
         dx="0.5"
         dy="0.5"
         result="offset" />
      <feComposite
         id="feComposite3177"
         in2="offset"
         in="SourceGraphic"
         operator="over"
         result="composite2" />
    </filter>
    <linearGradient
       inkscape:collect="always"
       id="linearGradient3838-4">
      <stop
         style="stop-color:#000000;stop-opacity:0.502"
         offset="0"
         id="stop3840-3" />
      <stop
         style="stop-color:#000000;stop-opacity:0.051"
         offset="1"
         id="stop3842-8" />
    </linearGradient>
    <linearGradient
       y2="24"
       x2="50.044643"
       y1="70.089287"
       x1="50.044643"
       gradientTransform="matrix(1.3669121,0,0,1.3669121,-15.406627,-21.80589)"
       gradientUnits="userSpaceOnUse"
       id="linearGradient4842"
       xlink:href="#linearGradient3838-4"
       inkscape:collect="always" />
    <radialGradient
       inkscape:collect="always"
       xlink:href="#linearGradient3915"
       id="radialGradient3921"
       cx="-22.447693"
       cy="34.588718"
       fx="-22.447693"
       fy="34.588718"
       r="1.2626907"
       gradientTransform="matrix(1.3615437,0.14667432,-0.27795677,2.6044543,17.72999,-52.146477)"
       gradientUnits="userSpaceOnUse" />
    <radialGradient
       inkscape:collect="always"
       xlink:href="#linearGradient3915"
       id="radialGradient3929"
       cx="-22.741371"
       cy="34.496517"
       fx="-22.741371"
       fy="34.496517"
       r="1.2626907"
       gradientTransform="matrix(1.8363659,0.40245553,-0.80203078,3.8446017,46.885468,-88.871874)"
       gradientUnits="userSpaceOnUse" />
    <radialGradient
       inkscape:collect="always"
       xlink:href="#linearGradient3915"
       id="radialGradient3937"
       cx="-22.43605"
       cy="34.565014"
       fx="-22.43605"
       fy="34.565014"
       r="1.2626907"
       gradientTransform="matrix(1.2587413,0.21159733,-0.51205879,3.0194899,23.526813,-64.831129)"
       gradientUnits="userSpaceOnUse" />
    <radialGradient
       inkscape:collect="always"
       xlink:href="#linearGradient3915"
       id="radialGradient3947"
       gradientUnits="userSpaceOnUse"
       gradientTransform="matrix(1.8363659,0.40245553,-0.80203078,3.8446017,46.885468,-88.871874)"
       cx="-22.741371"
       cy="34.496517"
       fx="-22.741371"
       fy="34.496517"
       r="1.2626907" />
    <radialGradient
       inkscape:collect="always"
       xlink:href="#linearGradient3915"
       id="radialGradient3949"
       gradientUnits="userSpaceOnUse"
       gradientTransform="matrix(1.3615437,0.14667432,-0.27795677,2.6044543,17.72999,-52.146477)"
       cx="-22.447693"
       cy="34.588718"
       fx="-22.447693"
       fy="34.588718"
       r="1.2626907" />
    <radialGradient
       inkscape:collect="always"
       xlink:href="#linearGradient3915"
       id="radialGradient3951"
       gradientUnits="userSpaceOnUse"
       gradientTransform="matrix(1.2587413,0.21159733,-0.51205879,3.0194899,23.526813,-64.831129)"
       cx="-22.43605"
       cy="34.565014"
       fx="-22.43605"
       fy="34.565014"
       r="1.2626907" />
    <linearGradient
       inkscape:collect="always"
       xlink:href="#linearGradient5664"
       id="linearGradient4981"
       x1="7.7024131"
       y1="43.782436"
       x2="10.354065"
       y2="35.890617"
       gradientUnits="userSpaceOnUse" />
    <linearGradient
       inkscape:collect="always"
       xlink:href="#linearGradient4975"
       id="linearGradient4985"
       gradientUnits="userSpaceOnUse"
       x1="7.7024131"
       y1="43.782436"
       x2="10.354065"
       y2="35.890617"
       gradientTransform="matrix(-1,0,0,1,59.689598,0)" />
  </defs>
  <sodipodi:namedview
     id="base"
     pagecolor="#000000"
     bordercolor="#666666"
     borderopacity="1.0"
     inkscape:pageopacity="0"
     inkscape:pageshadow="2"
     inkscape:zoom="2.8"
     inkscape:cx="-62.262399"
     inkscape:cy="26.066104"
     inkscape:document-units="px"
     inkscape:current-layer="layer3"
     showgrid="false"
     inkscape:window-width="1871"
     inkscape:window-height="1055"
     inkscape:window-x="49"
     inkscape:window-y="0"
     inkscape:window-maximized="1">
    <inkscape:grid
       type="xygrid"
       id="grid2985"
       empspacing="5"
       visible="true"
       enabled="true"
       snapvisiblegridlinesonly="true" />
  </sodipodi:namedview>
  <metadata
     id="metadata7">
    <rdf:RDF>
      <cc:Work
         rdf:about="">
        <dc:format>image/svg+xml</dc:format>
        <dc:type
           rdf:resource="http://purl.org/dc/dcmitype/StillImage" />
        <dc:title />
      </cc:Work>
    </rdf:RDF>
  </metadata>
  <g
     inkscape:label="Earth"
     inkscape:groupmode="layer"
     id="layer1"
     transform="translate(0,-992.36218)"
     style="display:inline">
    <g
       id="layer1-5"
       transform="matrix(0.171973,0,0,0.171973,159.09726,953.05952)" />
    <path
       transform="matrix(1.0039998,0,0,1.0039694,-164.33766,965.6531)"
       d="m 222.44791,56.485737 a 28.884468,28.884468 0 1 1 -57.76893,0 28.884468,28.884468 0 1 1 57.76893,0 z"
       sodipodi:ry="28.884468"
       sodipodi:rx="28.884468"
       sodipodi:cy="56.485737"
       sodipodi:cx="193.56345"
       id="path3523"
       style="fill:url(#linearGradient3258);fill-opacity:1;stroke:none;display:inline"
       sodipodi:type="arc" />
    <path
       inkscape:connector-curvature="0"
       style="opacity:0.78365383;fill:#4584c7;fill-opacity:1;display:inline"
       id="path3525"
       d="m 27.427241,1050.5645 c -1.776301,-0.2006 -3.868466,-0.6119 -3.973017,-0.7811 -0.06342,-0.1026 0.225672,-0.2528 0.642441,-0.3336 0.996844,-0.1935 1.013991,-0.1935 2.538437,-0.01 0.866865,0.106 1.366931,0.073 1.471954,-0.097 0.112096,-0.1814 0.432949,-0.1478 1.086605,0.1137 0.831711,0.3328 1.481884,0.3483 2.56058,0.061 0.205041,-0.055 0.322566,0.04 0.282797,0.2277 -0.04783,0.2257 0.0564,0.2685 0.350842,0.1442 0.230378,-0.097 0.734627,-0.1598 1.120549,-0.1389 l 0.701673,0.038 -0.563672,-0.397 -0.563673,-0.397 0.535351,-0.198 c 0.341544,-0.1264 0.653384,-0.1001 0.861401,0.072 0.418476,0.3474 3.29608,0.1 4.451683,-0.3832 0.457872,-0.1914 1.161713,-0.3517 1.564082,-0.3562 0.402373,0 0.994712,-0.1587 1.316313,-0.3425 0.650049,-0.3717 1.169465,-0.4467 1.169465,-0.169 0,0.2108 -2.293107,1.2322 -4.327001,1.9273 -2.762052,0.944 -7.815114,1.4013 -11.22681,1.016 z m 6.247438,-3.7534 c -0.840247,-0.3452 -1.309779,-1.18 -0.929299,-1.6522 0.166186,-0.2062 0.141021,-0.2934 -0.08541,-0.2959 -0.225573,0 -0.240903,-0.055 -0.05157,-0.1754 0.148189,-0.094 0.340789,-0.6981 0.428002,-1.3413 0.08721,-0.6432 0.296033,-1.6431 0.46405,-2.222 0.168012,-0.5789 0.303864,-1.263 0.301884,-1.5203 -0.0038,-0.4955 0.201076,-2.0559 0.440107,-3.3516 0.191527,-1.0383 -0.269883,-1.8437 -1.381008,-2.4105 -0.492853,-0.2514 -0.953359,-0.6366 -1.023343,-0.8559 -0.34768,-1.0895 -1.156362,-2.7204 -1.800806,-3.6318 -0.62911,-0.8897 -0.199636,-2.7909 0.840165,-3.7192 0.627474,-0.5602 0.734696,-0.8052 0.671934,-1.535 -0.04107,-0.4776 -0.159613,-0.921 -0.263419,-0.9854 -0.103802,-0.064 -0.198786,-0.2222 -0.211069,-0.3508 -0.01228,-0.1286 -0.153899,-0.2339 -0.314698,-0.2339 -0.160803,0 -0.266994,0.1288 -0.235983,0.2861 0.07314,0.3711 -1.329057,0.1119 -1.767761,-0.3268 -0.170565,-0.1706 -0.407848,-0.3101 -0.527302,-0.3101 -0.11945,0 -0.217183,-0.1396 -0.217183,-0.3101 0,-0.5011 -0.987614,-1.2634 -1.871135,-1.4441 -0.450245,-0.092 -1.049317,-0.3792 -1.331278,-0.638 -0.343669,-0.3154 -0.903598,-0.4916 -1.698675,-0.5345 -1.21861,-0.066 -2.471883,-0.6623 -2.226265,-1.0598 0.07617,-0.1232 -0.176742,-0.2236 -0.563473,-0.2236 -0.876294,0 -1.146527,-0.3921 -0.577285,-0.8375 0.238004,-0.1863 0.318113,-0.3109 0.178023,-0.2769 -0.212323,0.052 -1.111324,-0.8614 -1.781365,-1.8092 -0.09094,-0.1287 -0.485181,-0.6023 -0.876076,-1.0526 l -0.710722,-0.8185 0.36674,0.7601 c 0.201706,0.4181 0.460979,0.7601 0.576163,0.7601 0.11518,0 0.152919,0.1473 0.08386,0.3272 -0.06905,0.1799 -0.01312,0.3967 0.124288,0.4816 0.13741,0.085 0.249838,0.3224 0.249838,0.5277 0,0.3251 -0.06038,0.3186 -0.467784,-0.05 -0.257283,-0.2329 -0.467783,-0.5682 -0.467783,-0.7453 0,-0.1771 -0.161013,-0.3837 -0.35781,-0.4593 -0.218491,-0.084 -0.305854,-0.3009 -0.224373,-0.5577 0.07339,-0.2312 0.02389,-0.488 -0.109979,-0.5708 -0.133872,-0.083 -0.243406,-0.3394 -0.243406,-0.5703 0,-0.2309 -0.253558,-0.6934 -0.563464,-1.0278 -0.859637,-0.9275 -1.096112,-2.4255 -0.582718,-3.6913 0.471372,-1.1623 0.56256,-2.0841 0.206159,-2.0841 -0.134545,0 -0.17722,-0.2435 -0.098,-0.5592 0.0772,-0.3075 0.02658,-0.6295 -0.112486,-0.7155 -0.1399,-0.086 -0.252845,0.01 -0.252845,0.2084 0,0.2006 -0.109234,0.3647 -0.242743,0.3647 -0.133513,0 -0.222393,-0.2369 -0.197519,-0.5263 0.08583,-0.9987 -0.02893,-1.3449 -0.445853,-1.3449 -0.531122,0 -2.181014,0.834 -2.422307,1.2244 -0.100591,0.1628 -0.265673,0.2972 -0.366844,0.2987 -0.101172,0 -0.670504,0.3395 -1.2651869,0.751 -0.594679,0.4114 -1.1430345,0.6863 -1.218569,0.6107 -0.07553,-0.076 0.1997899,-0.3645 0.6118347,-0.6422 0.4120405,-0.2777 0.7851526,-0.7116 0.8291314,-0.9644 0.043985,-0.2528 0.4657168,-0.8014 0.9371848,-1.2192 0.471472,-0.4178 0.658671,-0.6904 0.415996,-0.6059 -0.671875,0.234 -0.354088,-0.4431 0.374843,-0.7987 0.330415,-0.1611 0.663682,-0.5295 0.740602,-0.8186 0.1849,-0.6948 1.800597,-1.8098 2.637641,-1.82016 0.365367,-0.004 1.295811,-0.1424 2.067655,-0.3064 0.771843,-0.164 1.791017,-0.27198 2.264837,-0.23996 0.708006,0.0479 0.855773,-0.0176 0.829413,-0.36747 -0.026,-0.3452 -0.109502,-0.37736 -0.441533,-0.17 -0.225205,0.14064 -0.481879,0.18331 -0.570377,0.0948 -0.223579,-0.22358 0.35541,-0.87389 0.77803,-0.87389 0.203637,0 0.294589,-0.13717 0.219944,-0.33169 -0.08385,-0.21851 0.166981,-0.46123 0.735123,-0.71135 0.474325,-0.20881 0.651899,-0.33171 0.394621,-0.27311 -0.617345,0.14062 -2.001332,0.62546 -2.511169,0.87971 -0.223374,0.1114 -0.618067,0.20254 -0.877094,0.20254 -0.259027,0 -0.470959,0.0928 -0.470959,0.20617 0,0.20325 -1.667143,0.87228 -2.806702,1.12635 -0.506394,0.11289 -0.475056,0.055 0.233894,-0.43232 2.532645,-1.74081 4.783996,-2.6993 8.25418,-3.51413 1.779157,-0.41777 2.886671,-0.50706 6.364063,-0.51312 4.195605,-0.007 7.343309,0.36948 6.652633,0.79635 -0.173367,0.10714 -0.403346,0.14034 -0.511058,0.0738 -0.107713,-0.0666 -1.288844,-0.15271 -2.624741,-0.19144 -2.038661,-0.0591 -2.408104,-0.0162 -2.299482,0.26686 0.07118,0.18549 0.261343,0.28664 0.422578,0.22477 0.401602,-0.15411 2.290529,0.83155 3.512473,1.83283 0.554133,0.45407 1.096044,0.82559 1.204251,0.82559 0.108208,0 0.333367,0.21877 0.500357,0.48616 0.265854,0.4257 0.246654,0.50105 -0.154421,0.60594 -0.602237,0.15748 -0.76657,1.10797 -0.380662,2.20177 0.169575,0.4806 0.257396,0.9248 0.195162,0.987 -0.213844,0.2139 -1.595983,-0.6271 -2.497247,-1.5194 -0.496255,-0.4913 -1.014799,-0.8237 -1.152319,-0.7387 -0.138073,0.085 -0.182647,0.045 -0.09954,-0.089 0.08278,-0.134 -0.011,-0.37757 -0.208393,-0.5414 -0.197401,-0.16382 -0.304796,-0.43887 -0.23866,-0.61122 0.06756,-0.17607 -0.03347,-0.31337 -0.230586,-0.31337 -0.192964,0 -0.411423,-0.15787 -0.485468,-0.35084 -0.07405,-0.19296 -0.246644,-0.35084 -0.383555,-0.35084 -0.136906,0 -0.419721,-0.15457 -0.628478,-0.34349 -0.279717,-0.25314 -0.561415,-0.28919 -1.070929,-0.13705 -0.380258,0.11355 -0.551558,0.21549 -0.380671,0.22655 0.504236,0.0326 2.178765,1.86538 2.106397,2.30546 -0.03658,0.2224 0.0028,0.5147 0.08764,0.6494 0.08478,0.1348 0.05887,0.398 -0.05759,0.5848 -0.179962,0.2887 -0.361929,0.2606 -1.2125,-0.1873 -0.550418,-0.2898 -1.178741,-0.5266 -1.396269,-0.5262 -0.529905,9e-4 -0.775441,-0.4364 -0.339077,-0.6038 0.191169,-0.0734 0.40768,-0.29002 0.481138,-0.48145 0.100227,-0.26119 0.01719,-0.31112 -0.332754,-0.20004 -0.343446,0.109 -0.466312,0.0412 -0.466312,-0.25758 0,-0.22307 -0.06926,-0.33633 -0.153899,-0.25168 -0.08465,0.0846 -0.268838,0.0585 -0.40931,-0.058 -0.176383,-0.14632 -0.25453,0.0408 -0.252549,0.60482 0.0019,0.534 0.145255,0.89633 0.414229,1.04693 0.22625,0.1266 0.362088,0.3099 0.301853,0.4074 -0.06023,0.097 0.174371,0.1359 0.521337,0.086 0.425436,-0.062 0.973565,0.1399 1.683364,0.6192 0.811394,0.548 1.069839,0.6323 1.128135,0.3679 0.11529,-0.5229 0.33413,-0.425 1.330434,0.5953 0.50394,0.5161 1.018665,0.9042 1.143834,0.8625 0.263891,-0.088 0.874313,0.4815 1.437536,1.3411 0.394062,0.6014 0.965888,0.858 0.686398,0.308 -0.08171,-0.1608 0.06995,-0.044 0.337032,0.2598 0.267085,0.3037 0.483991,0.7247 0.482024,0.9356 -0.0031,0.333 -0.03339,0.3372 -0.23031,0.033 -0.201539,-0.3118 -0.229179,-0.3118 -0.248775,0 -0.01514,0.2408 -0.05906,0.2591 -0.140022,0.058 -0.188593,-0.4674 -1.202289,-0.3657 -1.163988,0.1168 0.02057,0.2591 -0.160545,0.4367 -0.49377,0.4841 -0.289443,0.041 -0.526258,0.1866 -0.526258,0.3233 0,0.1548 -0.35254,0.2011 -0.935568,0.1229 -0.763921,-0.1025 -0.936521,-0.054 -0.940768,0.2616 -0.0028,0.2128 -0.211023,0.6502 -0.462583,0.9718 -0.251559,0.3215 -0.459721,0.7291 -0.462583,0.9057 -0.0044,0.2721 -0.06697,0.2721 -0.410473,0 -0.375978,-0.2978 -0.375274,-0.2741 0.0097,0.3288 0.457127,0.7158 0.378345,0.9522 -0.588219,1.7655 -0.659844,0.5552 -0.875037,1.5132 -0.405155,1.8037 0.343592,0.2123 0.720783,1.2678 0.551154,1.5423 -0.202802,0.3282 -0.817871,-0.2525 -1.176638,-1.1107 -0.221675,-0.5304 -0.506553,-0.7693 -1.045515,-0.8771 -1.149198,-0.2299 -1.617913,-0.1775 -1.617913,0.1807 0,0.2116 -0.163602,0.2862 -0.458454,0.2091 -0.529596,-0.1385 -1.952388,0.672 -2.465368,1.4043 -0.450555,0.6433 -0.444673,1.4142 0.01824,2.3898 0.4307,0.9075 0.779552,1.0867 1.741715,0.8942 0.481542,-0.096 0.745906,-0.3147 0.841418,-0.6952 0.0766,-0.3052 0.259422,-0.563 0.406276,-0.5728 0.146854,-0.01 0.450782,-0.053 0.675391,-0.096 0.610132,-0.1168 0.707951,0.2478 0.285605,1.0645 -0.207704,0.4017 -0.318169,0.7898 -0.245477,0.8624 0.07269,0.073 0.01137,0.2777 -0.136253,0.4556 -0.222279,0.2678 -0.116633,0.3067 0.614593,0.2262 1.448288,-0.1597 1.734569,0.01 1.720842,1.0014 -0.02317,1.6787 0.522124,2.3776 1.462361,1.8744 0.309997,-0.1659 0.592166,-0.1656 0.903249,0 0.60176,0.322 0.629654,0.3164 1.140895,-0.2324 0.243142,-0.261 0.641932,-0.515 0.88621,-0.5646 0.244273,-0.049 0.645589,-0.1696 0.891811,-0.2669 0.313931,-0.124 0.397155,-0.095 0.278564,0.097 -0.09302,0.1505 -0.05766,0.2737 0.07858,0.2737 0.136229,0 0.247693,-0.099 0.247693,-0.2201 0,-0.121 0.281894,-0.074 0.626434,0.105 0.344537,0.1788 0.729178,0.2615 0.85476,0.1839 0.125577,-0.078 0.160621,-0.031 0.07787,0.1023 -0.08275,0.1339 0.08518,0.3066 0.373172,0.3838 0.736013,0.1973 0.922635,0.18 0.76751,-0.071 -0.07401,-0.1197 -0.01134,-0.2939 0.139277,-0.387 0.171028,-0.1057 0.211187,-0.068 0.106959,0.1008 -0.155158,0.2511 0.170551,0.3626 0.971706,0.3329 0.160799,-0.01 0.294262,0.1616 0.296578,0.3724 0.0059,0.5367 1.599979,1.796 2.49772,1.9733 0.904873,0.1786 1.708117,0.8238 1.708117,1.3719 0,0.2211 0.11211,0.4713 0.249128,0.556 0.163015,0.1007 0.104516,0.3278 -0.169211,0.657 -0.23009,0.2767 -0.269752,0.3727 -0.08815,0.2134 0.267922,-0.235 0.610156,-0.1357 1.814512,0.5262 0.81637,0.4488 1.674878,0.8159 1.907791,0.8159 0.232919,0 0.607564,0.2034 0.832546,0.452 0.224987,0.2486 0.557054,0.3952 0.737926,0.3259 0.237877,-0.091 0.328863,0.069 0.328863,0.5814 0,0.4988 -0.30702,1.0673 -1.040648,1.9267 -0.572353,0.6705 -1.111916,1.5475 -1.199022,1.9487 -0.240195,1.1065 -1.289651,2.4422 -2.145798,2.7312 -0.41809,0.1412 -0.760155,0.4039 -0.760155,0.5839 0,0.1801 -0.289442,0.5134 -0.643197,0.7409 -0.353766,0.2274 -0.833023,0.6483 -1.065006,0.9352 -1.148642,1.4208 -2.400042,2.4173 -2.920675,2.3258 -0.403992,-0.071 -0.519054,0 -0.467798,0.3071 0.07287,0.4301 -0.430977,1.1747 -0.794873,1.1747 -0.121476,0 -0.792738,0.4938 -1.491695,1.0972 -0.84419,0.7288 -1.176861,1.1552 -0.99092,1.2701 0.196501,0.1215 0.109392,0.3172 -0.292328,0.6569 -0.536486,0.4537 -0.546666,0.5038 -0.162924,0.8022 0.225123,0.1751 0.40931,0.3734 0.40931,0.4406 0,0.2967 -0.883639,0.3058 -1.587938,0.016 z m -0.941019,-40.2287 c -0.168838,-0.067 -0.370568,-0.059 -0.448292,0.018 -0.07772,0.078 0.06042,0.133 0.306985,0.1228 0.272472,-0.011 0.327893,-0.067 0.141307,-0.1413 z m 1.5851,-1.0608 c 0.0046,-0.092 -0.149589,-0.1075 -0.342547,-0.033 -0.205014,0.079 -0.352327,0 -0.354421,-0.1828 -0.0029,-0.2586 -0.04219,-0.2564 -0.212045,0.012 -0.126436,0.1997 -0.107954,0.5499 0.04696,0.8899 l 0.25543,0.5606 0.299167,-0.5391 c 0.164542,-0.2965 0.302897,-0.6147 0.307453,-0.7071 z m -7.47625,0.6577 c 0,-0.047 -0.240581,-0.2426 -0.534625,-0.4352 -0.479571,-0.3143 -0.58434,-0.3101 -1.017488,0.04 -0.469623,0.3803 -0.454966,0.3923 0.534624,0.4353 0.559621,0.025 1.017489,0.01 1.017489,-0.04 z m -0.562528,-1.204 c -0.424418,-0.3103 -0.425445,-0.3327 -0.0223,-0.4874 0.232399,-0.089 0.817503,-0.057 1.300236,0.072 0.744584,0.1988 0.857275,0.1811 0.743071,-0.1165 -0.08714,-0.2271 -0.03877,-0.2916 0.137161,-0.1829 0.149484,0.092 0.45681,0.06 0.68295,-0.071 0.373435,-0.2175 0.365558,-0.2401 -0.08585,-0.2466 -0.380984,-0.01 -0.497023,-0.153 -0.497023,-0.6321 0,-0.3437 -0.197341,-0.7692 -0.438544,-0.9456 -0.241203,-0.1764 -0.412236,-0.3688 -0.380076,-0.4275 0.161903,-0.296 0.02009,-0.5747 -0.292363,-0.5747 -0.192963,0 -0.350837,-0.114 -0.350837,-0.2534 0,-0.1393 -0.131564,-0.2062 -0.292368,-0.1485 -0.160798,0.058 -0.479089,0.01 -0.70731,-0.1087 -0.322179,-0.1658 -0.549182,-0.054 -1.015358,0.5 -0.330228,0.3924 -0.685044,0.6612 -0.788482,0.5973 -0.103434,-0.064 -0.24793,0.04 -0.321098,0.2305 -0.07317,0.1906 -0.05789,0.3233 0.03396,0.2948 0.09185,-0.029 0.461125,0.2453 0.820606,0.6085 0.408951,0.4133 0.79337,0.6069 1.026991,0.5172 0.482383,-0.1851 1.290143,0.07 1.115698,0.3519 -0.07378,0.1194 -0.292017,0.2171 -0.48498,0.2171 -0.205637,0 -0.281766,-0.1118 -0.183951,-0.27 0.104228,-0.1687 0.06407,-0.2065 -0.106954,-0.1008 -0.150615,0.093 -0.213295,0.2672 -0.139282,0.387 0.07401,0.1197 0.0231,0.2177 -0.113132,0.2177 -0.136233,0 -0.247693,-0.1053 -0.247693,-0.2339 0,-0.4115 -0.876795,-0.25 -0.989854,0.1823 -0.128543,0.4916 0.416201,1.1138 0.64747,0.7396 0.103788,-0.168 0.240613,-0.1679 0.443196,3e-4 0.161185,0.1338 0.362315,0.174 0.446962,0.089 0.08464,-0.085 0.153899,-0.013 0.153899,0.158 0,0.1715 0.07877,0.233 0.175053,0.1368 0.09627,-0.096 -0.02513,-0.3214 -0.269797,-0.5004 z m 1.731989,-1.2599 c 0,-0.121 0.104047,-0.2844 0.231214,-0.363 0.132582,-0.082 0.171792,0.012 0.09192,0.2201 -0.155489,0.4052 -0.323133,0.4793 -0.323133,0.1429 z m -2.937417,-0.5911 c -0.249711,-0.1888 -0.331059,-0.3467 -0.180781,-0.3508 0.444346,-0.012 1.013169,0.2604 1.013169,0.4854 0,0.3065 -0.316987,0.2553 -0.832388,-0.1346 z m 7.849144,2.2812 c 0,-0.027 -0.199449,-0.1569 -0.443223,-0.2874 -0.316002,-0.1691 -0.511699,-0.1547 -0.681787,0.05 -0.179395,0.2161 -0.06947,0.2874 0.443223,0.2874 0.374984,0 0.681787,-0.023 0.681787,-0.05 z m -3.508375,-0.5344 c 0,-0.1286 -0.164092,-0.2339 -0.364646,-0.2339 -0.200553,0 -0.29959,0.1053 -0.220085,0.2339 0.0795,0.1286 0.243592,0.2339 0.36464,0.2339 0.121049,0 0.220091,-0.1053 0.220091,-0.2339 z m 0.81862,0 c -0.0795,-0.1286 -0.190969,-0.2339 -0.247698,-0.2339 -0.05673,0 -0.103139,0.1053 -0.103139,0.2339 0,0.1286 0.11146,0.2339 0.247694,0.2339 0.136234,0 0.182647,-0.1053 0.103143,-0.2339 z m -7.601487,-1.1773 c -0.296728,-0.1983 -0.251641,-0.3223 0.292368,-0.8038 0.353757,-0.3131 0.6432,-0.6997 0.6432,-0.8591 0,-0.1594 -0.149271,-0.086 -0.331714,0.1638 -0.182443,0.2495 -0.410487,0.3749 -0.506766,0.2786 -0.09628,-0.096 -0.05226,-0.175 0.09782,-0.175 0.150084,0 0.272877,-0.1579 0.272877,-0.3509 0,-0.4539 -0.442529,-0.4549 -0.616578,0 -0.07376,0.1922 -0.230055,0.2902 -0.347316,0.2177 -0.117256,-0.072 -0.152641,-0.2297 -0.07863,-0.3495 0.07401,-0.1197 0.02931,-0.2177 -0.09933,-0.2177 -0.128639,0 -0.299999,0.107 -0.380802,0.2377 -0.0808,0.1307 -0.256129,0.1702 -0.38961,0.088 -0.156484,-0.097 -0.12997,-0.2214 0.07464,-0.3511 0.258386,-0.1637 0.252168,-0.2002 -0.0335,-0.1963 -0.444073,0.01 -1.627643,0.6703 -1.214127,0.6815 0.168394,0 0.247181,0.1037 0.175094,0.2203 -0.07209,0.1167 0.105891,0.1627 0.395506,0.1023 l 0.526579,-0.1098 -0.539075,0.3222 -0.539071,0.3221 0.649763,0.296 c 0.468715,0.2136 0.674133,0.223 0.737236,0.034 0.06313,-0.1895 0.181852,-0.1842 0.426639,0.019 0.273349,0.2268 0.28028,0.3188 0.03573,0.474 -0.197642,0.1253 -0.05879,0.1924 0.39824,0.1924 0.546371,0 0.624027,-0.052 0.350837,-0.2345 z m -0.886315,-0.8354 c -0.334207,-0.3615 -0.108517,-0.4307 0.385027,-0.118 0.174535,0.1106 0.227162,0.2558 0.116947,0.3227 -0.110216,0.067 -0.336101,-0.025 -0.501974,-0.2047 z m 9.181449,-0.057 c -0.131791,-0.1387 -0.5767,0.2129 -0.5767,0.4558 0,0.1261 0.147258,0.094 0.327244,-0.072 0.17999,-0.1659 0.29224,-0.3385 0.249456,-0.3835 z m -6.657889,0.3408 c 0,-0.05 -0.163347,-0.1546 -0.362987,-0.2312 -0.208144,-0.08 -0.302029,-0.041 -0.22009,0.092 0.137356,0.2223 0.583077,0.3287 0.583077,0.1393 z m -3.558545,-2.3732 c 0.202138,-0.176 0.0864,-0.2386 -0.419127,-0.2265 -0.384105,0.01 -0.882972,0.2204 -1.108585,0.4693 -0.401825,0.4433 -0.399926,0.444 0.09283,0.036 0.523177,-0.4334 0.949903,-0.1927 0.662881,0.3739 -0.08145,0.1608 -0.0039,0.1345 0.172323,-0.058 0.176229,-0.1929 0.446085,-0.4602 0.599676,-0.594 z m 1.9213,0.3463 c 0,-0.1362 -0.10525,-0.1826 -0.23389,-0.1031 -0.128643,0.08 -0.233894,0.1909 -0.233894,0.2477 0,0.057 0.105251,0.1031 0.233894,0.1031 0.12864,0 0.23389,-0.1115 0.23389,-0.2477 z m -1.232382,-1.78552 c -0.227571,-0.0593 -0.543323,-0.0554 -0.701678,0.009 -0.15835,0.0641 0.02784,0.11259 0.413761,0.10783 0.385922,-0.005 0.515488,-0.0572 0.287917,-0.11649 z m 1.823299,-0.26052 c -0.07201,-0.072 -0.260739,-1.5e-4 -0.419398,0.15969 -0.229275,0.231 -0.202407,0.25786 0.130933,0.13093 0.230669,-0.0878 0.36048,-0.21861 0.288465,-0.29062 z m 2.683569,-0.29287 c 0,-0.12105 -0.08771,-0.22009 -0.194907,-0.22009 -0.107204,0 -0.194912,0.15325 -0.194912,0.34054 0,0.18731 0.08771,0.28635 0.194912,0.2201 0.107199,-0.0663 0.194907,-0.2195 0.194907,-0.34055 z m -0.938152,-0.45881 c -0.139118,-0.25994 -0.175244,-0.60201 -0.08028,-0.76016 0.108662,-0.18095 0.02379,-0.16672 -0.228975,0.0384 -0.376342,0.30538 -0.376887,0.35325 -0.0086,0.76015 0.51214,0.5659 0.633462,0.55127 0.317905,-0.0384 z m -1.186363,0.15468 c -0.0536,-0.0462 -0.413213,-0.15467 -0.799134,-0.241 -0.512435,-0.11463 -0.607057,-0.0929 -0.350837,0.0805 0.315842,0.21373 1.384673,0.36294 1.149971,0.16054 z m -2.085539,-0.63902 c 0.311855,-0.22055 0.311855,-0.23666 0,-0.14497 -0.192958,0.0567 -0.561342,-0.005 -0.81862,-0.13744 -0.418168,-0.21506 -0.433739,-0.1993 -0.146781,0.14855 0.373793,0.45313 0.490977,0.46938 0.965401,0.13386 z m 1.169462,-0.32211 c 0,-0.21732 -0.136079,-0.29128 -0.37045,-0.20135 -0.298264,0.11446 -0.309656,0.18069 -0.05847,0.33992 0.41542,0.26333 0.428924,0.25897 0.428924,-0.13857 z m 6.174743,-0.12429 c 0.918892,0 -0.0216,-0.5128 -1.035431,-0.56457 -0.611204,-0.0312 -1.099274,-0.2011 -1.277356,-0.44464 -0.4168,-0.57001 -0.58747,-0.48702 -0.58747,0.28564 0,0.55734 0.08163,0.65843 0.453212,0.56126 0.249265,-0.0652 0.692298,0.0489 0.984511,0.25362 0.350887,0.24577 0.609991,0.29345 0.763027,0.14041 0.127449,-0.12745 0.442229,-0.23172 0.699507,-0.23172 z m -5.239176,0 c 0,-0.12864 -0.111464,-0.23389 -0.247698,-0.23389 -0.136233,0 -0.182647,0.10525 -0.103143,0.23389 0.07951,0.12864 0.19097,0.23389 0.247698,0.23389 0.05673,0 0.103143,-0.10525 0.103143,-0.23389 z m 6.358935,-2.2648 c -0.168839,-0.0676 -0.370573,-0.0593 -0.448292,0.0184 -0.07773,0.0777 0.06042,0.133 0.30698,0.12285 0.272472,-0.0112 0.327893,-0.0667 0.141312,-0.14131 z m 6.199617,51.23256 c -0.249411,-0.2495 0.06958,-0.5521 0.581833,-0.5521 0.402478,0 0.434265,0.058 0.19145,0.3508 -0.314412,0.3788 -0.537613,0.4369 -0.773283,0.2013 z m -25.071775,-5.6895 c -0.643199,-0.7497 -1.2119,-1.3228 -1.263774,-1.2735 -0.051869,0.049 -0.3439456,-0.2489 -0.6490595,-0.6624 -0.5673337,-0.769 -1.3555249,-1.3238 -1.9017139,-1.3386 -0.1683888,0 -0.2437239,0.093 -0.1674077,0.2163 0.082893,0.1341 -0.1440287,0.1259 -0.5636045,-0.02 -0.5480741,-0.191 -0.8641985,-0.5871 -1.4390497,-1.8032 -1.1846781,-2.5062 -1.1988367,-2.5679 -0.6557548,-2.8586 0.2728357,-0.146 0.4236052,-0.3992 0.3507642,-0.589 -0.070256,-0.183 -0.025794,-0.3328 0.098805,-0.3328 0.1246057,0 0.2265537,-0.1646 0.2265537,-0.3656 0,-0.2448 0.1737808,-0.3414 0.5262576,-0.2924 0.3650631,0.051 0.5271703,-0.047 0.529237,-0.3196 0.00164,-0.216 0.080581,-0.4704 0.1754207,-0.5652 0.094839,-0.095 0.172436,-0.058 0.172436,0.082 0,0.1399 0.3157563,0.3237 0.7016778,0.4084 0.385922,0.085 0.7016735,0.2868 0.7016735,0.4488 0,0.1621 0.2894422,0.4398 0.6432041,0.6172 0.3537624,0.1773 0.7012148,0.3538 0.7721206,0.3923 0.070906,0.039 0.0857,-0.3002 0.032887,-0.7526 -0.1176741,-1.008 0.3233553,-1.1067 0.5398709,-0.1209 0.08476,0.3859 0.242838,0.7016 0.351282,0.7016 0.108444,0 0.326135,0.3947 0.483759,0.8771 0.157623,0.4824 0.507851,1.104 0.778284,1.3814 0.70459,0.7225 1.07643,1.2051 1.07643,1.397 0,0.092 0.165841,0.3501 0.368534,0.5741 0.492389,0.5441 0.608909,2.2975 0.192218,2.8924 -0.179772,0.2566 -0.326858,0.6517 -0.326858,0.8779 0,0.2458 -0.239989,0.4716 -0.596395,0.561 -0.589251,0.1479 -0.590654,0.1537 -0.116943,0.4855 0.468115,0.3279 0.653893,0.793 0.304023,0.7611 -0.09648,-0.01 -0.701673,-0.6294 -1.344877,-1.3791 z m 1.834901,-3.6437 c -0.07617,-0.1985 -0.188661,-0.3107 -0.249969,-0.2494 -0.06131,0.061 -0.0421,0.2237 0.04269,0.3609 0.230632,0.3732 0.365431,0.3007 0.207275,-0.1115 z m 2.154368,4.5922 c -0.139141,-0.2251 1.65447,-1.1881 2.224238,-1.1942 0.281071,0 0.278582,-0.041 -0.01537,-0.2303 -0.276356,-0.1786 -0.282565,-0.2275 -0.02923,-0.2304 0.232232,0 0.282602,-0.1985 0.181267,-0.7052 -0.07916,-0.3958 -0.04093,-0.7017 0.08771,-0.7017 0.125423,0 0.228043,0.1053 0.228043,0.2339 0,0.1286 0.220149,0.454 0.48922,0.7231 l 0.489223,0.4892 -0.547697,0.3862 c -0.30123,0.2124 -0.600316,0.3871 -0.664635,0.3882 -0.06432,0 -0.448951,0.2388 -0.854728,0.528 -0.775663,0.5529 -1.36773,0.6697 -1.588033,0.3132 z m 2.255644,-5.6814 c -0.154367,-0.1543 -0.280667,-0.3648 -0.280667,-0.4678 0,-0.3446 0.352277,-0.1919 0.647393,0.2807 0.319835,0.5121 0.08045,0.6343 -0.366726,0.1871 z m 36.790422,-0.2455 c 0.09389,-0.2895 0.266639,-1.6841 0.383877,-3.0991 0.126137,-1.5232 0.362202,-2.8402 0.578602,-3.2282 0.307743,-0.5518 0.321871,-0.8372 0.08953,-1.8059 -0.153488,-0.6398 -0.205318,-1.5689 -0.116785,-2.0929 0.143673,-0.8505 0.111556,-0.9423 -0.329185,-0.9423 -0.278127,0 -0.488301,-0.151 -0.488301,-0.3508 0,-0.4422 -0.449237,-0.4385 -1.040239,0.01 -0.250559,0.1895 -0.641289,0.2856 -0.868271,0.2135 -0.227025,-0.072 -0.615986,-0.022 -0.864362,0.1107 -0.586732,0.314 -1.593949,-0.4418 -2.053045,-1.5405 -0.178877,-0.4281 -0.455554,-0.7526 -0.614853,-0.7209 -0.206946,0.041 -0.289601,-0.3865 -0.289601,-1.4987 0,-0.856 0.08284,-1.5052 0.184039,-1.4427 0.101201,0.062 0.161935,-0.2371 0.134907,-0.6657 -0.02698,-0.4286 0.152125,-1.1476 0.398044,-1.5979 0.245968,-0.4503 0.448514,-0.9765 0.450148,-1.1694 0.0014,-0.193 0.108063,-0.3361 0.236518,-0.3181 0.321919,0.045 1.577917,-0.8715 1.415986,-1.0334 -0.072,-0.072 0.04351,-0.3236 0.256684,-0.5592 0.213172,-0.2356 0.305791,-0.4283 0.205771,-0.4283 -0.100026,0 -0.03739,-0.1842 0.139176,-0.4093 0.290935,-0.3709 0.282672,-0.3792 -0.0883,-0.088 -0.225122,0.1766 -0.422484,0.2555 -0.438564,0.1754 -0.01609,-0.08 -0.04476,-0.2771 -0.06373,-0.4379 -0.01894,-0.1608 -0.231386,-0.258 -0.472039,-0.216 -0.387872,0.068 -0.418166,-0.025 -0.266408,-0.8186 0.09416,-0.4923 0.162162,-1.1424 0.15117,-1.4447 -0.03127,-0.8564 0.182872,-0.9979 0.92741,-0.6129 0.640923,0.3314 0.688391,0.3264 0.688391,-0.072 0,-0.2356 -0.263093,-0.785 -0.584737,-1.2209 -0.695932,-0.9433 -0.698929,-0.9568 -0.175379,-0.7922 0.370336,0.1165 0.3737,0.099 0.03522,-0.1827 -0.405677,-0.3378 -0.431157,-0.402 -0.471721,-1.1886 -0.02038,-0.396 -0.0536,-0.425 -0.134088,-0.117 -0.05883,0.2252 -0.244835,0.4094 -0.413357,0.4094 -0.429886,0 -0.636832,-0.9342 -0.240653,-1.0862 0.174883,-0.067 0.260231,-0.2724 0.189691,-0.4561 -0.09312,-0.2427 -0.01388,-0.2903 0.289301,-0.174 0.327364,0.1256 0.384055,0.073 0.262592,-0.2434 -0.09762,-0.2543 -0.06346,-0.347 0.0923,-0.2508 0.135905,0.084 0.187917,0.3071 0.115556,0.4957 -0.0724,0.1886 0.128142,0.8082 0.445603,1.3768 0.317419,0.5687 0.524095,1.2194 0.459231,1.4461 -0.067,0.2342 -0.0014,0.1917 0.151942,-0.098 0.223117,-0.4221 0.179195,-0.6574 -0.253326,-1.3572 -0.287759,-0.4656 -0.47772,-0.8921 -0.422122,-0.9477 0.137818,-0.1378 1.501883,1.82 1.697476,2.4364 0.08658,0.2728 0.234066,0.496 0.327682,0.496 0.358074,0 2.838825,5.522 2.838825,6.3191 0,0.2049 -0.169747,0.1359 -0.476901,-0.1938 -0.428387,-0.4599 -0.926456,-0.6794 -0.926456,-0.4083 0,0.161 0.97097,1.7676 1.068268,1.7676 0.04761,0 0.02029,-0.1726 -0.06064,-0.3835 -0.120736,-0.3147 -0.07004,-0.3403 0.282714,-0.1429 0.236427,0.1323 0.450552,0.4364 0.475855,0.6758 0.0253,0.2394 0.112742,0.751 0.194321,1.1369 0.08158,0.386 0.302476,1.7786 0.490938,3.0948 0.370337,2.5867 0.188462,5.9224 -0.484259,8.8818 -0.18147,0.7983 -0.330549,1.7982 -0.331277,2.222 -0.0024,1.29 -0.458093,2.5663 -0.964017,2.6986 -0.253417,0.066 -0.72055,0.6332 -1.03806,1.2597 -0.600137,1.1844 -0.983417,1.5262 -0.687123,0.613 z m 1.563928,-22.4459 c -0.167795,-0.1678 -0.276764,-0.1817 -0.276764,-0.035 0,0.3122 0.276629,0.5888 0.432704,0.4327 0.06645,-0.067 -0.0039,-0.2454 -0.15594,-0.3976 z m -0.616121,-0.01 c -0.195594,-0.8918 -0.99568,-2.276 -1.316823,-2.2781 -0.427843,0 -1.019938,0.9742 -0.867543,1.4314 0.05692,0.1706 0.305974,0.3209 0.55344,0.3339 1.215574,0.063 1.500331,0.1174 1.474807,0.2789 -0.04274,0.2708 0.0174,0.5263 0.123959,0.5263 0.05292,0 0.06741,-0.1316 0.03214,-0.2924 z m -32.87327,21.4401 c 0,-0.2037 0.124983,-0.3287 0.277746,-0.2777 0.433684,0.1445 0.505617,0.648 0.09258,0.648 -0.203683,0 -0.370328,-0.1666 -0.370328,-0.3703 z m 0.820978,-0.3275 c -0.0808,-0.1307 0.01717,-0.2377 0.217728,-0.2377 0.410841,0 0.471332,0.1403 0.146913,0.3408 -0.119754,0.074 -0.283837,0.028 -0.364641,-0.1031 z m -4.894575,-0.6221 c -0.195807,-0.5102 0.06418,-0.7474 0.340457,-0.3105 0.276588,0.4373 0.282475,0.6949 0.01589,0.6949 -0.114881,0 -0.275234,-0.173 -0.356347,-0.3844 z m -2.007596,-2.415 c 0,-0.1246 -0.157878,-0.166 -0.350841,-0.092 -0.426294,0.1635 -0.464859,-0.2313 -0.05574,-0.5709 0.218623,-0.1814 0.36445,-0.098 0.562723,0.3223 0.147199,0.3119 0.172282,0.5671 0.05574,0.5671 -0.116534,0 -0.211882,-0.102 -0.211882,-0.2266 z m -4.565892,-0.3009 c -0.254529,-0.1404 -0.60032,-0.4474 -0.768413,-0.6825 -0.325368,-0.4549 -0.980778,-0.5842 -0.980778,-0.1934 0,0.1286 -0.2105009,0.2339 -0.4677835,0.2339 -0.2572826,0 -0.4677839,-0.1053 -0.4677839,-0.2339 0,-0.1286 -0.2105009,-0.2339 -0.4677835,-0.2339 -0.2572826,0 -0.4677839,-0.1053 -0.4677839,-0.2339 0,-0.1286 0.1061407,-0.2339 0.2358748,-0.2339 0.4618469,0 -0.3221386,-0.8901 -1.1184742,-1.2698 -0.5322078,-0.2538 -0.755291,-0.4961 -0.6674193,-0.7251 0.078419,-0.2044 -0.00443,-0.344 -0.2041691,-0.344 -0.2027111,0 -0.2827106,0.1393 -0.20153,0.3509 0.097964,0.2552 -0.027678,0.3508 -0.4613202,0.3508 -0.3277707,0 -0.6609965,-0.1053 -0.7405011,-0.2339 -0.079505,-0.1286 0.07216,-0.2339 0.3370325,-0.2339 0.2648729,0 0.4947423,-0.1053 0.5108269,-0.2339 0.01608,-0.1286 0.04239,-0.3303 0.058469,-0.4483 0.047415,-0.3477 0.380076,-0.5914 0.380076,-0.2785 0,0.1576 0.093326,0.229 0.2073895,0.1585 0.1140625,-0.071 0.3374546,0.028 0.496423,0.22 0.1589684,0.1916 0.2024701,0.3483 0.09667,0.3483 -0.1058,0 -0.070524,0.1218 0.078396,0.2708 0.2050775,0.2051 0.3537802,0.2018 0.6130293,-0.014 0.2746572,-0.228 0.5682878,-0.1696 1.4864261,0.2957 0.629287,0.3189 1.2819986,0.7459 1.4504696,0.9488 0.168471,0.2031 0.596291,0.3692 0.950712,0.3692 0.651103,0 1.295325,-0.4979 1.011502,-0.7817 -0.08465,-0.085 -0.03732,-0.1539 0.105168,-0.1539 0.498835,0 0.540375,0.4661 0.0851,0.9547 -0.30799,0.3306 -0.613693,0.4441 -0.927814,0.3444 -0.818144,-0.2597 -0.867728,0.3684 -0.08435,1.0684 0.765279,0.6837 0.718621,1.0523 -0.07766,0.6134 z m 2.785118,-0.685 c -0.10878,-0.176 -0.0412,-0.2221 0.193603,-0.132 0.198387,0.076 0.466903,0.032 0.5967,-0.098 0.158732,-0.1587 0.287444,-0.1527 0.393144,0.018 0.08643,0.1399 0.124624,0.2622 0.08487,0.2717 -0.742205,0.1785 -1.132165,0.16 -1.268321,-0.06 z m -10.5296971,-0.6947 c -0.11151,-0.1793 -0.4884833,-0.5077 -0.837721,-0.7297 -0.8942369,-0.5686 -1.2289117,-1.2472 -0.7127477,-1.4453 0.2188453,-0.084 0.3219382,-0.077 0.2290974,0.016 -0.2368101,0.2368 0.5437455,1.0469 0.8351817,0.8668 0.1345624,-0.083 0.167785,-0.033 0.076125,0.1156 -0.098392,0.1592 0.07215,0.3221 0.4316446,0.4123 0.6408517,0.1609 0.6976991,0.2748 0.3841459,0.7698 -0.1713687,0.2705 -0.2345575,0.2696 -0.4057262,-0.01 z m 0.7582434,-0.063 c 0.070234,-0.1831 0.2891517,-0.3947 0.4864889,-0.4705 0.2572012,-0.099 0.3183093,-0.032 0.2158067,0.235 -0.078646,0.2049 -0.1429883,0.4166 -0.1429883,0.4704 0,0.054 -0.1545757,0.098 -0.3434963,0.098 -0.2009392,0 -0.2905052,-0.1381 -0.215811,-0.3327 z m 8.9794147,-0.1351 c -0.315443,-0.5894 -0.05185,-0.5894 0.701678,0 0.578544,0.4526 0.579248,0.4575 0.0667,0.4626 -0.284914,0 -0.630686,-0.2053 -0.768378,-0.4626 z m -7.4845396,-0.1031 c 0,-0.057 0.1052502,-0.1682 0.2338939,-0.2477 0.1286389,-0.08 0.2338896,-0.033 0.2338896,0.1031 0,0.1363 -0.1052507,0.2477 -0.2338896,0.2477 -0.1286437,0 -0.2338939,-0.046 -0.2338939,-0.1031 z m 0.8380251,-0.3333 c -0.1007534,-0.163 -0.120027,-0.3596 -0.042823,-0.4367 0.2093246,-0.2094 0.437559,0.098 0.3245002,0.4377 -0.079223,0.2376 -0.1343172,0.2374 -0.281675,0 z m -3.2513932,-0.8855 c -0.087694,-0.088 -0.1718954,-0.6418 -0.187117,-1.2314 -0.023303,-0.9027 -0.051001,-0.9633 -0.1754206,-0.3836 -0.081258,0.3786 -0.2266809,0.6681 -0.3231602,0.6432 -0.096484,-0.025 -0.2689562,-0.045 -0.3832823,-0.045 -0.4751198,0 -0.5013429,-1.5978 -0.044693,-2.7232 0.4490423,-1.1067 0.5112678,-1.0888 0.6046535,0.174 0.066391,0.8978 0.3371054,1.2028 0.9617225,1.0834 0.3664031,-0.07 0.5573133,0 0.5573133,0.2118 0,0.1752 -0.2368149,0.3251 -0.5262576,0.3333 l -0.5262572,0.015 0.5262572,0.2115 c 0.2894427,0.1164 0.5246448,0.3465 0.5226783,0.5115 -0.00275,0.2308 -0.049893,0.2268 -0.2046553,-0.017 -0.1105921,-0.1745 -0.2599126,-0.2221 -0.331827,-0.1058 -0.07191,0.1164 -0.034053,0.3644 0.084129,0.5512 0.1181824,0.1869 0.2081801,0.4976 0.1999947,0.6906 -0.011656,0.2748 -0.04237,0.2817 -0.1416757,0.032 -0.08928,-0.2245 -0.1750482,-0.2408 -0.2898783,-0.055 -0.089693,0.1451 -0.2348302,0.1921 -0.3225246,0.1044 z m 23.2687337,-0.7831 c 0.117728,-0.3532 0.493848,-0.3896 0.604218,-0.059 0.0536,0.1608 -0.07796,0.2924 -0.292363,0.2924 -0.214403,0 -0.354739,-0.1053 -0.311855,-0.2339 z m -19.6674397,-0.3314 c -0.010158,-0.2465 0.045122,-0.3846 0.122843,-0.3069 0.07772,0.078 0.086028,0.2794 0.018465,0.4483 -0.074663,0.1865 -0.1300883,0.1311 -0.141308,-0.1414 z m -5.7646147,-1.3643 c -0.2679256,-2.1921 -0.2717728,-2.292 -0.092487,-2.4028 0.09121,-0.056 0.2382731,0.5533 0.3268031,1.3548 0.088526,0.8015 0.2185503,1.6941 0.288943,1.9835 0.070388,0.2895 0.021655,0.5263 -0.1083033,0.5263 -0.1299563,0 -0.3166873,-0.6578 -0.4149562,-1.4618 z m 3.6237421,1.4033 c -0.1759064,-0.5918 -0.1722139,-1.2282 0.00893,-1.5386 0.1742439,-0.2986 0.2297971,-0.1562 0.2352296,0.6031 0.0039,0.5467 -0.045512,0.994 -0.1098337,0.994 -0.06432,0 -0.124769,-0.026 -0.1343263,-0.058 z m 10.5425153,-1.9346 c 0,-0.1957 -0.263128,-0.4757 -0.584731,-0.6222 -0.508846,-0.2319 -0.81003,-0.6592 -0.464608,-0.6592 0.215666,0 1.162049,0.579 1.338123,0.8187 0.249275,0.3392 0.217133,0.8185 -0.05489,0.8185 -0.128639,0 -0.23389,-0.1601 -0.23389,-0.3558 z m -11.6945934,-1.5153 c -0.169738,-0.3171 -0.1723863,-0.4678 -0.00823,-0.4678 0.1331679,0 0.2421203,-0.1641 0.2421203,-0.3646 0,-0.2006 0.1052506,-0.2996 0.2338943,-0.2201 0.299903,0.1854 0.30713,1.5203 0.00823,1.5203 -0.1241147,0 -0.3383177,-0.2105 -0.4760099,-0.4678 z m -1.1658825,-0.7463 c 0.00198,-0.1684 0.1056097,-0.4641 0.2303151,-0.657 0.184328,-0.2852 0.2273984,-0.255 0.2303103,0.1616 0.00198,0.2818 -0.1016714,0.5775 -0.2303103,0.657 -0.1286437,0.08 -0.2322815,0.01 -0.2303151,-0.1616 z m -1.437114,-0.7155 c -0.092664,-2.3337 0.7345597,-7.6841 1.2144442,-7.8549 0.1204993,-0.043 0.2190906,-0.3142 0.2190906,-0.6028 0,-0.6337 1.0880585,-3.4049 1.5075934,-3.8398 0.248266,-0.2573 0.3246231,-0.2452 0.4458264,0.071 0.09315,0.2427 0.053209,0.3236 -0.1100202,0.2227 -0.16962,-0.1048 -0.2048958,0 -0.1043375,0.3203 0.1018164,0.3208 -6.265e-4,0.6209 -0.3105508,0.9096 -0.492185,0.4585 -0.9607274,1.4933 -0.9607274,2.1216 0,0.3177 0.056543,0.3056 0.3434009,-0.074 0.1888656,-0.2497 0.346744,-0.7435 0.3508365,-1.0972 0.0041,-0.3538 0.1126911,-0.6433 0.24133,-0.6433 0.4228872,0 0.244278,1.6031 -0.2923633,2.6241 -0.4506864,0.8575 -0.5369907,0.9257 -0.6009967,0.475 -0.041108,-0.2894 -0.160399,-0.5263 -0.2650864,-0.5263 -0.4564823,0 -0.6805013,2.8884 -0.2449049,3.1576 0.3890603,0.2404 0.285886,1.1225 -0.1133769,0.9693 -0.5152735,-0.1977 -0.7550413,0.4792 -0.7750729,2.1883 -0.027071,2.3094 -0.030608,2.3389 -0.2810072,2.3389 -0.1286437,0 -0.2474757,-0.3421 -0.2640778,-0.7602 z m 2.1883762,-0.037 c 0.07186,-0.376 0.013743,-0.5273 -0.1746936,-0.455 -0.3706686,0.1422 -0.6928115,-1.7693 -0.3550884,-2.1069 0.1677031,-0.1678 0.2427245,-0.033 0.2427245,0.4344 0,0.414 0.2410847,0.9288 0.6203883,1.3247 0.5181219,0.5408 0.571231,0.7068 0.3221969,1.0068 -0.4456986,0.5371 -0.7774576,0.4338 -0.6555277,-0.204 z m 27.4993007,-3.9274 c 0.2183,-0.2183 0.343042,-0.2183 0.561342,0 0.218296,0.2183 0.15593,0.2807 -0.280671,0.2807 -0.436601,0 -0.498967,-0.062 -0.280671,-0.2807 z m 1.450133,0.033 c 0,-0.1489 0.149166,-0.2134 0.331477,-0.1434 0.182316,0.07 0.392076,-0.031 0.466135,-0.2237 0.08154,-0.2125 0.250615,-0.2787 0.428665,-0.1679 0.161712,0.1007 0.520779,0.1538 0.797935,0.118 0.277155,-0.036 0.572807,0.046 0.657008,0.1826 0.08541,0.1382 -0.03397,0.2541 -0.270028,0.2623 -0.232713,0.01 -0.870431,0.066 -1.417156,0.1286 -0.662427,0.076 -0.994036,0.024 -0.994036,-0.1565 z m 3.227705,-0.033 c 0.2183,-0.2183 0.343042,-0.2183 0.561342,0 0.218295,0.2183 0.155929,0.2807 -0.280672,0.2807 -0.4366,0 -0.498966,-0.062 -0.28067,-0.2807 z m -5.396754,-1.2594 c -0.35681,-0.1935 -0.767764,-0.2782 -0.913233,-0.1883 -0.161889,0.1 -0.199745,0.059 -0.0976,-0.1066 0.106087,-0.1716 -0.0136,-0.27 -0.328502,-0.27 -0.272463,0 -0.444281,0.083 -0.381815,0.1837 0.06247,0.1011 -0.0892,0.1838 -0.337033,0.1838 -0.622155,0 -0.564499,-0.3257 0.112246,-0.634 0.454157,-0.2069 0.838098,-0.1497 1.988082,0.2962 1.401048,0.5432 1.822232,0.9149 1.015913,0.8965 -0.225123,-0.01 -0.701247,-0.1677 -1.058061,-0.3613 z m 20.880412,-3.1239 c 0,-0.1363 0.105244,-0.2477 0.233887,-0.2477 0.128639,0 0.233882,0.046 0.233882,0.1031 0,0.057 -0.105243,0.1682 -0.233882,0.2477 -0.128643,0.08 -0.233887,0.033 -0.233887,-0.1031 z m 0.467769,-4.327 c 0,-0.057 0.105249,-0.1682 0.233888,-0.2477 0.128638,-0.08 0.233882,-0.033 0.233882,0.1031 0,0.1362 -0.105244,0.2477 -0.233882,0.2477 -0.128639,0 -0.233888,-0.046 -0.233888,-0.1031 z m -46.3105941,-1.1557 c 0,-0.193 0.1052507,-0.4159 0.2338896,-0.4954 0.1286389,-0.08 0.2338939,0.014 0.2338939,0.2063 0,0.193 -0.105255,0.4159 -0.2338939,0.4954 -0.1286389,0.08 -0.2338896,-0.014 -0.2338896,-0.2063 z m 0.9355674,-0.014 c 0,-0.057 0.1052507,-0.1681 0.2338896,-0.2476 0.1286389,-0.079 0.2338944,-0.033 0.2338944,0.1031 0,0.1363 -0.1052555,0.2477 -0.2338944,0.2477 -0.1286389,0 -0.2338896,-0.046 -0.2338896,-0.1032 z m 1.4033513,-1.2863 c 0,-0.1363 0.1052507,-0.2477 0.2338896,-0.2477 0.1286389,0 0.2338944,0.046 0.2338944,0.1031 0,0.057 -0.1052555,0.1682 -0.2338944,0.2477 -0.1286389,0.08 -0.2338896,0.033 -0.2338896,-0.1031 z m 0.3455177,-2.1275 c -0.079173,-0.1281 -0.2682435,-0.1584 -0.4201531,-0.067 -0.1573507,0.094 -0.138069,0 0.044799,-0.2301 0.3338209,-0.4115 1.0865229,-0.5335 1.2873079,-0.2087 0.063592,0.1029 -0.083193,0.3113 -0.3261901,0.463 -0.2853768,0.1782 -0.4927802,0.1935 -0.5857616,0.043 z m 30.9233157,-3.2925 c -0.232931,-0.1355 -0.580465,-0.1862 -0.772297,-0.1126 -0.196942,0.076 -0.286572,0.033 -0.205882,-0.097 0.0786,-0.1272 0.0139,-0.2312 -0.143779,-0.2312 -0.518521,0 0.01069,-0.3097 0.644745,-0.3773 0.728364,-0.078 2.030565,0.5307 1.830145,0.855 -0.180154,0.2915 -0.818539,0.2742 -1.352932,-0.037 z" />
    <path
       d="m 222.44791,56.485737 a 28.884468,28.884468 0 1 1 -57.76893,0 28.884468,28.884468 0 1 1 57.76893,0 z"
       sodipodi:ry="28.884468"
       sodipodi:rx="28.884468"
       sodipodi:cy="56.485737"
       sodipodi:cx="193.56345"
       id="path3527"
       style="opacity:0.52016129;fill:url(#radialGradient3260);fill-opacity:1;stroke:url(#linearGradient3262);stroke-width:1.79430115;stroke-miterlimit:4;stroke-opacity:1;display:inline"
       sodipodi:type="arc"
       transform="matrix(0.56473883,-0.1009852,0.07114915,0.39788378,-86.481735,1004.0284)" />
  </g>
  <g
     inkscape:groupmode="layer"
     id="layer5"
     inkscape:label="Shadow"
     style="display:inline">
    <path
       inkscape:connector-curvature="0"
       style="color:#000000;fill:url(#linearGradient4842);fill-opacity:1;stroke:none;stroke-width:1;marker:none;visibility:visible;display:inline;overflow:visible;enable-background:accumulate"
       d="M 51.375,11.03125 C 34.731348,11.874919 21.5,25.646685 21.5,42.5 21.5,48.430887 23.150086,53.981805 26,58.71875 27.309855,58.8998 28.640348,59 30,59 46.016258,59 59,46.016258 59,30 59,22.738999 56.316073,16.118497 51.90625,11.03125 c -0.176204,0.006 -0.355793,-0.0089 -0.53125,0 z"
       id="path3068" />
    <g
       id="g5596"
       transform="matrix(0.285,0,0,0.285,30,30.00002)"
       inkscape:label="WireframeSphere"
       style="stroke:#b2f2ff;stroke-width:1.75438595;stroke-miterlimit:4;stroke-opacity:0.37647059;stroke-dasharray:none;display:inline">
      <g
         id="g5598"
         inkscape:label="Lines of Longitude"
         style="stroke:#b2f2ff;stroke-width:1.75438595;stroke-miterlimit:4;stroke-opacity:0.37647059;stroke-dasharray:none">
        <path
           d="M 1.5313594e-7,100 A 5.715116,100 0 1 1 1.1210377e-7,-100"
           id="path5600"
           sodipodi:cx="0"
           sodipodi:cy="0"
           transform="matrix(0.99919663,0.04007615,-0.04007615,0.99919663,0,0)"
           sodipodi:end="4.712389"
           sodipodi:start="1.5707963"
           sodipodi:open="true"
           sodipodi:type="arc"
           style="fill:none;stroke:#b2f2ff;stroke-width:1.75438595;stroke-miterlimit:4;stroke-opacity:0.37647059;stroke-dasharray:none"
           sodipodi:ry="100"
           sodipodi:rx="5.715116" />
        <path
           d="M 9.7939055e-7,100 A 36.551384,100 0 1 1 7.1696673e-7,-100"
           id="path5602"
           sodipodi:cx="0"
           sodipodi:cy="0"
           transform="matrix(0.96145779,0.27495257,-0.27495257,0.96145779,0,0)"
           sodipodi:end="4.712389"
           sodipodi:start="1.5707963"
           sodipodi:open="true"
           sodipodi:type="arc"
           style="fill:none;stroke:#b2f2ff;stroke-width:1.75438595;stroke-miterlimit:4;stroke-opacity:0.37647059;stroke-dasharray:none"
           sodipodi:ry="100"
           sodipodi:rx="36.551384" />
        <path
           d="M 1.6565459e-6,100 A 61.823189,100 0 1 1 1.212681e-6,-100"
           id="path5604"
           sodipodi:cx="0"
           sodipodi:cy="0"
           transform="matrix(0.83467686,0.55074,-0.55074,0.83467686,0,0)"
           sodipodi:end="4.712389"
           sodipodi:start="1.5707963"
           sodipodi:open="true"
           sodipodi:type="arc"
           style="fill:none;stroke:#b2f2ff;stroke-width:1.75438595;stroke-miterlimit:4;stroke-opacity:0.37647059;stroke-dasharray:none"
           sodipodi:ry="100"
           sodipodi:rx="61.823189" />
        <path
           d="M 2.0815114e-6,100 A 77.683128,100 0 1 1 1.5237787e-6,-100"
           id="path5606"
           sodipodi:cx="0"
           sodipodi:cy="0"
           transform="matrix(0.50388121,0.86377296,-0.86377296,0.50388121,0,0)"
           sodipodi:end="4.712389"
           sodipodi:start="1.5707963"
           sodipodi:open="true"
           sodipodi:type="arc"
           style="fill:none;stroke:#b2f2ff;stroke-width:1.75438595;stroke-miterlimit:4;stroke-opacity:0.37647059;stroke-dasharray:none"
           sodipodi:ry="100"
           sodipodi:rx="77.683128" />
        <path
           d="M 1.6028976e-6,-100 A 81.71666,100 0 0 1 2.7762813e-6,100"
           id="path5608"
           sodipodi:cx="0"
           sodipodi:cy="0"
           transform="matrix(0.12101765,-0.99265036,0.99265036,0.12101765,0,0)"
           sodipodi:end="7.8539816"
           sodipodi:start="4.712389"
           sodipodi:open="true"
           sodipodi:type="arc"
           style="fill:none;stroke:#b2f2ff;stroke-width:1.75438595;stroke-miterlimit:4;stroke-opacity:0.37647059;stroke-dasharray:none"
           sodipodi:ry="100"
           sodipodi:rx="81.71666" />
        <path
           d="M 1.4379931e-6,-100 A 73.309731,100 0 0 1 2.4906602e-6,100"
           id="path5610"
           sodipodi:cx="0"
           sodipodi:cy="0"
           transform="matrix(0.65604345,-0.75472312,0.75472312,0.65604345,0,0)"
           sodipodi:end="7.8539816"
           sodipodi:start="4.712389"
           sodipodi:open="true"
           sodipodi:type="arc"
           style="fill:none;stroke:#b2f2ff;stroke-width:1.75438595;stroke-miterlimit:4;stroke-opacity:0.37647059;stroke-dasharray:none"
           sodipodi:ry="100"
           sodipodi:rx="73.309731" />
        <path
           d="m 1.0541701e-6,-100 a 53.74221,100 0 0 1 7.716937e-7,200"
           id="path5612"
           sodipodi:cx="0"
           sodipodi:cy="0"
           transform="matrix(0.89492694,-0.44621271,0.44621271,0.89492694,0,0)"
           sodipodi:end="7.8539816"
           sodipodi:start="4.712389"
           sodipodi:open="true"
           sodipodi:type="arc"
           style="fill:none;stroke:#b2f2ff;stroke-width:1.75438595;stroke-miterlimit:4;stroke-opacity:0.37647059;stroke-dasharray:none"
           sodipodi:ry="100"
           sodipodi:rx="53.74221" />
        <path
           d="M 5.0986225e-7,-100 A 25.993076,100 0 0 1 8.8310133e-7,100"
           id="path5614"
           sodipodi:cx="0"
           sodipodi:cy="0"
           transform="matrix(0.98207772,-0.18847642,0.18847642,0.98207772,0,0)"
           sodipodi:end="7.8539816"
           sodipodi:start="4.712389"
           sodipodi:open="true"
           sodipodi:type="arc"
           style="fill:none;stroke:#b2f2ff;stroke-width:1.75438595;stroke-miterlimit:4;stroke-opacity:0.37647059;stroke-dasharray:none"
           sodipodi:ry="100"
           sodipodi:rx="25.993076" />
      </g>
      <g
         id="g5616"
         inkscape:label="Lines of Latitude"
         style="stroke:#b2f2ff;stroke-width:1.75438595;stroke-miterlimit:4;stroke-opacity:0.37647059;stroke-dasharray:none">
        <path
           d="m 40.624789,91.37708 a 66.312263,38.036152 0 0 1 -81.249577,0"
           id="path5618"
           sodipodi:cx="0"
           sodipodi:cy="61.314411"
           sodipodi:end="2.2301784"
           sodipodi:start="0.91141422"
           sodipodi:open="true"
           sodipodi:type="arc"
           style="fill:none;stroke:#b2f2ff;stroke-width:1.75438595;stroke-miterlimit:4;stroke-opacity:0.37647059;stroke-dasharray:none"
           sodipodi:ry="38.036152"
           sodipodi:rx="66.312263" />
        <path
           d="m 72.047682,69.348382 a 82.298386,47.205414 0 0 1 -144.095365,0"
           id="path5620"
           sodipodi:cx="0"
           sodipodi:cy="46.533138"
           sodipodi:end="2.6371514"
           sodipodi:start="0.50444126"
           sodipodi:open="true"
           sodipodi:type="arc"
           style="fill:none;stroke:#b2f2ff;stroke-width:1.75438595;stroke-miterlimit:4;stroke-opacity:0.37647059;stroke-dasharray:none"
           sodipodi:ry="47.205414"
           sodipodi:rx="82.298386" />
        <path
           d="m 90.144549,43.289528 a 93.501625,53.631329 0 0 1 -180.289099,-10e-7"
           id="path5622"
           sodipodi:cx="0"
           sodipodi:cy="29.047531"
           sodipodi:end="2.8728145"
           sodipodi:start="0.26877819"
           sodipodi:open="true"
           sodipodi:type="arc"
           style="fill:none;stroke:#b2f2ff;stroke-width:1.75438595;stroke-miterlimit:4;stroke-opacity:0.37647059;stroke-dasharray:none"
           sodipodi:ry="53.631329"
           sodipodi:rx="93.501625" />
        <path
           d="m 98.911449,14.714897 a 99.270889,56.940441 0 0 1 -197.822898,0"
           id="path5624"
           sodipodi:cx="0"
           sodipodi:cy="9.8737869"
           sodipodi:end="3.0564693"
           sodipodi:start="0.085123351"
           sodipodi:open="true"
           sodipodi:type="arc"
           style="fill:none;stroke:#b2f2ff;stroke-width:1.75438595;stroke-miterlimit:4;stroke-opacity:0.37647059;stroke-dasharray:none"
           sodipodi:ry="56.940441"
           sodipodi:rx="99.270889" />
        <path
           d="m 98.911449,-14.714894 a 99.270889,56.940441 0 1 1 -197.822898,-2e-6"
           id="path5626"
           sodipodi:cx="0"
           sodipodi:cy="-9.8737869"
           sodipodi:end="9.5099013"
           sodipodi:start="6.198062"
           sodipodi:open="true"
           sodipodi:type="arc"
           style="fill:none;stroke:#b2f2ff;stroke-width:1.75438595;stroke-miterlimit:4;stroke-opacity:0.37647059;stroke-dasharray:none"
           sodipodi:ry="56.940441"
           sodipodi:rx="99.270889" />
        <path
           d="m 90.144549,-43.289529 a 93.501625,53.631329 0 1 1 -180.2891,3e-6"
           id="path5628"
           sodipodi:cx="0"
           sodipodi:cy="-29.047531"
           sodipodi:end="9.6935561"
           sodipodi:start="6.0144071"
           sodipodi:open="true"
           sodipodi:type="arc"
           style="fill:none;stroke:#b2f2ff;stroke-width:1.75438595;stroke-miterlimit:4;stroke-opacity:0.37647059;stroke-dasharray:none"
           sodipodi:ry="53.631329"
           sodipodi:rx="93.501625" />
        <path
           d="m 72.047684,-69.34838 a 82.298386,47.205414 0 1 1 -144.095367,-10e-7"
           id="path5630"
           sodipodi:cx="0"
           sodipodi:cy="-46.533138"
           sodipodi:end="9.9292192"
           sodipodi:start="5.7787441"
           sodipodi:open="true"
           sodipodi:type="arc"
           style="fill:none;stroke:#b2f2ff;stroke-width:1.75438595;stroke-miterlimit:4;stroke-opacity:0.37647059;stroke-dasharray:none"
           sodipodi:ry="47.205414"
           sodipodi:rx="82.298386" />
        <path
           d="m 40.62479,-91.377079 a 66.312263,38.036152 0 1 1 -81.249589,4e-6"
           id="path5632"
           sodipodi:cx="0"
           sodipodi:cy="-61.314411"
           sodipodi:end="10.336192"
           sodipodi:start="5.3717711"
           sodipodi:open="true"
           sodipodi:type="arc"
           style="fill:none;stroke:#b2f2ff;stroke-width:1.75438595;stroke-miterlimit:4;stroke-opacity:0.37647059;stroke-dasharray:none"
           sodipodi:ry="38.036152"
           sodipodi:rx="66.312263" />
        <path
           d="m 46.472317,-72.53231 a 46.472317,26.656425 0 1 1 -92.944634,0 46.472317,26.656425 0 1 1 92.944634,0 z"
           id="path5634"
           sodipodi:cx="0"
           sodipodi:cy="-72.53231"
           sodipodi:type="arc"
           style="fill:none;stroke:#b2f2ff;stroke-width:1.75438595;stroke-miterlimit:4;stroke-opacity:0.37647059;stroke-dasharray:none"
           sodipodi:ry="26.656425"
           sodipodi:rx="46.472317" />
        <path
           d="m 23.931566,-79.534897 a 23.931566,13.727583 0 1 1 -47.863132,0 23.931566,13.727583 0 1 1 47.863132,0 z"
           id="path5636"
           sodipodi:cx="0"
           sodipodi:cy="-79.534897"
           sodipodi:type="arc"
           style="fill:none;stroke:#b2f2ff;stroke-width:1.75438595;stroke-miterlimit:4;stroke-opacity:0.37647059;stroke-dasharray:none"
           sodipodi:ry="13.727583"
           sodipodi:rx="23.931566" />
      </g>
      <path
         d="M 100,0 A 100,100 0 1 1 -100,0 100,100 0 1 1 100,0 z"
         id="path5638"
         sodipodi:cx="0"
         sodipodi:cy="0"
         sodipodi:type="arc"
         style="fill:none;stroke:#b2f2ff;stroke-width:1.75438595;stroke-miterlimit:4;stroke-opacity:0.37647059;stroke-dasharray:none"
         sodipodi:ry="100"
         sodipodi:rx="100" />
    </g>
  </g>
  <g
     inkscape:groupmode="layer"
     id="layer3"
     inkscape:label="Earphones"
     style="display:inline">
    <path
       transform="translate(0,-992.36218)"
       style="fill:url(#linearGradient4406);fill-opacity:1;stroke:none;"
       d="m 1.6689329,1024.7692 c -1.39106006,4.4367 2.7522913,12.4743 6.3583924,16.8933 2.7756837,3.4013 6.1173567,5.1374 9.9787597,7.2142 2.161991,1.1629 8.015858,2.2572 8.015858,2.2572 0,0 -12.197457,-8.6767 -14.002307,-15.0237 -1.435797,-5.0493 3.281628,-5.7622 2.336075,-8.8783 -0.919873,-3.0315 -2.948983,-7.2768 -6.372215,-7.7649 -2.720954,-0.3879 -5.492298,2.6796 -6.3145631,5.3022 z"
       id="path4398"
       inkscape:connector-curvature="0"
       sodipodi:nodetypes="ssscssss" />
    <path
       transform="translate(0,-992.36218)"
       sodipodi:nodetypes="sssscssss"
       inkscape:connector-curvature="0"
       id="path4408"
       d="m 58.022881,1024.7692 c 1.39106,4.4367 -1.728199,10.7645 -4.732757,15.0999 -1.41018,2.0348 -4.206061,4.4931 -6.226185,5.9926 -2.020125,1.4995 -3.264494,2.0401 -5.485988,3.1436 -3.577542,1.777 -8.433891,2.2255 -8.433891,2.2255 0,0 12.723268,-8.7736 14.528118,-15.1206 1.435797,-5.0493 -3.281628,-5.7622 -2.336075,-8.8783 0.919873,-3.0315 2.948983,-7.2768 6.372215,-7.7649 2.720954,-0.3879 5.492298,2.6796 6.314563,5.3022 z"
       style="fill:url(#linearGradient4410);fill-opacity:1;stroke:none;" />
    <path
       style="fill:none;stroke:#e7e7e7;stroke-width:0.5;stroke-linecap:butt;stroke-linejoin:miter;stroke-miterlimit:4;stroke-opacity:1;stroke-dasharray:none"
       d="M 5.5242716,27.801388 C 8.3968933,26.917504 13.384521,37.966047 13.384521,37.966047"
       id="path3139"
       inkscape:connector-curvature="0"
       sodipodi:nodetypes="cc" />
    <path
       inkscape:transform-center-y="0.57092802"
       inkscape:transform-center-x="-0.62195991"
       transform="matrix(0.3902179,0.26106701,-0.26746414,0.40543985,22.651021,22.011223)"
       d="m -21.71828,34.493649 a 1.2626907,2.0203052 0 1 1 -2.525381,0 1.2626907,2.0203052 0 1 1 2.525381,0 z"
       sodipodi:ry="2.0203052"
       sodipodi:rx="1.2626907"
       sodipodi:cy="34.493649"
       sodipodi:cx="-22.98097"
       id="path3909"
       style="color:#000000;fill:url(#radialGradient3929);fill-opacity:1;stroke:none;stroke-width:0.5;marker:none;visibility:visible;display:inline;overflow:visible;enable-background:accumulate"
       sodipodi:type="arc" />
    <path
       sodipodi:type="arc"
       style="color:#000000;fill:url(#radialGradient3921);fill-opacity:1;stroke:none;stroke-width:0.5;marker:none;visibility:visible;display:inline;overflow:visible;enable-background:accumulate"
       id="path3911"
       sodipodi:cx="-22.98097"
       sodipodi:cy="34.493649"
       sodipodi:rx="1.2626907"
       sodipodi:ry="2.0203052"
       d="m -21.71828,34.493649 a 1.2626907,2.0203052 0 1 1 -2.525381,0 1.2626907,2.0203052 0 1 1 2.525381,0 z"
       transform="matrix(0.3902179,0.26106701,-0.26746414,0.40543985,24.260952,23.337048)"
       inkscape:transform-center-x="-0.62195991"
       inkscape:transform-center-y="0.57092802" />
    <path
       inkscape:transform-center-y="0.57092802"
       inkscape:transform-center-x="-0.62195991"
       transform="matrix(0.3902179,0.26106701,-0.26746414,0.40543985,25.713046,25.010113)"
       d="m -21.71828,34.493649 a 1.2626907,2.0203052 0 1 1 -2.525381,0 1.2626907,2.0203052 0 1 1 2.525381,0 z"
       sodipodi:ry="2.0203052"
       sodipodi:rx="1.2626907"
       sodipodi:cy="34.493649"
       sodipodi:cx="-22.98097"
       id="path3913"
       style="color:#000000;fill:url(#radialGradient3937);fill-opacity:1;stroke:none;stroke-width:0.5;marker:none;visibility:visible;display:inline;overflow:visible;enable-background:accumulate"
       sodipodi:type="arc" />
    <path
       sodipodi:nodetypes="cc"
       inkscape:connector-curvature="0"
       id="path3939"
       d="M 54.336589,28.001388 C 51.463967,27.117504 46.47634,38.166047 46.47634,38.166047"
       style="fill:none;stroke:#e7e7e7;stroke-width:0.5;stroke-linecap:butt;stroke-linejoin:miter;stroke-miterlimit:4;stroke-opacity:1;stroke-dasharray:none" />
    <path
       sodipodi:type="arc"
       style="color:#000000;fill:url(#radialGradient3947);fill-opacity:1;stroke:none;stroke-width:0.5;marker:none;visibility:visible;display:inline;overflow:visible;enable-background:accumulate"
       id="path3941"
       sodipodi:cx="-22.98097"
       sodipodi:cy="34.493649"
       sodipodi:rx="1.2626907"
       sodipodi:ry="2.0203052"
       d="m -21.71828,34.493649 a 1.2626907,2.0203052 0 1 1 -2.525381,0 1.2626907,2.0203052 0 1 1 2.525381,0 z"
       transform="matrix(-0.3902179,0.26106701,0.26746414,0.40543985,37.20984,22.211223)"
       inkscape:transform-center-x="0.62195992"
       inkscape:transform-center-y="0.57092802" />
    <path
       inkscape:transform-center-y="0.57092802"
       inkscape:transform-center-x="0.62195992"
       transform="matrix(-0.3902179,0.26106701,0.26746414,0.40543985,35.599909,23.537048)"
       d="m -21.71828,34.493649 a 1.2626907,2.0203052 0 1 1 -2.525381,0 1.2626907,2.0203052 0 1 1 2.525381,0 z"
       sodipodi:ry="2.0203052"
       sodipodi:rx="1.2626907"
       sodipodi:cy="34.493649"
       sodipodi:cx="-22.98097"
       id="path3943"
       style="color:#000000;fill:url(#radialGradient3949);fill-opacity:1;stroke:none;stroke-width:0.5;marker:none;visibility:visible;display:inline;overflow:visible;enable-background:accumulate"
       sodipodi:type="arc" />
    <path
       sodipodi:type="arc"
       style="color:#000000;fill:url(#radialGradient3951);fill-opacity:1;stroke:none;stroke-width:0.5;marker:none;visibility:visible;display:inline;overflow:visible;enable-background:accumulate"
       id="path3945"
       sodipodi:cx="-22.98097"
       sodipodi:cy="34.493649"
       sodipodi:rx="1.2626907"
       sodipodi:ry="2.0203052"
       d="m -21.71828,34.493649 a 1.2626907,2.0203052 0 1 1 -2.525381,0 1.2626907,2.0203052 0 1 1 2.525381,0 z"
       transform="matrix(-0.3902179,0.26106701,0.26746414,0.40543985,34.147815,25.210113)"
       inkscape:transform-center-x="0.62195992"
       inkscape:transform-center-y="0.57092802" />
    <path
       style="fill:url(#linearGradient4981);fill-opacity:1;stroke:none"
       d="M 12.106047,40.049487 C 8.2842312,39.063142 8.5239533,38.746616 6.8500969,37.650375 c 0.4727179,4.270196 3.7857561,7.766344 7.0395011,9.785853 -1.923286,-2.936552 -2.696825,-5.263975 -1.783551,-7.386741 z"
       id="path4965"
       inkscape:connector-curvature="0"
       sodipodi:nodetypes="cccc" />
    <path
       sodipodi:nodetypes="cccc"
       inkscape:connector-curvature="0"
       id="path4983"
       d="m 47.583551,40.049487 c 3.821816,-0.986345 3.582094,-1.302871 5.25595,-2.399112 -0.472718,4.270196 -3.785756,7.766344 -7.039501,9.785853 1.923286,-2.936552 2.696825,-5.263975 1.783551,-7.386741 z"
       style="fill:url(#linearGradient4985);fill-opacity:1;stroke:none" />
  </g>
  <g
     inkscape:groupmode="layer"
     id="layer2"
     inkscape:label="Text"
     style="display:none"
     sodipodi:insensitive="true">
    <text
       xml:space="preserve"
       style="font-size:21.44113541px;font-style:normal;font-variant:normal;font-weight:500;font-stretch:normal;text-align:center;line-height:125%;letter-spacing:0px;word-spacing:0px;writing-mode:lr-tb;text-anchor:middle;fill:url(#linearGradient4013);fill-opacity:1;stroke:none;filter:url(#filter3167);font-family:Roboto;-inkscape-font-specification:Roboto Medium"
       x="28.833189"
       y="1025.1865"
       id="text3285"
       sodipodi:linespacing="125%"
       transform="matrix(1.0050742,0,0,0.99495142,0,-992.36218)"><tspan
         sodipodi:role="line"
         x="28.833189"
         y="1025.1865"
         style="font-style:normal;font-variant:normal;font-weight:bold;font-stretch:normal;fill:url(#linearGradient4013);fill-opacity:1;stroke:none;font-family:Bitstream Vera Sans;-inkscape-font-specification:Bitstream Vera Sans Bold"
         id="tspan3289">WR</tspan></text>
  </g>
  <g
     inkscape:groupmode="layer"
     id="layer4"
     inkscape:label="Play"
     style="display:inline">
    <path
       id="path2936"
       style="fill:#ffffff;fill-opacity:1;fill-rule:nonzero;stroke:none;"
       d="m 39.302282,29.293741 c 0.29823,0.21494 0.451374,0.478241 0.451374,0.787218 0,0.314349 -0.153144,0.577651 -0.451374,0.781844 l -15.575089,8.965684 c -0.137024,0.08598 -0.282108,0.128964 -0.43794,0.128964 -0.155831,0 -0.303603,-0.04299 -0.448687,-0.128964 -0.300916,-0.171952 -0.451374,-0.427193 -0.451374,-0.771097 l 0,-17.955549 c 0,-0.335844 0.150458,-0.593772 0.451374,-0.771098 0.31435,-0.198819 0.612579,-0.198819 0.886627,0 l 15.575089,8.962998 z"
       inkscape:connector-curvature="0"
       transform="matrix(0.73154213,0,0,0.73154213,8.6506288,8.0111304)" />
  </g>
</svg>
